<svg width="13" height="12" viewBox="0 0 13 12" fill="none" xmlns="http://www.w3.org/2000/svg">
<path d="M1.21875 7.24219C0.423177 6.4974 0.0169271 5.57487 0 4.47461V4.32227C0.0169271 3.4082 0.304688 2.62956 0.863281 1.98633C1.42188 1.32617 2.14128 0.911458 3.02148 0.742188C3.61393 0.657552 4.18945 0.69987 4.74805 0.869141C5.28971 1.03841 5.77214 1.33464 6.19531 1.75781L6.5 2.0625L6.80469 1.75781C7.22786 1.33464 7.71029 1.03841 8.25195 0.869141C8.81055 0.69987 9.38607 0.657552 9.97852 0.742188C10.8587 0.911458 11.5781 1.32617 12.1367 1.98633C12.6953 2.62956 12.9831 3.4082 13 4.32227V4.47461C12.9831 5.57487 12.5768 6.4974 11.7812 7.24219L7.21094 11.5332C7.00781 11.7194 6.77083 11.8125 6.5 11.8125C6.22917 11.8125 5.99219 11.7194 5.78906 11.5332L1.21875 7.24219Z" fill="#FA3434"/>
</svg>
