<svg width="22" height="15" viewBox="0 0 22 15" fill="none" xmlns="http://www.w3.org/2000/svg">
<path d="M21.4844 2.34375C21.6146 2.94271 21.7188 3.63281 21.7969 4.41406C21.849 5.22135 21.888 5.9375 21.9141 6.5625C21.9141 7.16146 21.9141 7.47396 21.9141 7.5C21.9141 7.55208 21.9141 7.8776 21.9141 8.47656C21.888 9.10156 21.849 9.80469 21.7969 10.5859C21.7188 11.3932 21.6146 12.0964 21.4844 12.6953C21.1719 13.6589 20.5339 14.2839 19.5703 14.5703C18.9453 14.7005 17.9818 14.8047 16.6797 14.8828C15.3776 14.9349 14.1667 14.974 13.0469 15C11.9271 15 11.3281 15 11.25 15C11.1719 15 10.5729 15 9.45312 15C8.33333 14.974 7.1224 14.9349 5.82031 14.8828C4.51823 14.8047 3.55469 14.7005 2.92969 14.5703C1.96615 14.2839 1.32812 13.6589 1.01562 12.6953C0.885417 12.0964 0.78125 11.3932 0.703125 10.5859C0.651042 9.80469 0.611979 9.10156 0.585938 8.47656C0.585938 7.8776 0.585938 7.55208 0.585938 7.5C0.585938 7.47396 0.585938 7.16146 0.585938 6.5625C0.611979 5.9375 0.651042 5.22135 0.703125 4.41406C0.78125 3.63281 0.885417 2.94271 1.01562 2.34375C1.32812 1.38021 1.96615 0.742188 2.92969 0.429688C3.55469 0.299479 4.51823 0.195312 5.82031 0.117188C7.1224 0.0651042 8.33333 0.0260417 9.45312 0C10.5729 0 11.1719 0 11.25 0C11.3281 0 11.9271 0 13.0469 0C14.1667 0.0260417 15.3776 0.0651042 16.6797 0.117188C17.9818 0.195312 18.9453 0.299479 19.5703 0.429688C20.5339 0.742188 21.1719 1.38021 21.4844 2.34375ZM9.0625 10.7031L14.6484 7.5L9.0625 4.33594V10.7031Z" fill="#585757"/>
</svg>
