<svg width="18" height="19" viewBox="0 0 18 19" fill="none" xmlns="http://www.w3.org/2000/svg">
<path d="M9 5.00781C10.276 5.03385 11.3307 5.47656 12.1641 6.33594C13.0234 7.16927 13.4661 8.22396 13.4922 9.5C13.4661 10.776 13.0234 11.8307 12.1641 12.6641C11.3307 13.5234 10.276 13.9661 9 13.9922C7.72396 13.9661 6.66927 13.5234 5.83594 12.6641C4.97656 11.8307 4.53385 10.776 4.50781 9.5C4.53385 8.22396 4.97656 7.16927 5.83594 6.33594C6.66927 5.47656 7.72396 5.03385 9 5.00781ZM9 12.4297C9.83333 12.4036 10.5234 12.1172 11.0703 11.5703C11.6172 11.0234 11.9036 10.3333 11.9297 9.5C11.9036 8.66667 11.6172 7.97656 11.0703 7.42969C10.5234 6.88281 9.83333 6.59635 9 6.57031C8.16667 6.59635 7.47656 6.88281 6.92969 7.42969C6.38281 7.97656 6.09635 8.66667 6.07031 9.5C6.09635 10.3333 6.38281 11.0234 6.92969 11.5703C7.47656 12.1172 8.16667 12.4036 9 12.4297ZM14.7422 4.8125C14.7161 4.52604 14.612 4.27865 14.4297 4.07031C14.2214 3.88802 13.974 3.79688 13.6875 3.79688C13.375 3.79688 13.1276 3.88802 12.9453 4.07031C12.737 4.27865 12.6328 4.52604 12.6328 4.8125C12.6849 5.46354 13.0365 5.8151 13.6875 5.86719C14.3125 5.8151 14.6641 5.46354 14.7422 4.8125ZM17.7109 5.90625V5.86719C17.737 6.38802 17.75 7.13021 17.75 8.09375C17.75 9.03125 17.75 9.96875 17.75 10.9062C17.75 11.8438 17.737 12.5729 17.7109 13.0938C17.7109 14.526 17.2292 15.75 16.2656 16.7656C15.25 17.7292 14.0391 18.1979 12.6328 18.1719C12.112 18.1979 11.3698 18.224 10.4062 18.25C9.46875 18.25 8.53125 18.25 7.59375 18.25C6.63021 18.224 5.90104 18.1979 5.40625 18.1719C3.97396 18.1979 2.75 17.7292 1.73438 16.7656C0.770833 15.75 0.302083 14.526 0.328125 13.0938C0.276042 12.5729 0.25 11.8438 0.25 10.9062C0.25 9.96875 0.25 9.03125 0.25 8.09375C0.25 7.13021 0.276042 6.38802 0.328125 5.86719C0.302083 4.46094 0.770833 3.25 1.73438 2.23438C2.77604 1.27083 4 0.789062 5.40625 0.789062C5.90104 0.763021 6.63021 0.75 7.59375 0.75C8.53125 0.75 9.46875 0.75 10.4062 0.75C11.3698 0.75 12.112 0.763021 12.6328 0.789062C14.0391 0.789062 15.25 1.27083 16.2656 2.23438C17.2292 3.25 17.7109 4.47396 17.7109 5.90625ZM15.8359 14.6562C16.0182 14.1354 16.1224 13.4323 16.1484 12.5469C16.2005 11.6615 16.2135 10.8542 16.1875 10.125C16.1875 9.89062 16.1875 9.68229 16.1875 9.5C16.1875 9.31771 16.1875 9.10938 16.1875 8.875C16.2135 8.14583 16.2005 7.33854 16.1484 6.45312C16.1224 5.56771 16.0182 4.86458 15.8359 4.34375C15.4974 3.5625 14.9375 3.0026 14.1562 2.66406C13.6354 2.48177 12.9323 2.3776 12.0469 2.35156C11.1615 2.32552 10.3542 2.3125 9.625 2.3125C9.39062 2.3125 9.18229 2.3125 9 2.3125C8.81771 2.3125 8.60938 2.3125 8.375 2.3125C7.64583 2.28646 6.83854 2.29948 5.95312 2.35156C5.09375 2.3776 4.39062 2.48177 3.84375 2.66406C3.0625 3.0026 2.5026 3.5625 2.16406 4.34375C1.98177 4.86458 1.8776 5.56771 1.85156 6.45312C1.82552 7.33854 1.8125 8.14583 1.8125 8.875C1.8125 9.10938 1.8125 9.31771 1.8125 9.5C1.8125 9.68229 1.8125 9.89062 1.8125 10.125C1.8125 10.8542 1.82552 11.6615 1.85156 12.5469C1.8776 13.4062 1.98177 14.1094 2.16406 14.6562C2.5026 15.4375 3.0625 15.9974 3.84375 16.3359C4.39062 16.5182 5.09375 16.6224 5.95312 16.6484C6.83854 16.6745 7.64583 16.6875 8.375 16.6875C8.60938 16.6875 8.81771 16.6875 9 16.6875C9.18229 16.6875 9.39062 16.6875 9.625 16.6875C10.3542 16.6875 11.1615 16.6745 12.0469 16.6484C12.9323 16.6224 13.6354 16.5182 14.1562 16.3359C14.9375 15.9974 15.4974 15.4375 15.8359 14.6562Z" fill="#585757"/>
</svg>
