<svg width="236" height="33" viewBox="0 0 236 33" fill="none" xmlns="http://www.w3.org/2000/svg">
<path d="M9.276 21.196C6.32667 21.196 4.07733 20.4493 2.528 18.956C0.978667 17.444 0.204 15.26 0.204 12.404V7H4.964V12.012C4.964 13.6733 5.412 14.924 6.308 15.764C7.204 16.604 8.548 17.024 10.34 17.024C11.3667 17.024 12.44 16.9027 13.56 16.66C14.6987 16.4173 15.828 16.072 16.948 15.624L17.228 19.432C16.0707 20.0107 14.8013 20.4493 13.42 20.748C12.0573 21.0467 10.676 21.196 9.276 21.196ZM16.304 28V7H21.036V28H16.304ZM26.8392 23.576V19.712H41.3992V23.576H26.8392ZM37.2832 7L47.1112 28H42.0432L33.4472 8.932H35.0152L26.4192 28H21.3512L31.1792 7H37.2832ZM47.4118 28V7H52.0598V25.592L50.6318 25.312L63.9038 7H70.0918V28H65.4438V9.156L66.8718 9.436L53.4318 28H47.4118ZM52.0038 0.783998H55.7838C56.0078 1.43733 56.3531 1.94133 56.8198 2.296C57.3051 2.65067 57.9118 2.828 58.6398 2.828C59.3678 2.828 59.9651 2.65067 60.4318 2.296C60.9171 1.94133 61.2625 1.43733 61.4678 0.783998H65.2758C64.9025 2.42666 64.1278 3.63066 62.9518 4.396C61.7758 5.16133 60.3384 5.544 58.6398 5.544C56.9411 5.544 55.5038 5.16133 54.3278 4.396C53.1518 3.63066 52.3771 2.42666 52.0038 0.783998ZM72.4401 7H77.2001V28H72.4401V7ZM89.2401 7H94.0001V28H89.2401V7ZM75.0441 15.288H91.3401V19.46H75.0441V15.288ZM96.3473 28V7H101.107V26.348L98.9513 24.22H107.463C108.565 24.22 109.433 23.94 110.067 23.38C110.721 22.8013 111.047 22.0267 111.047 21.056C111.047 20.0853 110.721 19.32 110.067 18.76C109.433 18.1813 108.565 17.892 107.463 17.892H98.5313V14.112H107.715C109.395 14.112 110.842 14.4013 112.055 14.98C113.269 15.5587 114.202 16.3707 114.855 17.416C115.527 18.4613 115.863 19.6747 115.863 21.056C115.863 22.4373 115.527 23.6507 114.855 24.696C114.202 25.7413 113.269 26.5533 112.055 27.132C110.842 27.7107 109.395 28 107.715 28H96.3473ZM117.879 7H122.639V28H117.879V7ZM124.958 28V7H129.606V25.592L128.178 25.312L141.45 7H147.638V28H142.99V9.156L144.418 9.436L130.978 28H124.958ZM129.55 0.783998H133.33C133.554 1.43733 133.899 1.94133 134.366 2.296C134.851 2.65067 135.458 2.828 136.186 2.828C136.914 2.828 137.511 2.65067 137.978 2.296C138.463 1.94133 138.808 1.43733 139.014 0.783998H142.822C142.448 2.42666 141.674 3.63066 140.498 4.396C139.322 5.16133 137.884 5.544 136.186 5.544C134.487 5.544 133.05 5.16133 131.874 4.396C130.698 3.63066 129.923 2.42666 129.55 0.783998ZM152.853 32.284V23.8H156.773L158.789 23.856H173.909L175.057 23.8H180.713V32.284H176.261V28H157.305V32.284H152.853ZM157.361 7H177.045V26.488H172.313V9.016L174.441 11.144H159.909L161.897 9.604C162.009 10.5373 162.084 11.4613 162.121 12.376C162.158 13.2907 162.177 14.1493 162.177 14.952C162.177 17.2293 162 19.1613 161.645 20.748C161.29 22.316 160.758 23.5107 160.049 24.332C159.34 25.1347 158.462 25.536 157.417 25.536L155.457 23.884C156.241 22.988 156.82 21.728 157.193 20.104C157.585 18.4613 157.781 16.4173 157.781 13.972C157.781 12.8893 157.744 11.76 157.669 10.584C157.594 9.408 157.492 8.21333 157.361 7ZM192.294 28.42C189.849 28.42 187.702 27.9627 185.854 27.048C184.025 26.1333 182.597 24.864 181.57 23.24C180.543 21.5973 180.03 19.684 180.03 17.5C180.03 15.316 180.543 13.412 181.57 11.788C182.597 10.1453 184.025 8.86667 185.854 7.952C187.702 7.03733 189.849 6.58 192.294 6.58C194.739 6.58 196.877 7.03733 198.706 7.952C200.554 8.86667 201.991 10.1453 203.018 11.788C204.045 13.412 204.558 15.316 204.558 17.5C204.558 19.684 204.045 21.5973 203.018 23.24C201.991 24.864 200.554 26.1333 198.706 27.048C196.877 27.9627 194.739 28.42 192.294 28.42ZM192.294 24.192C193.825 24.192 195.141 23.9213 196.242 23.38C197.362 22.8387 198.221 22.064 198.818 21.056C199.434 20.048 199.742 18.8627 199.742 17.5C199.742 16.1373 199.434 14.952 198.818 13.944C198.221 12.936 197.362 12.1613 196.242 11.62C195.141 11.0787 193.825 10.808 192.294 10.808C190.782 10.808 189.466 11.0787 188.346 11.62C187.226 12.1613 186.358 12.936 185.742 13.944C185.145 14.952 184.846 16.1373 184.846 17.5C184.846 18.8627 185.145 20.048 185.742 21.056C186.358 22.064 187.226 22.8387 188.346 23.38C189.466 23.9213 190.782 24.192 192.294 24.192ZM235.359 7V28H230.823V8.596L232.027 8.68L223.067 28H218.167L209.207 8.736L210.383 8.624V28H205.875V7H213.183L221.639 25.704H219.595L228.051 7H235.359Z" fill="#585757"/>
</svg>
