<svg width="47" height="52" viewBox="0 0 47 52" fill="none" xmlns="http://www.w3.org/2000/svg">
<path d="M9.38879 0.0520106H29.3418C31.9357 0.0520106 35.5155 1.5051 37.3582 3.31569L43.6258 9.47401C45.4685 11.2846 46.9474 14.802 46.9474 17.3507V47.335C46.9474 49.8837 44.8464 51.948 42.2525 51.948H9.38879C6.7949 51.948 4.69397 49.8837 4.69397 47.335V4.66499C4.69397 2.11632 6.7949 0.0520106 9.38879 0.0520106Z" fill="url(#paint0_linear_2990_3649)"/>
<path fill-rule="evenodd" clip-rule="evenodd" d="M9.38879 0.104021C6.82369 0.104021 4.7466 2.14532 4.7466 4.66499V47.335C4.7466 49.8547 6.82369 51.896 9.38879 51.896H42.2525C44.8176 51.896 46.8947 49.8547 46.8947 47.335V17.3507C46.8947 16.0851 46.5273 14.5756 45.929 13.1556C45.3307 11.7356 44.5037 10.41 43.5887 9.51089L37.3211 3.35257C36.406 2.45345 35.0569 1.64083 33.6116 1.05297C32.1664 0.465119 30.6299 0.104021 29.3418 0.104021H9.38879ZM4.64133 4.66499C4.64133 2.08731 6.76611 0 9.38879 0H29.3418C30.6475 0 32.1979 0.365447 33.6517 0.956784C35.1055 1.54812 36.4677 2.36734 37.3953 3.27881L43.6629 9.43713C44.5905 10.3486 45.4243 11.6871 46.0262 13.1156C46.628 14.5441 47 16.0675 47 17.3507V47.335C47 49.9127 44.8752 52 42.2525 52H9.38879C6.76611 52 4.64133 49.9127 4.64133 47.335V4.66499Z" fill="url(#paint1_linear_2990_3649)"/>
<path d="M10.5633 3.51228H30.3167C31.6195 3.51228 33.4036 4.25036 34.3191 5.14989L41.7838 12.5883C42.6876 13.4878 43.427 15.2523 43.427 16.5324V46.1823C43.427 47.4624 42.3824 48.4888 41.0796 48.4888H10.5633C9.26045 48.4888 8.21585 47.4624 8.21585 46.1823V5.81877C8.21585 4.53867 9.26045 3.51228 10.5633 3.51228Z" fill="url(#paint2_linear_2990_3649)"/>
<path fill-rule="evenodd" clip-rule="evenodd" d="M10.5633 3.55618C9.28474 3.55618 8.26027 4.56315 8.26027 5.81877V46.1823C8.26027 47.4379 9.28474 48.4449 10.5633 48.4449H41.0796C42.3581 48.4449 43.3826 47.4379 43.3826 46.1823V16.5324C43.3826 15.8997 43.1996 15.1444 42.9033 14.4344C42.6069 13.7243 42.1989 13.0638 41.7523 12.6192L34.2877 5.18101C34.2877 5.18095 34.2878 5.18108 34.2877 5.18101C33.8352 4.73647 33.1657 4.32974 32.4461 4.0343C31.7264 3.73882 30.9606 3.55618 30.3167 3.55618H10.5633ZM8.17142 5.81877C8.17142 4.51419 9.23615 3.46839 10.5633 3.46839H30.3167C30.9757 3.46839 31.7533 3.65479 32.4802 3.95322C33.2071 4.25166 33.8874 4.66385 34.3504 5.11876L41.8154 12.5574C41.8154 12.5574 41.8154 12.5574 41.8154 12.5574C42.2725 13.0124 42.6861 13.6838 42.9854 14.4009C43.2847 15.118 43.4714 15.885 43.4714 16.5324V46.1823C43.4714 47.4869 42.4067 48.5327 41.0796 48.5327H10.5633C9.23615 48.5327 8.17142 47.4869 8.17142 46.1823V5.81877Z" fill="url(#paint3_linear_2990_3649)"/>
<path d="M10.5633 3.51228H30.3167C31.6195 3.51228 33.4036 4.25036 34.3191 5.14989L41.7838 12.5883C42.6876 13.4878 43.427 15.2523 43.427 16.5324V25.4239C43.427 26.704 42.3824 27.7304 41.0796 27.7304H10.5633C9.26045 27.7304 8.21585 26.704 8.21585 25.4239V5.81877C8.21585 4.53867 9.26045 3.51228 10.5633 3.51228Z" fill="url(#paint4_linear_2990_3649)"/>
<path d="M14.085 30.0371H37.5592C38.2047 30.0371 38.7329 30.5561 38.7329 31.1904C38.7329 31.8246 38.2047 32.3436 37.5592 32.3436H14.085C13.4395 32.3436 12.9113 31.8246 12.9113 31.1904C12.9113 30.5561 13.4395 30.0371 14.085 30.0371Z" fill="url(#paint5_linear_2990_3649)"/>
<path fill-rule="evenodd" clip-rule="evenodd" d="M14.085 30.0891C13.4683 30.0891 12.964 30.5851 12.964 31.1904C12.964 31.7956 13.4683 32.2916 14.085 32.2916H37.5592C38.1759 32.2916 38.6802 31.7956 38.6802 31.1904C38.6802 30.5851 38.1759 30.0891 37.5592 30.0891H14.085ZM12.8587 31.1904C12.8587 30.5271 13.4107 29.9851 14.085 29.9851H37.5592C38.2335 29.9851 38.7855 30.5271 38.7855 31.1904C38.7855 31.8536 38.2335 32.3956 37.5592 32.3956H14.085C13.4107 32.3956 12.8587 31.8536 12.8587 31.1904Z" fill="url(#paint6_linear_2990_3649)"/>
<path d="M7.04139 38.1098H23.4733C24.7761 38.1098 25.8207 39.1362 25.8207 40.4163V45.0293C25.8207 46.3094 24.7761 47.3358 23.4733 47.3358H4.69398V40.4163C4.69398 39.1362 5.73858 38.1098 7.04139 38.1098Z" fill="#E6E6E6"/>
<path d="M2.34741 36.9562H23.4741C24.7769 36.9562 25.8215 37.9826 25.8215 39.2627V43.8757C25.8215 45.1558 24.7769 46.1822 23.4741 46.1822H2.34741C1.0446 46.1822 0 45.1558 0 43.8757V39.2627C0 37.9826 1.0446 36.9562 2.34741 36.9562Z" fill="url(#paint7_linear_2990_3649)"/>
<path d="M6.38527 43.8763H7.2538V39.125H6.38527V43.8763ZM8.48619 43.8763H9.36647V40.7049L10.951 43.5996L12.5472 40.7049V43.8763H13.4275V39.125H12.5472L10.951 42.0196L9.36647 39.125H8.48619V43.8763ZM16.8782 41.9619H18.0754V42.8269C17.7819 43.046 17.3829 43.1729 17.019 43.1729C16.1153 43.1729 15.3524 42.4117 15.3524 41.5007C15.3524 40.5896 16.1153 39.8285 17.019 39.8285C17.4885 39.8285 18.005 40.036 18.3101 40.382L18.9439 39.8054C18.4744 39.3326 17.7233 39.0442 17.019 39.0442C15.6341 39.0442 14.4604 40.1629 14.4604 41.5007C14.4604 42.8269 15.6341 43.9571 17.019 43.9571C17.7233 43.9571 18.4744 43.6572 18.9439 43.1844V41.2585H16.8782V41.9619Z" fill="white"/>
<path d="M25.8209 8.12469C23.8725 8.12469 22.2998 9.67004 22.2998 11.5844C22.2998 13.4988 23.8725 15.0442 25.8209 15.0442C27.7692 15.0442 29.342 13.4988 29.342 11.5844C29.342 9.67004 27.7692 8.12469 25.8209 8.12469Z" fill="url(#paint8_linear_2990_3649)"/>
<path d="M25.8218 17.3505C21.2795 17.3505 17.6058 20.9601 17.6058 25.4232V27.7297H34.0377V25.4232C34.0377 20.9601 30.364 17.3505 25.8218 17.3505Z" fill="url(#paint9_linear_2990_3649)"/>
<path d="M8.21585 16.198C15.352 16.198 21.1266 10.524 21.1266 3.51228H9.38955C8.74402 3.51228 8.21585 4.03124 8.21585 4.66553V16.198Z" fill="url(#paint10_linear_2990_3649)"/>
<defs>
<linearGradient id="paint0_linear_2990_3649" x1="23.5" y1="0" x2="23.5" y2="52" gradientUnits="userSpaceOnUse">
<stop stop-color="#F6F9FC"/>
<stop offset="1" stop-color="#E3E9EF"/>
</linearGradient>
<linearGradient id="paint1_linear_2990_3649" x1="23.5" y1="0.0520106" x2="23.5" y2="51.948" gradientUnits="userSpaceOnUse">
<stop stop-color="#E3E9EF"/>
<stop offset="1" stop-color="#F6F9FC"/>
</linearGradient>
<linearGradient id="paint2_linear_2990_3649" x1="23.5" y1="0" x2="23.5" y2="52" gradientUnits="userSpaceOnUse">
<stop stop-color="#E3E9EF"/>
<stop offset="1" stop-color="#F6F9FC"/>
</linearGradient>
<linearGradient id="paint3_linear_2990_3649" x1="23.5" y1="0.0506531" x2="23.5" y2="51.9493" gradientUnits="userSpaceOnUse">
<stop stop-color="#E3E9EF"/>
<stop offset="1" stop-color="#F6F9FC"/>
</linearGradient>
<linearGradient id="paint4_linear_2990_3649" x1="13.1982" y1="17.9232" x2="4.82938" y2="12.5458" gradientUnits="userSpaceOnUse">
<stop stop-color="#E5E5E5"/>
<stop offset="1" stop-color="#B9B8B6"/>
</linearGradient>
<linearGradient id="paint5_linear_2990_3649" x1="23.5" y1="0" x2="23.5" y2="52" gradientUnits="userSpaceOnUse">
<stop stop-color="#F6F9FC"/>
<stop offset="1" stop-color="#E3E9EF"/>
</linearGradient>
<linearGradient id="paint6_linear_2990_3649" x1="23.5" y1="1.122" x2="23.5" y2="50.878" gradientUnits="userSpaceOnUse">
<stop stop-color="#E3E9EF"/>
<stop offset="1" stop-color="#F6F9FC"/>
</linearGradient>
<linearGradient id="paint7_linear_2990_3649" x1="13.1982" y1="17.9232" x2="4.82938" y2="12.5458" gradientUnits="userSpaceOnUse">
<stop stop-color="#E5E5E5"/>
<stop offset="1" stop-color="#B9B8B6"/>
</linearGradient>
<linearGradient id="paint8_linear_2990_3649" x1="13.1982" y1="17.9232" x2="4.82938" y2="12.5458" gradientUnits="userSpaceOnUse">
<stop stop-color="#E5E5E5"/>
<stop offset="1" stop-color="#B9B8B6"/>
</linearGradient>
<linearGradient id="paint9_linear_2990_3649" x1="13.1982" y1="17.9232" x2="4.82938" y2="12.5458" gradientUnits="userSpaceOnUse">
<stop stop-color="#E5E5E5"/>
<stop offset="1" stop-color="#B9B8B6"/>
</linearGradient>
<linearGradient id="paint10_linear_2990_3649" x1="13.1982" y1="17.9232" x2="4.82938" y2="12.5458" gradientUnits="userSpaceOnUse">
<stop stop-color="#E5E5E5"/>
<stop offset="1" stop-color="#B9B8B6"/>
</linearGradient>
</defs>
</svg>
