<svg width="24" height="24" viewBox="0 0 24 24" fill="none" xmlns="http://www.w3.org/2000/svg">
                    <path
                      d="M22 12C22 6.47715 17.5228 2 12 2C6.47715 2 2 6.47715 2 12C2 17.5228 6.47715 22 12 22C17.5228 22 22 17.5228 22 12Z"
                      stroke="#1B1B1F" stroke-width="1.5" />
                    <path
                      d="M22 12C22 6.47715 17.5228 2 12 2C6.47715 2 2 6.47715 2 12C2 17.5228 6.47715 22 12 22C17.5228 22 22 17.5228 22 12Z"
                      stroke="#323136" stroke-width="1.5" />
                    <path d="M7.5 11.5L10.206 14.5926C10.6185 15.064 11.3579 15.0445 11.7449 14.5519L16.5 8.5"
                      stroke="#1B1B1F" stroke-width="1.5" stroke-linecap="round" stroke-linejoin="round" />
                    <path d="M7.5 11.5L10.206 14.5926C10.6185 15.064 11.3579 15.0445 11.7449 14.5519L16.5 8.5"
                      stroke="#323136" stroke-width="1.5" stroke-linecap="round" stroke-linejoin="round" />
                  </svg>