<svg width="38" height="27" viewBox="0 0 38 27" fill="none" xmlns="http://www.w3.org/2000/svg">
<path d="M28.4372 23.4591H16.1267L16.0504 23.421C12.3534 22.2776 9.79986 18.9998 9.64741 15.1885C9.49496 11.1866 12.1248 7.48963 16.0504 6.30812C16.3553 6.23189 16.6602 6.38435 16.7746 6.68925C16.8508 6.99416 16.6984 7.29907 16.3935 7.41341C12.9633 8.48058 10.6765 11.6821 10.7908 15.1885C10.9051 18.4662 13.1157 21.3247 16.3172 22.3538H28.2467C31.372 21.2104 33.4682 18.2376 33.5063 14.9217C33.5063 11.5296 31.372 8.51869 28.1704 7.41341C27.8655 7.29907 27.7131 6.99416 27.8274 6.68925C27.9418 6.38435 28.2467 6.2319 28.5516 6.34624C32.2104 7.60397 34.6497 11.0723 34.6497 14.9217C34.6497 18.7711 32.1723 22.2013 28.5516 23.4591H28.4372Z" fill="black"/>
<path d="M28.6278 26.127H16.0504C15.4406 26.127 14.9833 25.6315 14.9833 25.0598V23.3828C14.9833 22.773 15.4787 22.3157 16.0504 22.3157H28.6278C29.2376 22.3157 29.695 22.8111 29.695 23.3828V25.0598C29.695 25.6696 29.2376 26.127 28.6278 26.127ZM16.1267 24.9836H28.5516V23.421H16.1267V24.9836Z" fill="black"/>
<path d="M35.0689 20.5625C34.8784 20.5625 34.6878 20.5244 34.4972 20.4481C33.7731 20.1813 33.3538 19.4953 33.2014 18.3519C32.9727 16.4844 34.2304 14.9598 34.6497 14.4644C35.2214 13.7402 35.755 13.3591 36.1361 13.0923C36.5554 12.7874 36.7078 12.673 36.784 12.3681C36.9746 11.6821 36.6316 10.653 35.7931 10.1957C34.9927 9.73831 33.9637 9.92888 33.3157 10.5768L32.5154 9.77643C33.5444 8.74737 35.1452 8.48057 36.3648 9.16661C37.7369 9.92888 38.1942 11.5296 37.9274 12.6349C37.7369 13.3591 37.3176 13.664 36.8221 14.007C36.441 14.2738 36.0599 14.5787 35.5644 15.1504C35.1833 15.6077 34.1923 16.8274 34.3829 18.1613C34.4972 19.0761 34.764 19.3047 34.9165 19.3428C35.2214 19.4572 35.7931 19.2285 36.2123 18.6187L37.1652 19.2666C36.5935 20.067 35.7931 20.5625 35.0689 20.5625Z" fill="black"/>
<path d="M9.15194 20.7149C8.61835 20.7149 8.04666 20.6006 7.47496 20.3338C6.67458 19.9526 6.02665 19.3047 5.53118 18.4281C5.15005 17.7421 5.07382 17.2466 4.9976 16.2938C4.95948 15.9889 4.92137 15.6077 4.84514 15.1504V15.036C4.4259 12.1013 4.27345 11.1104 3.54929 10.31C3.32061 10.0432 3.01571 9.81453 2.67269 9.62396L2.02477 9.24283L4.88326 6.38434L5.3025 6.8417C6.63647 8.36623 7.43684 9.92887 7.70364 11.5296C7.70364 11.6059 7.74175 11.6821 7.74175 11.7583C7.81798 12.2919 7.93232 12.9398 8.35156 13.3209C8.69458 13.6259 9.22817 13.7783 9.87609 13.7783V14.9217C8.92326 14.9217 8.12288 14.693 7.55118 14.1594C6.78892 13.4734 6.67458 12.5587 6.56024 11.9108L6.52213 11.6821C6.33156 10.4625 5.72175 9.24283 4.76892 8.02321L3.81609 9.01415C4.00665 9.1666 4.19722 9.35717 4.34967 9.50962C5.3025 10.5768 5.49307 11.7583 5.91232 14.8455V14.9598C5.98854 15.4172 6.02665 15.7983 6.06477 16.1032C6.17911 16.9798 6.21722 17.3228 6.48401 17.8183C6.63647 18.0851 7.05571 18.8474 7.8942 19.2285C9.38062 19.9526 11.0195 18.9998 11.2101 18.8855L11.8199 19.8764C11.5912 20.1051 10.4859 20.7149 9.15194 20.7149Z" fill="black"/>
<path d="M22.1485 8.40435C18.947 8.40435 15.4787 7.64208 15.4787 5.9651C15.4787 4.47868 18.261 3.75453 20.8527 3.56396L20.9289 4.70736C17.9561 4.89793 16.6221 5.69831 16.6221 5.9651C16.6221 6.27001 18.3372 7.26095 22.1485 7.26095C25.9599 7.26095 27.675 6.27001 27.675 5.9651C27.675 5.77453 26.7602 5.05038 24.0542 4.78359L24.1685 3.64019C25.5787 3.79264 28.8184 4.28812 28.8184 5.9651C28.8184 7.64208 25.3501 8.40435 22.1485 8.40435Z" fill="black"/>
<path d="M22.3772 5.58396C21.0814 5.58396 20.0523 4.5549 20.0523 3.25905C20.0523 1.9632 21.0814 0.934143 22.3772 0.934143C23.6731 0.934143 24.7021 2.00131 24.7021 3.29716C24.7021 4.5549 23.635 5.58396 22.3772 5.58396ZM22.3772 2.11565C21.7293 2.11565 21.1957 2.64924 21.1957 3.29716C21.1957 3.94509 21.7293 4.47867 22.3772 4.47867C23.0252 4.47867 23.5587 3.94509 23.5587 3.29716C23.5587 2.64924 23.0252 2.11565 22.3772 2.11565Z" fill="black"/>
<path d="M1.71986 7.94697C1.64363 7.94697 1.56741 7.94697 1.49118 7.90885C1.18627 7.79451 1.07193 7.45149 1.18627 7.14659C1.30061 6.84168 1.33873 6.68923 1.30061 6.613C1.2625 6.57489 1.18627 6.53678 1.03382 6.46055C0.805142 6.34621 0.462123 6.19376 0.233444 5.85074C-0.033349 5.43149 -0.0714623 4.89791 0.119104 4.24998C0.19533 3.94508 0.538349 3.79262 0.843255 3.86885C1.14816 3.94508 1.30061 4.2881 1.22439 4.593C1.11005 4.89791 1.11005 5.12659 1.18627 5.24093C1.22439 5.31715 1.33873 5.35527 1.49118 5.43149C1.75797 5.54583 2.10099 5.69829 2.29156 6.07942C2.52024 6.49866 2.48212 7.03225 2.21533 7.64206C2.13911 7.79451 1.94854 7.94697 1.71986 7.94697Z" fill="black"/>
<path d="M2.93948 4.09754C2.86325 4.09754 2.78703 4.09754 2.7108 4.05943C2.40589 3.94509 2.29155 3.60207 2.40589 3.29716C2.52023 2.99226 2.55835 2.8398 2.52023 2.76358C2.48212 2.72546 2.40589 2.68735 2.25344 2.61112C2.02476 2.49678 1.68174 2.34433 1.45306 2.00131C1.18627 1.58207 1.14816 1.04848 1.33872 0.400557C1.41495 0.0956516 1.75797 -0.0568014 2.06287 0.0194251C2.36778 0.0956516 2.52023 0.438671 2.44401 0.743577C2.32967 1.04848 2.32967 1.27716 2.40589 1.3915C2.44401 1.46773 2.55835 1.50584 2.7108 1.58207C2.97759 1.69641 3.32061 1.84886 3.51118 2.22999C3.73986 2.64924 3.70174 3.18282 3.43495 3.79264C3.39684 3.9832 3.16816 4.09754 2.93948 4.09754Z" fill="black"/>
</svg>
