<svg width="14" height="11" viewBox="0 0 14 11" fill="none" xmlns="http://www.w3.org/2000/svg">
<path d="M14 0.986383C14 0.821986 14 0.657589 14 0.493192C13.9653 0.361674 13.8959 0.246596 13.7918 0.147957C13.6183 0.0493192 13.4449 0 13.2714 0C13.0979 0 12.6815 0.115078 12.0223 0.345234C11.3978 0.542511 10.2181 0.986383 8.48327 1.67685C7.2342 2.17004 4.71871 3.18931 0.936803 4.73464C0.346964 4.9648 0.0346964 5.19495 0 5.42511C0 5.7539 0.364312 6.0005 1.09294 6.1649C1.19703 6.1649 1.30112 6.18134 1.4052 6.21421C1.71747 6.34573 2.06444 6.44437 2.4461 6.51013C2.82776 6.60877 3.14002 6.65809 3.3829 6.65809C3.79926 6.69097 4.26766 6.54301 4.7881 6.21421C8.29244 3.94553 10.114 2.79475 10.2528 2.76187C10.3222 2.72899 10.4089 2.74543 10.513 2.81119C10.5824 2.90983 10.5998 2.97559 10.5651 3.00847C10.4957 3.17287 10.114 3.55098 9.42007 4.14281C8.76084 4.76752 8.15366 5.32647 7.59851 5.81966C7.25155 6.0827 7.06072 6.24709 7.02602 6.31285C6.92193 6.41149 6.81784 6.51013 6.71375 6.60877C6.36679 6.8718 6.15861 7.13484 6.08922 7.39787C5.98513 7.62803 6.19331 7.92395 6.71375 8.28562C7.2342 8.58153 7.7026 8.86101 8.11896 9.12405C8.53532 9.41996 9.03841 9.74875 9.62825 10.1104C9.76704 10.2091 9.90582 10.3077 10.0446 10.4063C10.5651 10.8009 11.1028 10.9982 11.658 10.9982C12.0397 11.0311 12.3346 10.6201 12.5428 9.76519C12.6815 9.00897 12.855 8.0719 13.0632 6.954C13.2714 5.8361 13.4622 4.73464 13.6357 3.64962C13.8092 2.53172 13.9306 1.64397 14 0.986383Z" fill="#585757"/>
</svg>
