<svg width="34" height="30" viewBox="0 0 34 30" fill="none" xmlns="http://www.w3.org/2000/svg">
<path d="M10.0768 23.9855C10.0947 23.9243 10.1147 23.8612 10.1366 23.8003M23.9431 26.5717C24.0526 27.0155 24.1124 27.3193 24.1124 27.4337C24.1124 28.2977 20.7623 29 16.6315 29C12.4987 29 9.14868 28.2975 9.14868 27.4337C9.14868 27.3015 9.22636 26.9109 9.37374 26.3408M23.0827 23.6817C23.1345 23.8354 23.1843 23.9853 23.2321 24.1332M4.95016 11.7273C4.95016 11.7273 5.48194 13.3292 5.68111 14.71C5.75282 15.2012 5.91016 16.3513 6.2129 17.6789C6.75265 20.0717 7.75249 23.0426 9.52711 23.7685M9.52711 23.7685C9.53906 23.7744 9.553 23.7784 9.56495 23.7843M9.52711 23.7685C4.10169 23.1493 1.44873 21.8749 1.05238 20.7306M9.52711 23.7685C11.6025 24.0052 14.0841 24.1453 17 24.1453C19.9159 24.1453 22.3973 24.0052 24.4727 23.7685M29.0498 11.7273C29.0498 11.7273 28.5181 13.3292 28.3189 14.71C28.2472 15.2012 28.0898 16.3513 27.7871 17.6789C27.2474 20.0717 26.2475 23.0426 24.4727 23.7685M24.4727 23.7685C24.4607 23.7744 24.4468 23.7784 24.4351 23.7843M24.4727 23.7685C29.8981 23.1493 32.5513 21.8749 32.9476 20.7306M27.1438 7.70706C27.2573 7.72876 27.3686 7.74651 27.4784 7.76821C30.2927 8.31464 32.0412 9.08003 32.0412 9.92631C32.0412 10.601 30.9278 11.2243 29.0496 11.7273C26.3051 12.4592 21.9293 12.9346 16.9998 12.9346C12.0703 12.9346 7.69453 12.4592 4.94996 11.7273C3.07177 11.2243 1.95841 10.601 1.95841 9.92631C1.95841 9.39566 2.64575 8.89855 3.85073 8.46456C4.05986 8.3896 4.28692 8.31661 4.52791 8.24362C5.11547 8.07003 5.79066 7.91024 6.54153 7.76427M1.05238 20.7306C1.05039 20.7286 1.05039 20.7247 1.05039 20.7227C1.01255 20.6122 0.996612 20.5037 1.0006 20.3972C1.06632 18.754 6.21091 17.6789 6.21091 17.6789M1.05238 20.7306C1.10616 20.9833 2.61388 27.4337 17 27.4337C31.3861 27.4337 32.8938 20.9833 32.9476 20.7306M32.9476 20.7306C32.9496 20.7286 32.9496 20.7247 32.9496 20.7227C32.9873 20.6122 33.0034 20.5037 32.9994 20.3972C32.9337 18.754 27.7891 17.6789 27.7891 17.6789M21.1826 1.85416C21.1826 2.3276 19.3104 2.7103 17 2.7103C14.6916 2.7103 12.8174 2.3276 12.8174 1.85416M21.1826 1.85416C21.1826 1.3827 19.3104 1 17 1C14.6916 1 12.8174 1.3827 12.8174 1.85416M21.1826 1.85416C21.4814 2.4144 21.0173 3.69663 20.9516 3.92546C20.8838 4.15626 20.7384 4.81316 21.4594 4.97886C22.1784 5.1426 27.5899 6.45836 29.0498 10.2064C29.0498 10.2064 26.361 11.751 17 11.751C7.63897 11.751 4.95016 10.2064 4.95016 10.2064C5.33655 9.21417 5.99979 8.39355 6.77855 7.7189C7.29838 7.26913 7.87 6.88446 8.44561 6.55897C10.27 5.52135 12.1402 5.06961 12.5426 4.97886C13.2616 4.81316 13.1162 4.15626 13.0504 3.92546C12.9847 3.69663 12.5187 2.4144 12.8174 1.85416" stroke="black" stroke-miterlimit="10"/>
</svg>
