<svg width="430" height="303" viewBox="0 0 430 303" fill="none" xmlns="http://www.w3.org/2000/svg">
<mask id="mask0_398_6403" style="mask-type:alpha" maskUnits="userSpaceOnUse" x="0" y="0" width="430" height="303">
<rect width="430" height="303" rx="6" fill="white"/>
</mask>
<g mask="url(#mask0_398_6403)">
<path d="M245.401 203.164L251.659 204.47C253.509 204.851 254.76 206.374 254.815 208.279L255.032 223.08C255.032 223.406 255.196 223.678 255.468 223.896C255.74 224.059 256.066 224.113 256.393 223.896L266.296 219.053C267.983 218.237 270.105 218.781 271.193 220.25L273.424 223.188C274.077 224.059 274.349 225.147 274.186 226.181L273.914 227.705L276.417 229.12C278.158 230.153 280.281 230.425 282.294 229.936L288.388 228.14C289.205 227.922 289.803 227.487 290.184 226.78C290.565 226.127 290.619 225.311 290.402 224.603L289.585 221.937C289.368 221.284 288.932 220.74 288.334 220.413C287.735 220.087 287.028 220.032 286.321 220.25C283.709 221.121 280.934 220.468 279.192 218.509C276.798 215.842 276.853 211.816 279.247 209.313L283.165 205.232C284.416 203.926 286.157 203.164 288.007 203.164C288.824 203.164 289.585 203.327 290.347 203.599L289.477 200.334C289.368 199.845 288.932 199.518 288.443 199.518L283.165 199.953C283.165 199.953 282.893 199.953 282.784 199.953C280.879 199.953 279.192 198.539 278.866 196.634L277.941 191.41C277.832 190.921 277.397 190.54 276.853 190.54L274.186 190.649C272.989 190.649 271.955 190.213 271.193 189.452C270.377 188.635 269.996 187.547 269.996 186.459L270.323 179.494C270.377 178.079 271.139 176.827 272.391 176.174L278.539 172.746C278.866 172.583 279.029 172.257 279.084 171.876V170.679C279.192 170.352 279.083 170.026 278.811 169.808L276.417 167.631C275.601 166.87 275.111 165.836 275.111 164.693C275.111 163.605 275.547 162.516 276.363 161.7L280.226 158C281.587 156.694 283.817 156.531 285.395 157.619L290.51 161.319C290.837 161.537 291.218 161.591 291.599 161.428C296.714 158.925 298.128 158.544 298.836 158.544C299.162 158.544 299.38 158.653 299.543 158.707C299.924 158.871 300.305 159.306 300.468 159.687C300.632 160.068 302.59 166.598 304.277 171.005C304.44 171.386 304.767 172.964 305.202 172.964C305.692 172.964 305.964 171.44 306.182 171.114L315.595 153.429C315.595 153.429 315.759 152.504 315.65 152.232L314.997 150.328C314.616 149.294 314.616 148.097 315.106 147.117C315.541 146.138 316.412 145.322 317.446 144.941L318.316 144.614C319.949 144.07 321.799 144.288 322.832 145.648C322.996 145.866 323.268 145.757 323.54 145.757H323.703C323.703 145.757 324.138 145.975 324.356 145.757L325.825 144.614C325.825 144.614 326.097 144.397 326.152 144.179L330.45 128.943C330.777 127.746 331.648 126.821 332.79 126.331L336.219 124.916C336.545 124.807 336.763 124.535 336.817 124.154C336.871 123.828 336.817 123.501 336.599 123.229L332.79 118.876C331.648 117.57 331.484 115.72 332.301 114.251L333.824 111.53C334.042 111.149 333.987 110.714 333.77 110.388C333.552 110.061 333.117 109.898 332.736 109.952L324.628 111.585C323.268 111.857 321.799 111.421 320.819 110.388L313.8 102.77C313.528 102.498 313.092 102.389 312.712 102.498L312.004 102.715C310.807 103.096 309.447 102.878 308.413 102.117C307.379 101.355 306.78 100.158 306.78 98.8518C306.78 98.2533 306.399 97.818 305.855 97.7635L301.883 97.3282C301.883 97.3282 301.448 97.3282 301.23 97.4915L296.714 100.212C295.625 100.865 294.32 100.974 293.177 100.539L278.975 95.1517L274.132 97.8179C271.629 99.1783 268.854 99.9401 266.024 99.9401C263.194 99.9401 260.419 99.2327 257.916 97.8179C252.856 95.0428 249.645 90.1999 249.101 84.5408L248.339 76.4875C248.122 73.8757 246.108 71.8079 243.497 71.4814L231.525 70.1755C228.369 69.7946 224.288 67.0739 224.288 63.8634V60C224.288 59.4015 225.758 58.8573 225.377 58.422V57.497C224.615 56.6264 223.635 56.4631 222.71 57.1161L215.038 62.3398C213.786 63.2105 213.025 64.5164 212.698 65.9856C212.426 67.5092 212.807 69.0328 213.623 70.2843L215.256 72.6786C216.779 74.9095 216.235 77.8479 214.113 79.4259L206.876 84.6497C205.679 85.5203 204.101 85.5203 202.904 84.6497C202.033 83.9967 201.543 83.0172 201.543 81.9834L191.15 83.779C189.354 84.1055 187.994 85.5747 187.776 87.3704C187.668 88.241 187.885 89.166 188.321 89.9823L188.593 90.3632C190.388 93.3016 189.735 97.165 187.015 99.2871L184.838 101.028C183.097 102.389 180.702 102.878 178.58 102.225L145.551 92.1589C142.504 91.2338 140.164 88.7852 139.348 85.6836L135.375 70.2299C134.94 68.4342 133.362 67.1283 131.566 66.9651L118.616 65.8224C117.201 65.6591 115.895 66.3121 115.133 67.5092C114.372 68.7063 114.317 70.1755 115.025 71.427L116.385 73.8213C117.582 75.9978 117.636 78.6097 116.494 80.8407L111.052 91.3426C110.127 93.0839 110.726 95.1516 112.358 96.1855L114.426 97.4915C115.46 98.1444 116.222 99.0695 116.711 100.158C117.092 99.8857 117.528 99.7225 118.017 99.8313L128.519 102.552C129.063 102.715 129.444 103.096 129.608 103.64L133.58 120.781L142.449 129.378C144.136 131.011 144.191 133.623 142.613 135.364C141.252 136.833 138.858 137.159 137.171 136.126L136.681 135.962L141.035 143.852C143.374 147.933 145.224 152.559 145.605 157.293L148.272 188.962L150.992 216.659C150.992 216.985 151.319 217.257 151.591 217.42L151.917 217.693C151.917 217.693 152.407 217.856 152.679 217.693C152.951 217.584 153.114 217.312 153.169 217.04L156.053 205.667C156.434 204.143 157.631 203.001 159.263 202.729C160.787 202.457 162.365 203.164 163.181 204.524L168.623 213.067C169.548 214.537 169.439 216.387 168.296 217.747L166.881 219.434C166.609 219.76 166.555 220.196 166.772 220.522L170.201 226.127C170.418 226.508 170.908 226.671 171.343 226.508L176.241 224.821C176.567 224.712 176.894 224.712 177.22 224.712C180.43 224.712 183.75 228.739 187.831 237.717L188.048 238.207C193.163 248.926 202.251 267.101 205.243 271.399C208.182 269.821 212.263 268.842 215.745 268.842C216.453 268.842 217.16 268.842 217.813 269.005C218.901 269.168 220.044 268.896 220.969 268.298L224.506 265.904C225.105 265.631 225.377 265.251 225.322 264.761L222.003 239.132C221.84 237.88 222.275 236.629 223.2 235.758L233.484 226.072C233.811 225.8 233.865 225.365 233.702 225.038L231.961 221.447C231.144 219.76 231.634 217.91 233.103 216.822L235.28 216.115C235.987 215.57 236.804 216.604 237.674 216.604H240.83C241.102 216.604 241.374 215.189 241.538 214.972C241.701 214.754 241.81 213.503 241.755 213.231L241.102 207.735C240.939 206.483 241.429 205.177 242.354 204.307C243.279 203.436 244.585 203.055 245.782 203.273L245.401 203.164Z" fill="#FE4D57"/>
<path d="M210 235.656C210 234.996 210.154 234.387 210.462 233.828C210.77 233.27 211.199 232.821 211.75 232.482C212.301 232.161 212.884 232 213.5 232C214.116 232 214.699 232.161 215.25 232.482C215.801 232.821 216.23 233.27 216.538 233.828C216.846 234.387 217 234.996 217 235.656C217 236.316 216.846 236.926 216.538 237.484C216.23 238.043 215.801 238.492 215.25 238.83C214.699 239.152 214.116 239.312 213.5 239.312C212.884 239.312 212.301 239.152 211.75 238.83C211.199 238.492 210.77 238.043 210.462 237.484C210.154 236.926 210 236.316 210 235.656ZM213.5 234.031C213.743 234.014 213.873 233.879 213.889 233.625C213.873 233.371 213.743 233.236 213.5 233.219C212.836 233.236 212.285 233.473 211.847 233.93C211.41 234.387 211.183 234.962 211.167 235.656C211.183 235.91 211.312 236.046 211.556 236.062C211.799 236.046 211.928 235.91 211.944 235.656C211.961 235.199 212.115 234.818 212.406 234.514C212.698 234.209 213.062 234.048 213.5 234.031ZM212.722 244.188V240.049C212.981 240.1 213.241 240.125 213.5 240.125C213.759 240.125 214.019 240.1 214.278 240.049V244.188C214.278 244.424 214.205 244.619 214.059 244.771C213.913 244.924 213.727 245 213.5 245C213.273 245 213.087 244.924 212.941 244.771C212.795 244.619 212.722 244.424 212.722 244.188Z" fill="#585757"/>
<path d="M164 140.656C164 139.996 164.154 139.387 164.462 138.828C164.77 138.27 165.199 137.821 165.75 137.482C166.301 137.161 166.884 137 167.5 137C168.116 137 168.699 137.161 169.25 137.482C169.801 137.821 170.23 138.27 170.538 138.828C170.846 139.387 171 139.996 171 140.656C171 141.316 170.846 141.926 170.538 142.484C170.23 143.043 169.801 143.492 169.25 143.83C168.699 144.152 168.116 144.312 167.5 144.312C166.884 144.312 166.301 144.152 165.75 143.83C165.199 143.492 164.77 143.043 164.462 142.484C164.154 141.926 164 141.316 164 140.656ZM167.5 139.031C167.743 139.014 167.873 138.879 167.889 138.625C167.873 138.371 167.743 138.236 167.5 138.219C166.836 138.236 166.285 138.473 165.847 138.93C165.41 139.387 165.183 139.962 165.167 140.656C165.183 140.91 165.312 141.046 165.556 141.062C165.799 141.046 165.928 140.91 165.944 140.656C165.961 140.199 166.115 139.818 166.406 139.514C166.698 139.209 167.062 139.048 167.5 139.031ZM166.722 149.188V145.049C166.981 145.1 167.241 145.125 167.5 145.125C167.759 145.125 168.019 145.1 168.278 145.049V149.188C168.278 149.424 168.205 149.619 168.059 149.771C167.913 149.924 167.727 150 167.5 150C167.273 150 167.087 149.924 166.941 149.771C166.795 149.619 166.722 149.424 166.722 149.188Z" fill="#585757"/>
<path d="M207 177.375C207 176.766 207.154 176.203 207.462 175.688C207.77 175.172 208.199 174.758 208.75 174.445C209.301 174.148 209.884 174 210.5 174C211.116 174 211.699 174.148 212.25 174.445C212.801 174.758 213.23 175.172 213.538 175.688C213.846 176.203 214 176.766 214 177.375C214 177.984 213.846 178.547 213.538 179.062C213.23 179.578 212.801 179.992 212.25 180.305C211.699 180.602 211.116 180.75 210.5 180.75C209.884 180.75 209.301 180.602 208.75 180.305C208.199 179.992 207.77 179.578 207.462 179.062C207.154 178.547 207 177.984 207 177.375ZM210.5 175.875C210.743 175.859 210.873 175.734 210.889 175.5C210.873 175.266 210.743 175.141 210.5 175.125C209.836 175.141 209.285 175.359 208.847 175.781C208.41 176.203 208.183 176.734 208.167 177.375C208.183 177.609 208.312 177.734 208.556 177.75C208.799 177.734 208.928 177.609 208.944 177.375C208.961 176.953 209.115 176.602 209.406 176.32C209.698 176.039 210.062 175.891 210.5 175.875ZM209.722 185.25V181.43C209.981 181.477 210.241 181.5 210.5 181.5C210.759 181.5 211.019 181.477 211.278 181.43V185.25C211.278 185.469 211.205 185.648 211.059 185.789C210.913 185.93 210.727 186 210.5 186C210.273 186 210.087 185.93 209.941 185.789C209.795 185.648 209.722 185.469 209.722 185.25Z" fill="#585757"/>
<path d="M291 126.656C291 125.996 291.154 125.387 291.462 124.828C291.77 124.27 292.199 123.821 292.75 123.482C293.301 123.161 293.884 123 294.5 123C295.116 123 295.699 123.161 296.25 123.482C296.801 123.821 297.23 124.27 297.538 124.828C297.846 125.387 298 125.996 298 126.656C298 127.316 297.846 127.926 297.538 128.484C297.23 129.043 296.801 129.492 296.25 129.83C295.699 130.152 295.116 130.312 294.5 130.312C293.884 130.312 293.301 130.152 292.75 129.83C292.199 129.492 291.77 129.043 291.462 128.484C291.154 127.926 291 127.316 291 126.656ZM294.5 125.031C294.743 125.014 294.873 124.879 294.889 124.625C294.873 124.371 294.743 124.236 294.5 124.219C293.836 124.236 293.285 124.473 292.847 124.93C292.41 125.387 292.183 125.962 292.167 126.656C292.183 126.91 292.313 127.046 292.556 127.062C292.799 127.046 292.928 126.91 292.944 126.656C292.961 126.199 293.115 125.818 293.406 125.514C293.698 125.209 294.063 125.048 294.5 125.031ZM293.722 135.188V131.049C293.982 131.1 294.241 131.125 294.5 131.125C294.759 131.125 295.019 131.1 295.278 131.049V135.188C295.278 135.424 295.205 135.619 295.059 135.771C294.913 135.924 294.727 136 294.5 136C294.273 136 294.087 135.924 293.941 135.771C293.795 135.619 293.722 135.424 293.722 135.188Z" fill="#585757"/>
<path d="M211 103.344C211 102.379 211.22 101.488 211.66 100.672C212.1 99.8555 212.713 99.1999 213.5 98.7051C214.287 98.235 215.12 98 216 98C216.88 98 217.713 98.235 218.5 98.7051C219.287 99.1999 219.9 99.8555 220.34 100.672C220.78 101.488 221 102.379 221 103.344C221 104.309 220.78 105.199 220.34 106.016C219.9 106.832 219.287 107.488 218.5 107.982C217.713 108.452 216.88 108.688 216 108.688C215.12 108.688 214.287 108.452 213.5 107.982C212.713 107.488 212.1 106.832 211.66 106.016C211.22 105.199 211 104.309 211 103.344ZM216 100.969C216.347 100.944 216.532 100.746 216.556 100.375C216.532 100.004 216.347 99.806 216 99.7812C215.051 99.806 214.264 100.152 213.639 100.82C213.014 101.488 212.69 102.329 212.667 103.344C212.69 103.715 212.875 103.913 213.222 103.938C213.569 103.913 213.755 103.715 213.778 103.344C213.801 102.676 214.021 102.119 214.438 101.674C214.854 101.229 215.375 100.993 216 100.969ZM214.889 115.812V109.764C215.259 109.838 215.63 109.875 216 109.875C216.37 109.875 216.741 109.838 217.111 109.764V115.812C217.111 116.159 217.007 116.443 216.799 116.666C216.59 116.889 216.324 117 216 117C215.676 117 215.41 116.889 215.201 116.666C214.993 116.443 214.889 116.159 214.889 115.812Z" fill="white"/>
<path d="M427.536 291.804L433.14 288.866C434.229 288.267 435.698 288.43 436.677 289.192L442.227 293.437C442.227 293.437 442.336 293.491 442.391 293.491L447.016 292.784L447.288 282.771C447.288 281.574 447.506 280.323 447.778 279.126C448.267 277.004 449.138 274.827 450.444 272.106C451.423 270.147 451.206 267.862 449.954 266.121C444.839 258.938 444.73 257.469 444.73 256.816V256.272C444.622 254.857 444.839 253.497 445.22 252.136L445.764 250.504C443.969 248.164 443.697 244.899 445.111 242.342V240.219C445.111 240.219 445.166 240.165 445.111 240.111H445.003C443.642 240.6 442.119 240.437 440.867 239.784C439.616 239.077 438.691 237.88 438.364 236.41C438.038 234.941 438.364 233.472 439.289 232.275L442.717 227.867C442.88 224.766 444.241 221.719 446.581 219.651L451.968 214.699C452.457 214.264 452.729 213.611 452.729 212.958C452.729 212.305 452.403 211.652 451.913 211.271C450.444 210.02 449.737 208.061 450.118 206.156C450.118 205.993 450.226 205.884 450.281 205.721L451.641 203.163C451.804 202.837 451.804 202.456 451.641 202.129C451.478 201.803 451.206 201.585 450.825 201.476C450.39 201.368 450.063 201.15 449.845 200.769L446.853 195.763C446.853 195.763 446.308 195.545 446.091 195.437L441.738 192.607C440.867 192.063 440.269 191.138 440.105 190.104C439.942 189.07 440.269 188.036 440.976 187.22L442.88 185.098C442.88 185.098 443.044 184.771 442.989 184.608L442.064 180.146C442.01 179.874 441.738 179.765 441.466 179.765L440.432 180.037C439.779 180.146 439.126 179.548 438.854 178.949C438.69 178.514 438.31 178.405 437.874 178.405C437.33 178.405 437.004 178.405 436.786 178.786L433.304 184.445C432.215 185.914 430.365 186.513 428.842 185.86L428.243 185.642C426.937 185.043 426.121 183.792 426.121 182.323V179.221C426.175 178.895 425.958 178.731 425.794 178.677C425.577 178.568 425.305 178.677 425.141 178.84L423.89 180.146C422.91 181.18 421.332 181.506 420.026 181.017L418.448 180.418C418.176 180.309 417.904 180.418 417.741 180.636L417.469 181.67C416.816 182.595 415.837 183.901 414.748 183.901H414.585C413.497 183.901 412.572 182.812 411.864 182.051L404.41 173.399C404.41 173.399 404.083 173.018 403.865 173.018L398.968 173.725C397.662 173.943 396.302 173.344 395.54 172.31L393.69 169.807C393.69 169.807 393.418 169.59 393.255 169.59L379.651 168.774C379.325 168.774 379.052 168.991 378.998 169.318L378.835 170.46C378.835 170.46 378.835 170.787 378.998 170.95L380.685 172.746C381.338 173.508 381.719 174.487 381.61 175.466C381.501 176.446 381.011 177.371 380.195 178.024L378.073 179.656C377.257 180.255 376.277 180.527 375.298 180.309C374.318 180.146 373.448 179.548 372.904 178.731L372.468 178.024C372.468 178.024 372.196 178.623 372.033 178.623L365.068 178.514C364.796 178.514 364.578 177.861 364.469 178.078L362.728 181.615C362.511 182.051 362.184 182.105 361.749 182.214C361.313 182.323 360.824 182.105 360.497 181.833L359.953 181.343C359.953 181.343 359.572 181.18 359.463 181.18C359.355 181.18 359.191 181.289 359.082 181.452C357.015 185.479 354.729 189.777 353.587 192.008L354.131 192.389C354.512 192.661 354.784 193.097 354.784 193.586L355.437 211.978C355.437 212.305 355.328 212.577 355.165 212.795L355.491 224.711C355.654 227.541 356.198 228.248 356.198 228.248L357.613 229.065C358.974 229.881 359.681 231.35 359.518 232.928C359.355 233.962 358.865 234.832 358.049 235.485L345.588 245.334C344.663 246.042 344.227 247.239 344.445 248.273C345.424 247.946 347.601 247.13 352.444 245.062C353.804 244.464 355.437 244.518 356.797 245.28C358.157 246.042 359.083 247.293 359.355 248.817L360.008 252.735C360.497 255.401 359.083 257.959 356.634 259.047C355.709 259.428 355.11 260.135 354.947 261.006L354.24 265.576C354.185 266.012 354.24 266.447 354.566 266.828C354.838 267.209 355.219 267.427 355.654 267.481C357.504 267.753 358.865 269.222 359.082 271.072L359.246 272.705L367.462 269.875C367.789 269.766 368.17 269.712 368.55 269.712C369.802 269.712 370.945 270.419 371.489 271.562L373.067 274.718C373.067 274.718 373.23 274.881 373.339 274.881C373.448 274.881 373.557 274.881 373.611 274.718L378.726 266.61C379.379 265.522 380.685 264.924 381.991 265.087L392.602 266.665C394.343 266.937 395.594 268.515 395.377 270.256L394.724 276.459C394.724 276.459 394.724 276.623 394.833 276.677C394.833 276.731 394.942 276.786 395.05 276.786H396.139C397.281 276.895 398.261 277.548 398.805 278.527C399.349 279.507 399.403 280.704 398.859 281.683L389.5 299.694C389.5 299.694 389.391 299.912 389.554 300.075C389.609 300.13 389.772 300.238 389.935 300.075L392.819 298.388C393.744 297.844 394.887 297.79 395.867 298.225C396.846 298.66 397.553 299.531 397.717 300.619L399.567 310.033C399.567 310.033 399.675 310.196 399.73 310.251C399.73 310.251 399.839 310.305 400.002 310.251L404.845 308.89C404.845 308.89 405.171 308.509 405.443 308.455C405.607 308.401 405.715 308.346 405.879 308.346C405.988 308.346 405.988 308.455 406.096 308.455L409.252 307.421C409.252 307.421 408.763 307.258 408.763 307.095V299.259C408.763 298.225 409.905 297.3 410.722 296.701C411.483 296.103 413.116 295.831 414.095 296.048L421.931 297.735C422.91 297.953 423.781 298.606 424.216 299.477L426.339 303.666C426.339 303.666 426.447 303.83 426.556 303.83C426.61 303.83 426.719 303.83 426.774 303.83C426.883 303.775 426.937 303.612 426.937 303.503L425.631 295.178C425.413 293.763 426.121 292.403 427.372 291.75L427.536 291.804Z" fill="#F3F3F3"/>
<path d="M329.366 288.812L332.468 287.724C333.828 287.234 335.406 287.724 336.276 288.921L337.854 291.206C337.854 291.206 338.018 291.315 338.072 291.315H338.181C338.344 291.315 338.399 291.206 338.399 291.043L338.779 288.05C338.943 286.962 339.596 286.037 340.575 285.547C341.5 285.057 342.697 285.057 343.622 285.547L346.942 287.343C346.942 287.343 347.214 287.343 347.268 287.343C347.268 287.343 347.377 287.234 347.431 287.125L347.703 283.643C347.812 282.554 348.356 281.629 349.281 281.085C350.207 280.541 351.295 280.432 352.274 280.867C352.329 280.867 352.437 280.867 352.492 280.867C352.546 280.867 352.709 280.867 352.764 280.704L355.104 275.317C355.376 274.664 355.92 274.174 356.519 273.848L356.247 271.399C356.192 270.91 355.811 270.529 355.376 270.474C354.124 270.311 353.09 269.658 352.329 268.624C351.567 267.645 351.295 266.393 351.458 265.142L352.165 260.571C352.438 258.721 353.689 257.143 355.43 256.381C356.791 255.782 357.498 254.585 357.28 253.279L356.627 249.362C356.519 248.763 356.138 248.219 355.594 247.947C355.049 247.675 354.396 247.62 353.852 247.838C345.908 251.212 344.602 251.538 343.949 251.538C343.731 251.538 343.568 251.538 343.459 251.429C342.643 251.157 342.262 250.395 342.044 249.797C341.119 247.457 341.936 244.628 344.003 242.995L356.464 233.146C356.464 233.146 356.791 232.765 356.791 232.548C356.791 232.167 356.682 231.84 356.355 231.622L354.832 230.752C354.342 230.425 352.982 229.555 352.764 224.821L352.437 213.666L350.37 216.114C349.064 217.638 347.105 218.563 345.091 218.563C344.003 218.563 343.024 218.345 342.044 217.856L340.956 217.312C338.29 216.006 336.984 212.958 337.909 210.129L338.888 207.136C338.888 207.136 338.888 206.918 338.834 206.81C338.834 206.81 338.671 206.701 338.507 206.755L337.419 207.136C336.113 207.626 334.481 207.245 333.501 206.211C332.304 205.014 332.032 203.109 332.903 201.64C333.447 200.715 333.556 199.79 333.175 198.865L332.957 198.321C332.631 197.45 331.923 196.797 331.053 196.58C330.182 196.308 329.203 196.471 328.495 197.069L326.7 198.43C326.7 198.43 326.482 198.593 326.373 198.647C325.611 198.974 324.686 198.92 323.924 198.484C323.163 198.049 322.618 197.342 322.455 196.471L321.748 194.675C321.421 193.152 320.333 192.009 318.973 191.955L315.817 191.628C315.817 191.628 315.436 191.955 315.327 192.118L314.565 193.641C314.565 193.641 314.511 194.131 314.62 194.294C316.47 196.308 316.415 199.355 314.511 201.259L314.075 202.13C313.422 202.783 312.606 203.545 311.79 203.545C311.79 203.545 311.572 203.109 311.464 203.109C310.538 203.109 309.614 202.402 309.015 201.64C308.525 200.987 307.818 200.606 307.165 200.878C306.294 201.205 305.804 201.912 306.022 202.674C306.349 203.98 306.076 205.395 305.315 206.483L304.39 207.843C303.682 208.877 302.431 209.313 301.234 208.986C300.037 208.66 299.22 207.626 299.112 206.374L299.003 204.796C298.948 203.762 298.241 201.858 297.533 201.586C297.533 201.586 297.425 201.586 297.37 201.586L297.805 203.218C297.969 203.762 298.023 204.47 297.86 205.123L297.642 206.048C297.37 207.245 296.554 208.279 295.357 208.714C294.214 209.149 292.908 208.986 291.929 208.279L289.916 206.81C288.446 205.776 286.324 205.939 285.073 207.245L281.155 211.326C279.794 212.741 279.795 214.972 281.1 216.387C282.08 217.475 283.549 217.91 284.964 217.42C286.542 216.876 288.12 216.985 289.48 217.692C290.84 218.4 291.82 219.543 292.255 221.012L293.071 223.624C293.561 225.093 293.398 226.725 292.636 228.14C291.874 229.555 290.568 230.534 289.045 230.915L282.951 232.711C280.175 233.418 277.291 233.037 274.788 231.622L273.265 230.752L272.122 237.989C271.85 239.513 270.707 240.764 269.238 241.145L259.172 243.702C257.702 244.083 256.015 243.539 255.09 242.288L253.676 240.492C253.676 240.492 253.186 240.111 252.914 240.111C252.478 240.111 252.206 240.329 252.098 240.601C251.553 241.58 250.683 242.288 249.595 242.56C248.561 242.832 247.364 242.614 246.439 242.016L244.534 240.764C244.153 240.492 243.554 240.601 243.228 240.982L238.603 247.239C238.603 247.239 238.385 247.784 238.44 248.056L240.779 255.946C241.215 257.415 242.303 258.612 243.718 259.211C245.133 259.809 246.765 259.7 248.071 258.938L251.826 256.871C252.424 256.544 253.077 256.381 253.73 256.381C255.036 256.381 256.233 257.034 256.941 258.068L260.314 262.911C261.076 263.999 261.239 265.414 260.749 266.611L254.274 282.663C253.621 284.295 254.056 286.2 255.308 287.397L262.219 293.872C263.525 295.069 263.851 297.028 262.98 298.606L257.43 309C257.92 309.435 258.682 309.979 259.879 310.795C259.988 310.85 260.151 310.85 260.26 310.795L265.864 306.061C267.606 304.592 269.837 303.776 272.122 303.776C273.646 303.776 275.115 304.157 276.475 304.81L282.461 307.802C284.692 308.945 287.576 308.564 289.48 306.932C289.589 306.823 289.643 306.66 289.535 306.551L289.099 305.735C288.664 304.973 288.555 304.048 288.827 303.177C289.099 302.307 289.643 301.599 290.46 301.218L304.281 294.036C304.281 294.036 304.498 293.818 304.444 293.655L303.356 290.662C303.029 289.791 303.084 288.757 303.574 287.941C304.009 287.125 304.825 286.526 305.75 286.309L308.688 285.656C309.885 285.384 311.246 285.874 312.008 286.853L317.231 293.6C318.755 295.505 320.986 296.593 323.38 296.593C324.686 296.593 325.938 296.267 327.08 295.668C327.352 295.505 327.353 295.342 327.353 295.287L326.972 292.186C326.808 290.662 327.679 289.193 329.148 288.703L329.366 288.812Z" fill="#F3F3F3"/>
<path d="M85.5855 116.482C87.2723 115.666 89.3944 115.938 90.8092 117.135L94.4005 120.236C94.4005 120.236 94.8903 120.508 95.108 120.508C95.3256 120.508 95.5432 120.4 95.6521 120.4C95.8697 120.291 96.305 119.964 96.2506 119.311C96.0874 117.352 96.7403 115.557 98.0463 114.251C99.3522 112.999 101.148 112.346 102.944 112.509L105.447 112.727C106.372 112.782 107.351 112.401 107.895 111.639L113.173 104.293C113.663 103.64 113.826 102.824 113.663 102.008C113.5 101.191 113.01 100.484 112.357 100.049L110.289 98.7427C107.351 96.8926 106.317 93.0836 107.95 89.9819L113.391 79.48C114.099 78.1741 114.044 76.5961 113.337 75.3445L111.976 72.9503C110.725 70.7193 110.834 68.1074 112.194 65.9853C113.554 63.8631 115.894 62.7204 118.452 62.9381L131.402 64.0808C134.504 64.3529 137.061 66.5839 137.878 69.5766L141.85 85.0303C142.394 87.0981 143.972 88.7848 146.04 89.3834L179.069 99.4501C180.266 99.831 181.572 99.5589 182.606 98.7971L184.783 97.0558C186.306 95.8587 186.687 93.6821 185.653 92.0497L185.436 91.6689C184.619 90.3085 184.238 88.7305 184.456 87.2068C184.837 84.1052 187.231 81.5478 190.278 81.0036L202.032 78.9903L202.304 78.1197C202.685 76.977 202.739 75.7799 202.413 74.6372L202.195 73.7121C202.195 73.7121 201.978 73.3312 201.814 73.2224C201.597 73.1136 201.379 73.168 201.161 73.2768L199.638 74.2563C197.352 75.7255 194.36 75.8343 191.965 74.5827L188.7 72.8415C187.721 72.3518 186.905 71.59 186.252 70.7193L179.396 61.088C178.525 59.8909 178.144 58.4217 178.253 56.9525V56.4628C178.416 54.8304 179.232 53.3612 180.647 52.4906C182.007 51.6199 183.694 51.4023 185.272 51.9464L200.019 57.1702C201.488 57.7143 203.175 57.279 204.209 56.0819L206.712 53.2524C206.712 53.2524 206.984 52.7082 206.929 52.3817C206.929 52.0552 206.712 51.7832 206.439 51.6743L200.617 48.1918C199.311 47.43 198.441 46.0697 198.277 44.5461C198.168 43.0225 198.767 41.4989 199.964 40.5194L210.575 31.8676C210.901 31.5955 211.065 31.269 211.119 30.8337C211.119 30.4528 211.01 30.0719 210.684 29.7454L210.14 29.2012C209.16 28.2218 208.616 26.8615 208.725 25.4467C208.834 24.0319 209.487 22.726 210.629 21.9098L211.663 21.0935C212.099 20.767 212.588 20.495 213.132 20.2773L217.649 18.8081C217.649 18.8081 218.03 18.5361 218.084 18.3728C218.138 18.1552 218.084 17.9375 218.084 17.7743C217.54 16.8492 217.486 15.7065 217.921 14.7271C218.302 13.7476 219.118 12.9858 220.152 12.6593C220.642 12.4961 221.077 12.1152 221.295 11.6255L224.179 5.09577C224.723 3.95307 224.668 2.64709 224.015 1.61322L215.472 -12.0447L213.241 -14.7111C212.588 -15.4728 212.425 -16.4523 212.697 -17.4318C212.969 -18.4112 213.731 -19.173 214.71 -19.4451C215.527 -19.7171 215.908 -20.0436 215.908 -20.2069C216.016 -21.0231 213.949 -23.1452 211.718 -24.56L210.901 -25.0497C207.582 -27.1175 205.134 -30.2735 203.936 -33.9737L203.555 -35.1164C202.685 -33.756 201.27 -32.7766 199.583 -32.3957C197.624 -31.9604 195.557 -32.3957 193.979 -33.6472L176.185 -47.2508C176.185 -47.2508 175.75 -47.6861 175.695 -47.9581C175.151 -49.645 174.063 -51.1686 172.648 -52.2569L169.764 -54.4879C169.492 -54.7055 169.057 -54.7599 168.73 -54.5967C168.404 -54.4334 168.186 -54.107 168.132 -53.7805C168.077 -52.4745 167.261 -51.3862 166.01 -50.8965C164.813 -50.4068 163.452 -50.6789 162.473 -51.5495L144.951 -67.7105C143.101 -69.3974 140.707 -70.3224 138.204 -70.3224C136.844 -70.3224 135.592 -70.0503 134.341 -69.5062L129.77 -67.5473C126.015 -65.9693 121.553 -66.2957 118.071 -68.4179L112.085 -72.0636C110.398 -73.0975 108.331 -73.1519 106.589 -72.2813C104.848 -71.4107 103.651 -69.7239 103.488 -67.7649L102.998 -62.7588C102.78 -60.2557 101.257 -58.188 98.9713 -57.1541C96.7403 -56.1203 94.0741 -56.3924 92.1152 -57.8616L71.3833 -72.9887C69.2068 -74.5667 66.7581 -75.7094 64.1462 -76.4168L52.556 -79.3552C48.9102 -80.2802 45.0468 -80.2258 41.4555 -79.1919L-27.5962 -59.2763C-29.7728 -58.6233 -31.514 -57.0453 -32.3302 -54.9232C-33.1464 -52.801 -32.9288 -50.4612 -31.6773 -48.5567L-17.5295 -26.1924C-16.278 -24.2335 -15.9515 -21.7849 -16.5501 -19.5539C-17.2031 -17.3229 -18.7266 -15.4184 -20.8488 -14.3845C-23.243 -13.1874 -24.8755 -11.1197 -25.4196 -8.61664V-8.34455C-25.6373 -7.52834 -25.202 -6.76657 -24.3858 -6.54891C-20.0326 -5.18856 -17.203 -1.16189 -17.5295 3.24567C-17.5295 3.7354 -17.5839 4.17072 -17.6928 4.66045C-17.9104 6.23846 -18.8355 7.59879 -20.1958 8.415C-21.5562 9.23122 -23.2974 9.39445 -24.7666 8.7959L-35.5951 4.66045C-36.7378 4.22514 -38.1526 4.60603 -38.9144 5.58548C-40.0571 7.00025 -41.7439 7.81648 -43.4851 7.81648C-44.2469 7.81648 -45.0088 7.65323 -45.7161 7.38116L-46.5323 7.05464C-46.5323 7.05464 -46.6411 7.10908 -46.6956 7.1635L-50.559 8.46943C-50.8855 8.57825 -51.1576 8.85032 -51.3208 9.23122C-51.4296 9.55771 -51.4296 9.93862 -51.2119 10.2651L-50.2869 11.7887C-50.0148 12.224 -49.4707 12.4417 -48.9809 12.3328L-48.0559 12.1152C-46.8044 11.8431 -45.3352 12.1696 -44.3013 13.0402C-43.2674 13.9109 -42.6689 15.2168 -42.7233 16.5771L-42.8322 19.5699C-42.941 22.2362 -44.3558 24.6305 -46.6412 25.9364L-49.3619 27.5144C-50.559 28.2218 -51.1576 29.6366 -50.7222 30.9969L-49.5251 34.9692C-49.0354 36.5472 -47.6207 37.581 -45.9882 37.581C-45.6617 37.581 -45.3352 37.5811 -45.0087 37.4722C-43.866 37.2002 -42.6145 37.4722 -41.6895 38.1252C-40.7644 38.8326 -40.1659 39.9753 -40.1659 41.1724L-39.9482 51.7288C-39.9482 54.2318 -40.9277 56.6805 -42.7233 58.4217L-43.1043 58.7482C-43.9749 59.5644 -44.4646 60.7071 -44.4646 61.9042C-44.4646 63.1013 -44.0293 64.244 -43.213 65.1147L-33.9083 74.6372L-28.2491 81.2757C-27.2153 82.4728 -25.7461 83.1802 -24.1681 83.1802C-23.1342 83.1802 -22.1547 82.9081 -21.2841 82.364L-17.0398 79.6977C-16.2236 79.208 -15.2986 78.9359 -14.3191 78.9359C-12.0881 78.9359 -10.0748 80.4595 -9.47623 82.6361L-8.93206 84.6494C-8.7144 85.3568 -8.33354 86.0097 -7.7894 86.4994L-2.7833 91.1247C-1.2597 92.5395 1.08015 92.9747 3.03907 92.1041C4.61708 91.3967 6.46712 91.3423 8.09955 91.8865L27.7976 98.9059C29.6476 99.5589 31.7698 99.3412 33.4022 98.2529C34.9802 97.1647 36.0141 96.7838 36.8847 97.2191C37.2656 97.4367 37.5377 97.8176 37.7009 98.2529C37.8097 98.4162 38.245 98.9059 39.551 100.049C41.5099 101.735 44.5571 101.953 46.7881 100.484L48.0396 99.6677C49.3455 98.7971 50.8148 98.3618 52.3384 98.3618C54.787 98.3618 57.1812 99.5045 58.6504 101.463L61.752 105.599C62.5138 106.633 63.7653 107.231 65.0713 107.231C68.2273 107.231 70.948 109.626 71.3833 112.782L72.3628 119.855C72.526 121.216 73.6687 122.413 75.0291 122.522L82.5383 123.229C83.028 123.229 83.4633 122.848 83.6809 122.522C83.953 122.141 84.0618 121.597 83.953 121.161C83.4089 119.366 84.1162 117.57 85.6398 116.808L85.5855 116.482Z" fill="#F3F3F3"/>
<path d="M349.28 -42.4075C348.736 -41.5369 347.811 -40.9383 346.777 -40.7751C345.689 -40.6118 344.709 -40.9383 343.948 -41.6457C343.839 -41.7546 343.621 -41.7001 343.621 -41.7001C343.458 -41.6457 343.403 -41.5369 343.403 -41.3736C343.621 -37.6191 341.009 -34.4086 337.418 -33.9733L333.718 -33.538C331.106 -33.2115 328.385 -33.8101 326.154 -35.2248L319.298 -39.5236L309.884 -21.458L331.541 -7.25592C336.874 -3.99107 338.234 1.94011 338.234 8.19775V19.1894C338.234 21.9101 339.05 24.522 337.037 26.3721C335.024 28.2222 333.663 28.6575 330.888 28.3854L324.032 27.2427H324.141C323.706 27.2427 323.597 28.0045 323.597 28.0045C323.542 28.1134 323.434 28.6031 323.597 28.9296C324.685 30.562 324.903 32.6841 324.141 34.4798C323.379 36.2755 321.801 37.5814 319.897 37.9623L312.986 39.2683C312.605 39.3227 312.17 39.3771 311.735 39.3771C309.776 39.3771 307.925 38.5065 306.674 37.0373L304.389 34.371C303.572 33.4459 302.321 32.9562 301.069 33.1194C299.165 33.3915 297.75 35.0784 297.859 37.0373L297.968 39.0506C298.076 40.6286 297.423 42.0978 296.281 43.1861C295.573 43.8391 295.138 44.7641 295.193 45.7435C295.193 46.723 295.737 47.648 296.498 48.2466L298.185 49.5526C300.906 51.6203 301.505 55.5381 299.491 58.3133L297.587 60.9251C296.39 62.5031 296.118 64.5709 296.825 66.421L297.641 68.5975C298.294 70.3388 297.913 72.3521 296.716 73.7125C295.519 75.0728 293.56 75.7258 291.764 75.2905L288.445 74.4743C287.194 74.2022 285.833 74.5287 284.854 75.3993L284.364 75.8347C283.548 76.5965 283.058 77.6847 283.113 78.773C283.113 79.9157 283.657 80.9496 284.473 81.657C286.051 83.0173 286.867 85.0306 286.704 87.0984V87.5882C286.486 89.7103 285.235 91.5604 283.385 92.5943L282.079 93.3016L293.941 97.818C294.213 97.9268 294.594 97.9268 294.866 97.7636L299.382 95.0429C300.09 94.6076 300.96 94.3899 301.885 94.4987L305.858 94.934C307.925 95.1517 309.449 96.893 309.449 98.9607C309.449 99.3416 309.612 99.6681 309.884 99.8858C310.156 100.103 310.483 100.158 310.809 100.049L311.517 99.8314C312.986 99.3416 314.673 99.8314 315.707 100.92L322.726 108.538C322.944 108.81 323.325 108.918 323.706 108.864L331.813 107.232C332.956 107.014 334.099 107.232 335.024 107.939C335.514 107.34 336.438 107.177 337.091 107.667C337.908 108.266 348.518 115.176 357.334 120.835C357.334 120.835 357.442 120.835 357.497 120.835C357.878 120.672 358.259 120.672 358.64 120.835C359.02 120.618 359.238 120.182 359.238 119.693L357.878 102.77C357.769 101.518 358.259 100.321 359.129 99.4504C360 98.5798 361.197 98.1989 362.503 98.3622L369.577 99.124C370.066 99.124 370.393 98.9063 370.611 98.6342C370.883 98.3078 370.992 97.8724 370.883 97.4915L370.447 95.8591C370.393 95.587 370.175 95.315 369.958 95.1517L357.551 86.9351C356.354 86.1189 355.647 84.813 355.647 83.3438C355.647 81.8746 356.408 80.6231 357.66 79.8613C358.422 79.426 359.293 79.0995 360.163 79.0995L385.466 80.7319C385.955 80.7319 386.336 80.5687 386.554 80.2422C386.826 79.8613 386.826 79.426 386.663 78.9906L371.372 44.6009C371.372 44.6009 371.318 44.2744 371.264 44.1111C370.828 43.6758 370.719 43.0228 370.992 42.4787C370.992 42.3699 371.1 42.3155 371.155 42.261C371.155 42.0978 371.155 41.8801 371.209 41.6625L378.174 18.8085C378.174 18.8085 378.229 18.482 378.174 18.3188L375.236 -18.7373C375.181 -19.608 375.345 -20.4786 375.835 -21.2404L379.916 -27.9334C382.201 -31.6879 381.929 -36.3675 379.262 -39.85L376.161 -43.9311C375.508 -44.8017 375.182 -45.8356 375.29 -46.9239L375.726 -50.7873C375.889 -52.2021 376.76 -53.4536 378.011 -54.1066L384.377 -57.317C384.649 -57.4803 384.922 -57.7523 385.03 -58.0788L391.016 -77.8856C391.125 -78.2665 391.016 -78.7018 390.798 -79.0283L387.914 -82.7285L386.227 -81.2049C384.867 -79.9533 383.071 -79.3004 381.167 -79.3004C379.535 -79.3004 378.011 -79.7901 376.705 -80.7696L374.311 -82.5108C373.876 -82.8373 373.277 -82.8917 372.787 -82.6196C372.297 -82.3476 372.025 -81.8578 372.08 -81.2593L372.189 -80.3343C372.352 -78.8651 371.808 -77.3959 370.72 -76.362L349.389 -56.6096C346.94 -54.3787 346.668 -50.5696 348.736 -48.0122L349.335 -47.2504C350.26 -46.1077 350.369 -44.4208 349.552 -43.1693L349.063 -42.4075H349.28Z" fill="#F3F3F3"/>
<path d="M17.5215 -94.5914L20.6231 -85.9396C21.004 -84.9057 21.1672 -83.8174 21.0584 -82.7291L20.6774 -76.6347L40.6475 -82.4026C44.7286 -83.5997 49.1905 -83.6542 53.326 -82.6203L64.8619 -79.6819C67.8546 -78.9201 70.6297 -77.6142 73.1328 -75.8185L93.8647 -60.6914C95.0074 -59.8751 96.4766 -59.7119 97.7825 -60.3105C99.0884 -60.909 99.9046 -62.0517 100.068 -63.4665L100.558 -68.4726C100.83 -71.4654 102.625 -74.0772 105.346 -75.3832C108.012 -76.6891 111.223 -76.5803 113.726 -75.0023L119.711 -71.3565C122.378 -69.7241 125.806 -69.5064 128.69 -70.7036L133.261 -72.6625C134.839 -73.3154 136.58 -73.6964 138.267 -73.6964C141.531 -73.6964 144.633 -72.4993 147.027 -70.2683L164.549 -54.1072C164.549 -54.1072 164.875 -53.9984 164.93 -54.0528C165.038 -54.0528 165.147 -54.216 165.147 -54.3793C165.256 -55.8485 166.127 -57.1544 167.487 -57.753C168.793 -58.3515 170.426 -58.1883 171.568 -57.2633L174.452 -55.0323C176.193 -53.6719 177.554 -51.8218 178.316 -49.7541L195.783 -36.4226C196.653 -35.7696 197.796 -35.4975 198.884 -35.7152C199.972 -35.9328 200.897 -36.6402 201.442 -37.6741C201.931 -38.5992 202.911 -39.0889 203.89 -39.0345C204.924 -38.9256 205.74 -38.2727 206.067 -37.2932L206.72 -35.2799C207.645 -32.2327 209.713 -29.6752 212.379 -27.9884L213.195 -27.4987C214.61 -26.628 219.181 -23.5264 218.8 -20.2616C218.691 -19.2277 218.038 -17.8129 215.535 -16.9967L217.82 -14.1671L226.472 -0.345932C227.669 1.55856 227.832 3.95279 226.853 6.02052L223.969 12.5502C223.425 13.8562 222.337 14.7812 220.976 15.2165C220.759 15.2709 220.65 15.4342 220.65 15.543C220.65 15.6519 220.595 15.8151 220.65 16.0327C221.194 17.0122 221.248 18.1549 220.868 19.1888C220.487 20.2226 219.616 21.0389 218.582 21.3653L214.066 22.8345C214.066 22.8345 213.63 22.9978 213.467 23.161L212.433 23.9772C211.998 24.3037 211.726 24.7934 211.726 25.3376C211.726 25.8817 211.889 26.4259 212.27 26.8068L212.814 27.3509C213.685 28.2215 214.175 29.4731 214.12 30.6702C214.066 31.9217 213.467 33.0644 212.488 33.8806L201.877 42.5325C201.442 42.9134 201.224 43.4031 201.278 44.0016C201.333 44.5458 201.659 45.0356 202.149 45.3076L207.971 48.8445C209.005 49.4431 209.713 50.477 209.876 51.6741C210.039 52.8712 209.713 54.0683 208.896 54.9933L206.393 57.8229C204.598 59.8906 201.605 60.6524 198.993 59.7274L184.247 54.4492C183.594 54.2316 182.886 54.2859 182.288 54.6668C181.689 55.0477 181.308 55.7007 181.308 56.3537V56.8434C181.199 57.6052 181.417 58.367 181.907 59.02L188.763 68.6513C189.144 69.141 189.634 69.5764 190.178 69.9028L193.497 71.6441C194.912 72.4059 196.762 72.3515 198.122 71.4264L199.646 70.447C200.625 69.794 201.931 69.6852 202.965 70.1205C204.053 70.5558 204.87 71.4809 205.196 72.6236L205.414 73.5486C205.849 75.2898 205.795 77.0311 205.196 78.718V78.8812C205.196 78.8812 205.414 79.3165 205.468 79.5886C205.523 79.9695 205.468 80.3504 205.251 80.6769C205.033 80.949 204.706 81.1666 204.38 81.221L204.271 81.6019C204.271 81.6019 204.271 81.9828 204.434 82.0372C204.434 82.0372 204.706 82.2005 204.924 82.0372L212.161 76.8134C212.977 76.2149 213.195 75.0178 212.597 74.2016L210.964 71.8073C209.658 69.8484 209.168 67.563 209.604 65.2776C210.039 62.9922 211.345 60.9789 213.304 59.7274L221.14 54.5036C222.01 53.905 223.044 53.633 224.078 53.633C225.656 53.633 227.071 54.286 228.105 55.4287L228.54 56.3537C229.411 57.3332 229.465 58.5847 229.465 59.945V63.8084C229.465 65.4953 231.152 66.9645 232.839 67.1277L243.449 68.4337C247.476 68.9234 250.632 72.0794 251.013 76.1061L251.829 84.1594C252.265 88.7302 254.931 92.7568 258.903 94.9334C263.147 97.2732 268.317 97.3276 272.452 95.0422L282.084 89.7097C283.063 89.1655 283.716 88.186 283.825 87.0977V86.608C283.988 85.5197 283.553 84.4315 282.682 83.7241C281.158 82.4725 280.288 80.568 280.233 78.6091C280.233 76.6502 280.995 74.7457 282.464 73.3854L282.954 72.95C284.641 71.372 287.035 70.7735 289.266 71.3176L292.585 72.1339C293.347 72.2971 294.109 72.0794 294.599 71.4809C295.088 70.8823 295.252 70.1205 294.98 69.3587L294.164 67.1821C293.13 64.407 293.565 61.3054 295.306 58.9112L297.265 56.2993C298.353 54.8301 298.027 52.8168 296.612 51.7285L294.925 50.4225C293.402 49.2798 292.531 47.593 292.422 45.6885C292.313 43.8384 293.075 41.9883 294.49 40.7368C294.98 40.3015 295.252 39.6485 295.197 38.9955L295.088 36.9822C294.871 33.4997 297.428 30.3981 300.911 29.9628C303.251 29.6907 305.427 30.5614 306.896 32.2482L309.182 34.9145C309.998 35.8939 311.358 36.3837 312.664 36.166L319.575 34.8601C320.5 34.6968 321.262 34.0983 321.588 33.2276C321.969 32.357 321.86 31.3775 321.316 30.6158C320.554 29.4186 320.446 27.9495 321.207 26.7523C321.915 25.5552 323.166 24.8479 324.581 25.0111L331.655 25.7185C333.559 25.8817 335.301 25.2832 336.715 24.0316C338.13 22.7801 338.457 20.93 338.457 19.08V8.08826C338.457 2.86449 336.171 -2.19603 331.709 -4.91675L308.148 -20.8057L299.877 -22.9823C299.55 -22.9823 299.278 -21.5131 299.17 -21.2954L297.864 -18.4659C297.646 -18.085 297.7 -17.3776 298.081 -17.1055L298.789 -16.507C299.768 -15.7996 300.367 -14.6569 300.367 -13.4053C300.367 -12.2082 299.877 -11.0111 298.898 -10.3037L296.014 -8.07278C296.014 -8.07278 295.633 -7.52863 295.742 -7.20213L297.537 -0.726868C297.537 -0.726868 297.809 -0.291519 298.027 -0.182693L305.318 2.37479C307.005 2.97334 308.039 4.60574 307.822 6.347L307.005 14.1827C306.896 15.2165 306.407 16.0872 305.591 16.7401C304.829 17.3387 303.795 17.6651 302.815 17.5563L296.993 16.9034C296.993 16.9034 296.558 17.0122 296.395 17.1754C296.231 17.3387 296.177 17.6108 296.177 17.8828L297.7 25.5008C298.027 27.1877 297.211 28.8745 295.687 29.6363C295.089 29.9628 294.49 30.0716 293.837 30.0716C292.531 30.0716 291.388 29.4187 290.681 28.3848L287.198 22.9434C286.981 22.6713 286.6 22.508 286.328 22.6169L285.566 22.8345C285.185 22.9433 284.804 22.9977 284.423 22.9977C283.117 22.9977 281.92 22.3448 281.267 21.2565C280.288 19.6785 279.581 19.8961 279.254 19.1343C278.492 19.1343 277.077 15.2165 275.336 20.6579H275.119C273.595 20.6579 272.18 18.427 271.582 17.121L269.514 12.0605C268.752 10.3737 269.296 8.03386 270.82 6.99998L274.574 4.27928C274.901 4.06161 275.01 3.51749 274.846 3.13658L269.133 -7.03889C268.589 -8.01836 268.48 -9.21545 268.915 -10.3037C269.351 -11.3376 270.221 -12.2083 271.309 -12.5347C271.69 -12.6436 271.962 -13.1333 271.854 -13.5142L271.146 -16.0173C271.037 -16.3438 270.82 -16.5614 270.493 -16.5614L265.596 -17.2144C264.127 -17.432 262.875 -18.4659 262.44 -19.8807L260.481 -26.4648C260.372 -26.7369 260.154 -26.9545 259.882 -27.0089L249.381 -28.8046C248.891 -28.9134 248.564 -29.1855 248.347 -29.6208C246.497 -29.8929 244.701 -30.6003 243.177 -31.743L235.396 -37.6741C233.056 -39.4154 231.587 -42.0817 231.315 -44.9656C231.152 -46.3804 232.077 -47.6863 233.437 -48.0128C234.09 -48.1761 234.634 -48.6658 234.906 -49.2644C235.178 -49.9173 235.178 -50.5703 234.906 -51.2233L234.199 -52.6925C233.165 -54.8146 233.655 -57.3721 235.396 -58.8957L248.129 -70.2138C250.034 -71.9007 250.741 -74.6214 249.925 -77.0156C249.326 -78.7025 248.075 -80.0628 246.388 -80.7702C244.755 -81.4776 242.851 -81.4232 241.218 -80.6614L228.268 -74.6214C225.982 -73.5875 223.262 -73.6964 221.14 -74.9479L218.31 -76.6347C216.841 -77.5054 214.991 -77.6686 213.358 -77.1244L205.686 -74.5126C205.196 -74.3493 204.815 -73.914 204.706 -73.3699C204.652 -72.8257 204.87 -72.336 205.305 -72.0095C206.448 -71.1933 207.155 -69.8874 207.264 -68.527C207.373 -67.1122 206.883 -65.7519 205.904 -64.7724L203.237 -62.1061C202.312 -61.1811 201.115 -60.6914 199.864 -60.6914C199.102 -60.6914 198.34 -60.8546 197.687 -61.2355L183.485 -68.527C180.873 -69.8874 179.404 -72.7169 179.785 -75.6008L180.166 -78.3216C180.275 -78.9201 180.057 -79.5187 179.621 -79.8996C179.186 -80.3349 178.588 -80.4982 177.989 -80.3893H177.717C177.39 -80.2805 177.064 -80.226 176.738 -80.226C174.452 -80.226 172.439 -81.6953 171.786 -83.8718L170.698 -87.2999C170.262 -88.7147 169.12 -89.803 167.705 -90.1839L161.012 -91.9795C158.835 -92.5781 157.257 -94.3193 156.876 -96.5503C156.55 -98.7813 157.475 -100.958 159.379 -102.155L160.359 -102.808C161.61 -103.624 162.318 -105.148 162.1 -106.617C162.1 -106.998 162.1 -107.542 162.427 -107.923L167.65 -114.289C168.521 -115.323 168.848 -116.684 168.521 -118.044C168.086 -119.84 166.725 -121.2 164.984 -121.744L161.556 -122.615C160.141 -123.05 158.563 -123.159 157.366 -122.288C156.115 -121.363 154.537 -120.928 152.959 -120.928H148.333C146.211 -120.928 144.198 -119.894 142.837 -118.262L139.736 -114.834C138.484 -113.31 136.634 -112.276 134.73 -112.276C134.294 -112.276 133.914 -112.276 133.533 -112.276C131.791 -112.603 130.268 -113.528 129.288 -114.997C128.309 -116.466 127.928 -118.207 128.254 -119.948C128.799 -122.724 128.744 -123.594 128.744 -123.812C128.526 -124.138 127.057 -125.988 118.242 -134.314C115.848 -136.545 115.739 -140.354 117.916 -142.802C118.786 -143.727 119.004 -145.088 118.514 -146.231L108.72 -170.118L95.878 -170.663C93.7558 -170.771 91.7969 -171.696 90.4365 -173.274L89.838 -172.785C86.682 -170.282 84.9952 -166.201 85.5393 -162.174L86.7908 -152.543C87.0629 -150.257 85.9746 -148.081 83.9612 -146.938L82.9274 -146.394C81.1861 -145.414 78.9551 -145.523 77.2683 -146.611C75.7447 -147.591 73.9491 -148.135 72.099 -148.135C69.9768 -148.135 67.9091 -147.428 66.2222 -146.122L43.7491 -128.6C40.2666 -125.88 37.7636 -122.071 36.7297 -117.772L36.4576 -116.684C36.0767 -115.106 35.0972 -113.745 33.7913 -112.82L30.5809 -110.535C28.7852 -109.229 26.391 -108.902 24.2688 -109.664C23.2349 -110.045 22.1466 -109.882 21.276 -109.174C20.4054 -108.521 19.9701 -107.488 20.1333 -106.399L20.5687 -102.699C20.7863 -100.903 20.1878 -99.2166 18.9362 -97.9107C18.0656 -97.04 17.7935 -95.7885 18.2288 -94.6458L17.5215 -94.5914Z" fill="#F3F3F3"/>
<path d="M304.939 -68.418C306.027 -69.9416 306.299 -71.7917 305.809 -73.5329L305.701 -73.8594C305.156 -75.7095 303.796 -77.1243 301.946 -77.7772C300.15 -78.4302 298.083 -78.1581 296.559 -77.0699L289.431 -72.2814C286.112 -69.996 283.826 -66.2414 283.826 -62.2692V-43.6595C283.826 -40.6123 282.683 -37.7284 280.289 -35.8783L279.092 -34.7356C278.385 -34.1914 277.569 -33.9194 276.698 -33.9194C275.555 -33.9194 274.467 -34.4635 273.705 -35.3341C273.487 -35.6062 273.052 -35.7695 272.726 -35.6606L255.422 -30.6545L260.047 -29.8927C261.462 -29.675 262.605 -28.6412 263.04 -27.2264L264.999 -20.6423C265.108 -20.3702 265.325 -20.0981 265.652 -20.0981L270.549 -19.4452C272.018 -19.2275 273.27 -18.1936 273.705 -16.7244L274.412 -14.2214C274.957 -12.2625 273.868 -10.1403 271.909 -9.54177C271.692 -9.48735 271.529 -9.3241 271.42 -9.10645C271.311 -8.88879 271.365 -8.61674 271.42 -8.4535L277.133 1.72198C278.113 3.46323 277.568 5.58537 275.936 6.67365L272.181 9.23113C271.855 9.44878 271.746 9.8841 271.909 10.2106L273.923 14.5637C274.032 14.8358 274.358 14.9991 274.684 14.9991C276.208 14.8902 277.405 14.7814 278.33 14.7814C280.235 14.7814 280.67 15.0535 281.051 15.38C281.323 15.652 281.541 16.1418 281.595 16.5227C281.65 16.6859 282.03 17.3389 283.445 19.6243C283.608 19.8963 283.989 20.0596 284.37 19.9507L285.132 19.7331C286.71 19.2434 288.56 19.8963 289.431 21.3111L292.968 26.7525C293.185 27.079 293.621 27.1879 294.002 27.0246C294.437 26.807 294.655 26.4804 294.546 26.0995L293.022 18.4816C292.805 17.2845 293.131 16.0873 293.947 15.1623C294.763 14.2373 295.96 13.8019 297.158 13.9652L302.871 14.6182C303.143 14.6182 303.306 14.6181 303.47 14.4549C303.633 14.3461 303.742 14.1284 303.742 13.9108L304.558 6.0751C304.558 5.69419 304.395 5.36774 304.014 5.25891L296.722 2.70144C295.58 2.26612 294.655 1.34107 294.328 0.143959L292.532 -6.33134C292.097 -7.80053 292.641 -9.37853 293.893 -10.358L296.777 -12.589C296.777 -12.589 297.103 -12.9699 297.103 -13.2419C297.103 -13.514 296.994 -13.7317 296.777 -13.8949L296.069 -14.3846C294.383 -15.5817 293.947 -17.8128 295.09 -19.554L296.45 -21.6217C297.212 -22.7644 298.627 -23.4718 299.987 -23.3086L307.442 -22.5468L316.91 -41.0476L302.653 -47.8494C300.368 -48.9377 298.681 -51.0054 298.028 -53.4541C297.375 -55.9027 297.865 -58.569 299.389 -60.6367L304.993 -68.4724L304.939 -68.418Z" fill="#F3F3F3"/>
<path d="M359.95 395.464L364.466 387.356C365.5 385.506 367.622 384.472 369.69 384.853L371.377 385.125C371.975 385.234 372.574 385.07 373.009 384.69C373.499 384.309 373.771 383.765 373.771 383.166V381.316C373.934 378.922 375.73 376.908 378.07 376.527L379.811 376.255C380.954 376.038 381.661 375.004 381.498 373.861L380.953 370.542C380.518 367.93 382.205 365.427 384.817 364.774L393.142 362.815C394.122 362.597 394.775 361.672 394.72 360.693L393.687 344.967C393.578 343.607 394.067 342.246 394.992 341.267L404.678 330.547C405.222 329.949 405.331 329.133 405.059 328.371L404.733 327.5C403.808 325.215 404.678 322.548 406.8 321.243C407.616 320.753 407.997 319.773 407.671 318.848L405.386 311.992L401.141 313.189C400.271 313.461 399.291 313.298 398.529 312.808C397.768 312.319 397.169 311.502 397.006 310.632L395.156 301.218C395.156 301.218 395.047 301 394.992 301C394.938 301 394.775 301 394.72 301L391.836 302.687C390.585 303.449 388.953 303.231 387.919 302.198C386.83 301.164 386.558 299.586 387.266 298.28L396.625 280.269C396.625 280.269 396.625 280.051 396.625 279.942C396.625 279.942 396.516 279.779 396.353 279.779H395.264C394.339 279.67 393.523 279.289 392.979 278.636C392.381 277.929 392.108 277.113 392.217 276.242L392.87 270.202C392.87 270.202 392.761 271.073 392.598 271.018L381.987 270.855C381.987 270.855 381.77 269.44 381.715 269.549L376.6 276.623C375.947 277.657 374.859 277.983 373.662 277.929C372.465 277.929 371.431 277.058 370.887 276.024L369.309 272.814C369.309 272.814 369.091 272.596 368.928 272.651L358.317 276.242C358.317 276.242 358.154 276.351 358.154 276.405L355.814 281.792C355.27 282.989 354.073 283.806 352.767 283.806C352.332 283.806 351.896 283.697 351.516 283.534C351.352 283.479 351.189 283.534 351.135 283.534C351.135 283.534 350.971 283.642 350.971 283.751L350.699 287.234C350.59 288.376 349.992 289.356 349.012 289.9C348.033 290.444 346.836 290.444 345.856 289.9L342.537 288.104C342.537 288.104 342.319 288.104 342.211 288.104C342.156 288.104 342.047 288.213 342.047 288.322L341.667 291.315C341.503 292.675 340.524 293.763 339.163 294.09C337.857 294.416 336.443 293.927 335.681 292.784L334.103 290.553C334.103 290.553 333.885 290.39 333.722 290.444L330.62 291.532C330.62 291.532 330.403 291.696 330.403 291.859L330.784 294.96C330.947 296.321 330.294 297.627 329.042 298.225C327.41 299.096 325.614 299.586 323.764 299.586C320.445 299.586 317.343 298.062 315.276 295.45L309.997 288.703C309.997 288.703 309.834 288.594 309.725 288.594L306.733 289.247C306.733 289.247 306.569 289.356 306.515 289.41C306.46 289.465 306.46 289.574 306.515 289.682L307.603 292.675C308.202 294.253 307.494 295.994 306.025 296.756L292.204 303.939C292.204 303.939 292.095 304.048 292.041 304.102C292.041 304.211 292.041 304.265 292.041 304.374L292.476 305.19C293.238 306.551 292.911 308.238 291.714 309.271C290.027 310.741 287.851 311.557 285.62 311.557C284.151 311.557 282.736 311.23 281.43 310.577L275.444 307.585C273.105 306.442 270.112 306.768 268.098 308.455L262.494 313.189C261.405 314.114 259.719 314.223 258.521 313.407C257.596 312.808 256.943 312.264 256.345 311.829C256.236 312.101 256.236 312.427 256.345 312.645L259.229 317.706C259.447 318.087 259.827 318.25 260.263 318.141L265.487 317.161C267.609 316.835 269.459 317.978 270.003 319.882L271.581 325.052C271.69 325.433 272.071 325.269 272.506 325.269H283.226C286.98 325.269 290.136 328.697 290.354 332.452L290.626 336.642C290.789 338.601 290.082 340.614 288.721 342.083C287.361 343.498 285.457 344.369 283.498 344.369C283.171 344.369 282.845 344.586 282.681 344.858L277.131 354C277.131 354 277.294 354.163 277.403 354.272L279.906 356.503C281.539 357.972 283.715 358.68 285.946 358.462L295.034 357.646C296.503 357.537 297.972 358.027 299.006 359.006L300.747 360.638C302.107 361.944 301.944 364.121 300.42 365.209L297.645 367.168C297.645 367.168 297.264 368.42 296.829 369.617C296.339 371.14 296.829 372.882 298.135 373.916C299.713 375.222 300.475 377.18 300.148 379.194L299.876 380.935C299.931 382.676 300.801 384.309 302.271 385.288L314.133 393.505C315.602 394.539 317.561 394.756 319.248 394.049L320.282 393.614C321.968 392.906 323.928 393.015 325.506 393.94L327.192 394.919C328.934 395.899 331.056 395.844 332.743 394.702L335.681 392.743C337.694 391.382 340.415 391.6 342.211 393.287L344.659 395.572C347.054 397.803 350.536 398.511 353.583 397.368L358.1 395.681C358.753 395.464 359.405 395.355 360.058 395.3L359.95 395.464Z" fill="#F3F3F3"/>
<path d="M443.261 109.19C443.315 108.864 443.152 108.646 443.043 108.537C442.989 108.483 442.662 108.32 442.39 108.428L439.017 109.571C437.438 110.115 435.534 109.408 434.663 107.939L433.466 105.871C433.466 105.871 433.031 105.49 432.759 105.544L420.57 107.612C416.87 108.211 413.061 107.721 409.687 106.034L403.81 103.205C400.437 101.572 397.716 99.0148 395.975 95.7499L388.629 82.3096C387.758 83.1802 386.616 83.6155 385.364 83.5611L359.953 81.8743C359.953 81.8743 359.517 81.9287 359.3 82.0375C358.919 82.2552 358.701 82.6361 358.701 83.0714C358.701 83.5067 358.919 83.8875 359.245 84.1052L371.706 92.3218C372.577 92.9203 373.175 93.7909 373.447 94.8248L373.883 96.5117C374.209 97.8721 373.883 99.3412 373.012 100.429C372.141 101.463 370.781 102.443 369.421 102.28H362.401V102.225C361.966 102.225 361.639 101.735 361.422 102.008C361.15 102.28 361.041 102.171 361.041 102.497L362.401 119.366C362.51 120.508 362.075 121.597 361.367 122.467L370.781 129.323C372.522 130.575 373.393 132.643 373.121 134.765L371.924 142.873C371.489 145.702 369.203 147.824 366.21 148.314C365.775 148.368 365.394 148.586 365.068 148.858L356.416 156.694C356.035 157.075 355.545 157.184 355.055 157.184C354.13 157.129 353.26 156.313 352.879 155.878C352.716 155.714 352.607 155.497 352.552 155.279C352.28 154.136 351.301 153.483 349.886 153.483L344.118 153.592C342.758 153.592 341.561 154.626 341.397 155.986C341.18 157.347 340.2 158.326 338.894 158.435C338.568 158.435 338.296 158.707 338.187 159.034C338.078 159.36 338.187 159.741 338.35 159.959C339.656 161.319 340.2 163.387 339.819 165.237L338.024 170.406C337.806 171.059 338.296 172.964 338.568 172.964H338.622C339.33 172.964 340.309 173.018 343.084 175.467C345.478 177.534 346.621 180.364 346.131 183.52C346.839 186.458 348.634 188.853 351.246 190.213L351.355 190.322C352.389 188.308 354.185 184.88 356.688 180.038C357.177 179.112 358.048 178.46 359.028 178.187C359.68 178.024 360.334 178.079 360.987 178.296L362.02 176.011C362.673 174.596 364.143 173.726 365.721 173.943L372.686 174.814C373.719 174.923 374.644 175.521 375.243 176.392L375.678 177.045C375.678 177.045 375.896 177.262 376.059 177.317C376.277 177.317 376.386 177.317 376.549 177.208L378.671 175.576C378.671 175.576 378.889 175.304 378.889 175.14C378.889 174.977 378.889 174.814 378.726 174.705L377.039 172.909C376.331 172.147 376.005 171.059 376.114 170.025L376.277 168.883C376.495 167.033 378.181 165.509 380.086 165.727L393.69 166.543C394.723 166.597 395.703 167.141 396.356 167.958L398.206 170.406C398.206 170.406 398.478 170.624 398.696 170.624L403.647 169.808C404.899 169.59 406.096 170.08 406.912 170.95L414.367 179.276C414.367 179.276 414.639 179.493 414.802 179.493C415.02 179.493 415.183 179.385 415.292 179.221L415.51 178.84C416.435 177.534 418.23 176.936 419.754 177.535L421.332 178.133C421.332 178.133 421.822 178.133 421.985 178.024L423.236 176.718C424.216 175.684 425.848 175.358 427.209 175.902C428.569 176.501 429.44 177.807 429.44 179.276V182.432C429.44 182.432 429.494 182.867 429.766 182.976L430.365 183.248C430.365 183.248 430.909 183.248 431.072 183.085L434.446 177.154C435.262 175.739 436.786 174.923 438.364 175.086C439.561 175.195 440.594 175.739 441.356 176.664C443.261 176.446 444.893 177.698 445.274 179.493L446.199 184.01C446.417 185.098 446.145 186.295 445.383 187.111L443.479 189.234C443.479 189.234 443.315 189.614 443.315 189.723C443.315 189.832 443.424 190.05 443.587 190.159L447.941 192.988C447.941 192.988 448.376 193.097 448.593 192.988L453.055 189.832C453.055 189.832 453.273 189.56 453.327 189.397V188.472C453.436 187.111 454.252 185.969 455.45 185.425C456.647 184.88 458.062 185.044 459.095 185.86L459.476 186.132C459.476 186.132 459.857 186.295 460.02 186.241L470.577 179.874C470.849 179.004 471.447 178.242 472.264 177.807C473.298 177.208 474.712 177.208 475.746 177.807C476.018 177.97 476.454 177.861 476.617 177.643L478.412 176.664C478.412 176.664 479.773 176.446 479.773 176.283V174.814C479.773 173.834 478.902 173.889 479.609 173.181C480.317 172.528 479.936 173.127 480.861 173.127H480.97L484.071 172.256C485.432 172.256 486.683 172.8 487.282 174.052L488.153 175.684C488.153 175.684 488.479 175.902 488.697 175.902L489.458 175.739C489.458 175.739 489.731 175.63 489.839 175.467L491.798 173.073C491.417 172.528 491.2 171.93 491.145 171.222L490.819 165.509C490.819 165.509 490.819 165.346 490.819 165.291L484.67 152.014C484.072 150.654 484.344 149.021 485.377 147.933L489.676 143.58C489.676 143.58 489.894 143.253 489.894 143.036C489.894 142.818 489.785 142.655 489.622 142.546L478.249 134.493C478.249 134.493 478.086 134.384 477.977 134.384L475.528 133.894C474.059 133.622 472.862 132.425 472.59 130.901L472.427 129.922C472.427 129.596 472.155 129.487 472.046 129.432C471.937 129.432 471.611 129.323 471.393 129.487L469.489 130.901C468.509 131.663 467.04 131.827 465.897 131.337L461.544 129.432C459.966 128.779 459.095 127.147 459.367 125.46V125.134C459.367 125.134 459.367 124.698 459.259 124.535C459.095 124.372 458.878 124.317 458.66 124.317L457.681 124.426C457.681 124.426 457.354 124.426 457.245 124.426C455.994 124.426 454.906 123.828 454.198 122.848L453.872 122.358C453.654 122.086 453.273 121.978 453.001 122.141L452.239 122.576C451.423 123.066 450.389 123.175 449.464 122.957C448.485 122.685 447.723 122.086 447.233 121.216L443.315 114.087C442.88 113.271 442.771 112.346 442.989 111.476L443.533 109.245L443.261 109.19Z" fill="#F3F3F3"/>
<path d="M340.797 211.108C340.362 212.468 340.96 213.992 342.266 214.645L343.355 215.189C344.933 215.951 346.946 215.57 348.089 214.209L352.551 208.986L352.006 194.511H351.897C351.897 194.511 351.353 194.511 351.081 194.402C350.592 194.185 350.265 193.804 350.156 193.314L349.612 192.933C346.293 191.192 343.953 187.982 343.082 184.227C343.082 184.118 342.974 183.683 343.082 183.465C343.518 181.289 342.756 179.003 341.069 177.534C339.273 175.956 338.566 175.575 338.403 175.521C337.695 175.63 336.825 175.194 336.226 174.487C335.138 173.235 334.594 170.841 335.083 169.317L336.825 164.257C336.988 163.55 336.661 162.625 336.063 161.972C335.029 160.883 334.703 159.36 335.192 157.945C335.682 156.639 336.825 155.714 338.185 155.496C338.838 152.612 341.123 150.653 343.899 150.599H349.666C352.115 150.545 354.183 151.796 354.999 153.809L362.835 146.681C363.597 146.028 364.522 145.539 365.501 145.375C367.242 145.103 368.548 143.906 368.766 142.437L369.909 134.384C370.072 133.35 369.582 132.37 368.766 131.717L358.046 123.882C358.046 123.882 358.046 123.882 357.992 123.882C357.176 123.882 356.414 123.664 355.707 123.229C354.02 122.14 341.015 113.761 336.607 110.877C336.607 111.584 336.498 112.346 336.117 113.053L334.594 115.774C334.376 116.155 334.43 116.645 334.703 116.971L338.512 121.324C339.382 122.304 339.709 123.61 339.437 124.915C339.165 126.167 338.294 127.201 337.042 127.745L333.614 129.214C333.288 129.323 333.125 129.595 333.016 129.922L328.717 145.212C328.499 145.974 328.064 146.627 327.466 147.171L325.996 148.422C325.18 149.184 324.038 149.511 322.949 149.402C321.861 149.293 320.827 148.749 320.12 147.878C319.848 147.552 319.358 147.389 318.977 147.552L318.106 147.878C318.106 147.878 317.617 148.15 317.508 148.422C317.399 148.695 317.345 148.967 317.508 149.239L318.161 150.98C318.596 152.123 318.487 153.32 317.889 154.408L308.475 171.385C307.768 172.691 306.407 173.453 304.884 173.453C304.829 173.453 304.72 173.453 304.666 173.453C303.088 173.344 301.728 172.365 301.184 170.896C300.857 170.134 298.68 164.42 297.755 161.917C296.994 162.189 295.47 162.842 292.64 164.203C291.335 164.856 289.702 164.692 288.505 163.876L283.39 160.176C282.955 159.904 282.411 159.904 282.03 160.285L278.166 163.985C278.166 163.985 277.84 164.475 277.84 164.747C277.84 165.073 277.949 165.291 278.166 165.509L280.56 167.685C281.486 168.501 281.975 169.698 281.866 170.95V172.147C281.703 173.507 280.941 174.759 279.744 175.412L273.595 178.84C273.269 179.003 273.106 179.33 273.051 179.711L272.725 186.676C272.725 186.948 272.834 187.274 273.051 187.492C273.269 187.709 273.595 187.818 273.867 187.818L276.588 187.71C278.547 187.71 280.234 189.124 280.56 191.029L281.54 196.253C281.649 196.742 282.084 196.253 282.574 196.253L287.852 194.947H288.124C290.028 194.947 291.661 197.069 292.096 198.864L293.729 205.612C293.729 205.612 294.055 205.938 294.273 205.884C294.49 205.775 294.654 205.721 294.708 205.503L294.871 204.632C294.871 204.632 294.871 204.36 294.871 204.197L294.164 201.259C294.001 200.66 294.218 200.062 294.708 199.735C296.069 198.701 297.483 198.484 298.735 199.082C301.075 200.17 301.836 203.653 301.891 204.796L302 206.102L302.761 204.959C303.033 204.524 303.142 204.034 303.034 203.544C302.489 201.313 303.687 199.028 305.863 198.211C307.822 197.45 309.944 198.048 311.196 199.572C311.305 199.735 311.468 199.898 311.577 199.898C311.685 199.898 311.74 199.898 311.849 199.79L312.284 199.354C313.046 198.592 313.1 197.341 312.338 196.579C311.305 195.491 311.087 193.858 311.794 192.498L312.556 191.083C313.155 189.995 314.406 189.233 315.767 189.233L318.922 189.342C321.643 189.451 323.929 191.355 324.473 194.022L325.18 195.763L326.595 194.783C328.064 193.695 329.969 193.314 331.764 193.858C333.56 194.403 334.975 195.708 335.628 197.45L335.845 198.048C336.498 199.735 336.335 201.64 335.41 203.218C335.192 203.653 335.192 204.088 335.464 204.36C335.682 204.578 336.009 204.687 336.281 204.578L337.423 204.197C338.566 203.816 339.926 204.088 340.797 204.959C341.668 205.829 341.994 207.135 341.613 208.332L340.634 211.325L340.797 211.108Z" fill="#F3F3F3"/>
<path d="M273.648 348.994L275.009 351.442L279.906 343.389C280.613 342.246 281.919 341.485 283.28 341.485C284.422 341.485 285.511 340.995 286.327 340.124C287.143 339.254 287.524 338.111 287.469 336.968L287.197 333.976C287.034 331.799 285.239 330.82 283.062 330.82H272.342C270.601 330.82 269.023 328.915 268.533 327.228L266.955 321.406C266.847 320.97 266.357 320.426 265.867 320.481L260.643 321.351C259.011 321.623 257.324 320.807 256.508 319.338L253.624 314.223C252.971 313.026 252.971 311.611 253.624 310.414L254.005 309.652C254.005 309.652 253.896 309.435 253.896 309.38C253.787 308.999 253.787 308.618 254.005 308.238C254.168 307.857 254.494 307.585 254.875 307.476C254.984 307.476 255.093 307.476 255.202 307.476L260.589 297.409C260.806 297.028 260.698 296.538 260.371 296.266L253.461 289.791C251.284 287.723 250.577 284.513 251.665 281.738L258.14 265.74C258.249 265.468 258.195 265.087 258.031 264.815L254.658 259.972C254.386 259.591 253.842 259.482 253.406 259.7L249.652 261.768C247.53 262.91 244.972 263.074 242.687 262.203C240.401 261.278 238.714 259.374 238.007 257.034L235.667 249.144C235.286 247.947 235.558 246.641 236.266 245.661L240.891 239.404C241.653 238.424 242.795 237.825 244.047 237.825C244.809 237.825 245.571 238.043 246.224 238.479L248.128 239.73C248.128 239.73 248.618 239.893 248.89 239.839C249.162 239.784 249.38 239.621 249.488 239.349C250.141 238.152 251.284 237.39 252.644 237.281C253.95 237.118 255.311 237.717 256.127 238.805L257.542 240.655C257.759 240.982 258.195 241.09 258.521 240.982L268.588 238.37C268.969 238.261 269.241 237.989 269.295 237.608L271.254 225.691C271.254 225.691 271.254 225.147 271.091 224.984L268.86 222.045C268.588 221.664 268.098 221.556 267.663 221.773L257.759 226.616C256.617 227.215 255.093 227.16 253.95 226.453C252.808 225.746 252.1 224.494 252.046 223.134L251.828 208.387C251.828 207.952 251.502 207.571 251.066 207.462L244.809 206.211C244.537 206.211 244.21 206.265 243.993 206.483C243.775 206.701 243.666 207.081 243.666 207.408L244.319 212.958C244.428 214.101 244.101 214.645 243.34 215.516C242.578 216.332 241.544 216.658 240.401 216.658H237.245C237.245 216.658 236.81 216.93 236.647 217.039L234.47 218.454C234.144 218.726 233.98 219.434 234.198 219.869L235.939 223.678C236.701 225.201 236.32 227.106 235.069 228.303L224.784 238.043C224.784 238.043 224.458 238.587 224.512 238.859L227.832 264.489C228.049 266.23 227.07 267.917 225.492 268.624L222.172 270.855C220.649 271.889 218.799 272.324 216.949 272.052C216.459 271.998 215.86 271.943 215.262 271.943C211.943 271.943 207.807 273.086 205.467 274.664C204.923 275.045 204.052 275.045 203.617 274.664C200.624 272.215 187.565 245.117 184.953 239.73L184.681 239.186C179.784 228.466 177.226 227.922 176.737 227.922C176.737 227.922 176.682 227.922 176.628 227.922L171.894 229.555C171.513 229.718 171.077 229.772 170.642 229.772C169.282 229.772 167.976 229.065 167.268 227.922L163.84 222.317C162.97 220.848 163.079 218.998 164.167 217.692L165.582 216.005C165.854 215.679 165.908 215.244 165.636 214.863L160.195 206.32C160.031 206.048 159.759 205.884 159.378 205.884C159.324 205.884 159.27 205.884 159.215 205.884C159.052 205.884 158.562 206.048 158.453 206.592L155.569 217.964C155.243 219.161 154.427 220.086 153.338 220.576C152.25 221.066 150.944 221.011 149.91 220.413L149.421 220.141C148.278 219.542 147.516 218.4 147.353 217.094L144.687 191.519C143.326 192.607 142.564 194.403 142.891 196.253V196.688C143.217 198.647 143.272 201.205 141.639 202.021C140.823 202.456 139.844 202.293 138.919 201.531C138.157 201.314 137.286 201.422 136.579 201.803C135.871 202.184 135.436 202.837 135.327 203.545C135.218 204.143 135.273 204.742 135.436 205.34L135.871 206.809L137.341 208.714C139.68 211.816 139.354 216.55 137.939 217.801L127.002 225.093L127.873 231.568C128.145 233.472 130.593 234.18 131.79 232.656C132.552 231.35 134.13 230.752 135.599 231.133C137.123 231.513 138.157 232.928 138.157 234.506L137.613 273.902C137.558 278.038 135.708 282.01 132.552 284.731L122.431 293.437C121.234 294.471 120.255 295.668 119.438 296.974L114.269 305.68C112.963 307.857 112.8 310.523 113.834 312.808L117.969 322.276C118.785 324.072 118.241 326.194 116.718 327.446L112.909 330.602C111.494 331.744 111.766 333.976 113.398 334.792C114.704 335.39 116.282 335.173 117.371 334.248L123.519 328.969C124.717 327.935 126.186 327.337 127.764 327.283L136.307 326.902C138.266 326.847 139.408 329.024 138.266 330.602L137.994 330.983C136.633 332.778 136.144 335.064 136.633 337.24L139.082 348.286C139.572 350.572 141.422 352.313 143.707 352.748L148.496 353.673C151.271 354.218 153.012 357.102 152.141 359.822L148.115 372.61C146.809 376.691 149.529 380.935 153.774 381.479L158.834 382.132C161.5 382.513 163.623 384.472 164.276 387.029L166.235 395.464C166.888 398.348 170.316 399.545 172.655 397.749L178.913 392.961C181.906 390.675 186.313 392.144 187.238 395.79L188.653 401.286C189.252 403.517 191.047 405.258 193.333 405.748L195.074 406.129C197.849 406.727 200.57 404.66 200.624 401.83L201.005 391.002C201.005 389.968 200.788 388.988 200.298 388.063L196.108 380.554C195.183 378.976 195.183 377.017 196.108 375.385L196.38 374.841C197.36 373.045 199.373 372.065 201.386 372.338L204.107 372.718C206.501 373.045 208.841 371.793 209.875 369.617L210.419 368.474C211.834 365.536 215.588 364.611 218.255 366.57L220.268 368.039C222.825 369.943 226.471 369.29 228.212 366.57L228.376 366.298C229.573 364.447 232.402 364.828 233.001 367.005L234.144 371.086L235.123 366.57C235.83 364.447 238.66 364.012 239.966 365.862L240.945 367.277C242.36 369.236 245.407 368.311 245.516 365.917V365.155C245.571 364.339 245.951 363.577 246.55 363.033L246.876 362.706C248.128 361.564 250.087 361.89 250.958 363.305C251.937 364.992 254.005 365.645 255.8 364.883L260.426 362.869C261.895 362.217 262.765 360.802 262.711 359.224L262.602 356.666C262.493 354 263.799 351.497 265.976 349.973L268.751 348.069C270.438 346.926 272.723 347.47 273.757 349.211L273.648 348.994Z" fill="#F3F3F3"/>
<path d="M117.746 209.693L123.841 214.318C124.983 215.189 125.8 216.549 125.963 217.964L126.453 221.555L135.866 215.243C135.975 214.59 136.193 212.087 134.832 210.292L133.2 208.169C133.2 208.169 132.982 207.843 132.982 207.68L132.493 205.939C132.221 204.905 132.112 203.871 132.329 202.837C132.601 201.204 133.635 199.79 135.105 198.973C136.574 198.157 138.478 197.994 140.056 198.538C140.056 198.157 140.056 197.613 139.947 196.96V196.525C139.349 192.933 141.145 189.56 144.355 188.036L141.961 157.51C141.634 153.266 140.328 149.021 138.206 145.321L131.785 134.057C131.459 133.513 131.513 132.86 131.949 132.37C132.329 131.935 132.982 131.718 133.581 131.881L138.043 133.35C138.914 133.84 139.567 133.731 140.002 133.241C140.492 132.697 140.437 131.935 139.947 131.445L130.751 122.522C130.751 122.522 130.37 122.032 130.316 121.76L126.453 105.109L116.876 102.66C116.876 102.66 116.876 102.66 116.821 102.66C116.821 103.857 116.386 105 115.679 105.98L110.4 113.326C109.203 114.958 107.244 115.883 105.231 115.665L102.728 115.393C102.728 115.393 102.51 115.393 102.402 115.393C101.585 115.393 100.824 115.72 100.225 116.318C99.5721 116.971 99.1912 117.896 99.3 118.821C99.4632 120.671 98.5926 122.195 97.069 123.011C95.5454 123.773 93.7497 123.555 92.4982 122.467L88.9068 119.365C88.3627 118.876 87.6009 118.821 86.9479 119.093C86.7847 119.202 86.6758 119.365 86.7302 119.583C87.1655 121.161 86.948 122.63 86.0229 123.773C85.2067 124.807 83.9551 125.405 82.5948 125.405C82.4859 125.405 82.3771 125.405 82.3227 125.405L74.8136 124.916C72.0385 124.752 69.8074 122.63 69.4266 119.855L68.4471 112.781C68.2294 111.094 66.7602 109.843 65.0734 109.843C62.8424 109.843 60.7203 108.809 59.3599 107.013L56.2038 102.878C55.2788 101.681 53.8097 100.919 52.2861 100.919C51.3067 100.919 50.3816 101.191 49.6198 101.735L48.3683 102.552C46.8991 103.531 45.1578 104.021 43.4165 104.021C41.24 104.021 39.1722 103.259 37.5398 101.844C36.6148 101.028 35.9618 100.429 35.5265 99.9396C35.3633 100.048 35.2 100.157 35.0367 100.266C32.6425 101.844 29.4865 102.225 26.7658 101.3L7.06779 94.2805C6.14275 93.954 5.10893 94.0085 4.23833 94.3894C3.15004 94.8791 2.00728 95.0967 0.864578 95.0967C-1.25758 95.0967 -3.27086 94.2805 -4.79448 92.8657L-9.80058 88.2405C-10.7256 87.3699 -11.433 86.2272 -11.7595 85.0301L-12.3037 83.0167C-12.5213 82.1461 -13.3919 81.5476 -14.3714 81.5476C-14.7522 81.5476 -15.0788 81.6564 -15.4052 81.8196L-19.6496 84.4859C-20.9555 85.3021 -22.5335 85.7919 -24.1115 85.7919C-26.5602 85.7919 -28.9 84.7036 -30.478 82.8535L-36.0827 76.2694L-45.3331 66.8013C-46.7478 65.3865 -47.4552 63.482 -47.4552 61.4687C-47.4552 59.4554 -46.5846 57.6053 -45.1698 56.1905L-44.789 55.864C-43.5919 54.7213 -42.8844 53.0889 -42.9388 51.4021L-43.1565 40.8457C-43.1565 40.5737 -43.2654 40.3016 -43.483 40.1383C-43.7007 39.9751 -43.9727 39.9207 -44.2448 39.9751C-44.7889 40.1383 -45.3875 40.1928 -45.9316 40.1928C-48.9244 40.1928 -51.4819 38.2882 -52.3526 35.4587L-53.5497 31.4865C-54.3659 28.8202 -53.2232 25.9362 -50.829 24.5758L-48.1082 22.9978C-46.6935 22.1816 -45.8228 20.7124 -45.7684 19.1344L-45.6595 16.1417C-45.6595 15.7064 -45.8228 15.271 -46.1493 14.999C-46.4758 14.7269 -46.9111 14.6181 -47.3465 14.7269L-48.2715 14.8901C-49.9583 15.271 -51.8084 14.4548 -52.7334 12.9856L-53.6584 11.462C-54.3114 10.3738 -54.4747 9.06782 -54.0394 7.8163C-53.6041 6.61918 -52.6246 5.69413 -51.4275 5.25882L-50.6113 4.98673L-64.3781 -0.781165C-68.0782 -2.35918 -72.2137 -2.84891 -76.1859 -2.14152C-82.8789 -1.05324 -99.3121 1.72187 -108.562 3.19105C-112.208 3.78961 -115.255 6.18387 -116.779 9.55755C-118.52 13.5842 -121.894 16.6858 -125.975 17.9917L-128.369 18.7535C-130.328 19.4065 -132.45 18.9168 -134.028 17.5564C-134.899 16.7946 -136.096 16.6314 -137.076 17.1211L-151.006 24.2494C-154.053 25.8274 -157.318 26.5892 -160.8 26.5348L-176.689 26.2083C-179.791 26.1539 -182.457 23.8685 -183.056 20.8213C-183.382 19.1345 -184.688 17.9373 -186.375 17.8829L-190.565 17.7197C-193.557 17.5564 -196.224 18.9168 -198.019 21.3654L-199.271 23.1611C-201.774 26.6436 -205.801 28.7113 -209.991 28.7113C-211.025 28.7113 -212.113 28.6025 -213.147 28.3304L-223.757 25.773C-224.682 25.5553 -225.662 25.4465 -226.587 25.4465C-231.375 25.4465 -235.674 28.276 -237.579 32.738L-241.551 41.9884C-244.054 47.8108 -249.713 51.5653 -256.025 51.5653C-258.746 51.5653 -261.412 52.4904 -263.534 54.2316L-267.343 57.3332C-270.118 60.2172 -271.207 64.3526 -270.227 68.2705L-267.234 80.024C-266.581 82.5814 -264.568 84.5403 -262.011 85.1389L-259.562 85.7374C-257.44 86.5537 -255.807 88.2949 -255.046 90.4171L-252.869 96.4571C-252.107 98.5248 -253.196 100.81 -255.263 101.518L-260.65 103.422C-263.317 104.619 -266.473 103.912 -268.431 101.681C-268.431 101.681 -269.03 101.028 -269.683 100.212C-270.771 98.8513 -272.621 98.4159 -274.254 99.0689H-274.363C-276.594 100.048 -277.573 102.769 -276.376 104.891L-270.989 114.686C-270.336 115.883 -270.118 117.298 -270.336 118.658L-270.771 121.052C-271.098 123.066 -270.39 125.133 -268.867 126.548L-227.022 163.985C-223.703 166.978 -218.425 165.944 -216.466 161.917C-214.67 158.163 -210.372 156.367 -206.399 157.673C-205.257 158.054 -204.114 158.435 -203.134 158.707C-201.175 159.36 -199.978 161.264 -200.25 163.332V163.441C-200.577 165.726 -199.434 167.957 -197.366 168.991C-191.816 171.875 -180.933 177.534 -175.982 180.037C-174.404 180.854 -173.315 182.432 -173.043 184.227V184.336C-172.608 187.819 -168.527 189.56 -165.697 187.383H-165.589C-164.555 186.513 -161.834 186.349 -160.637 186.839C-159.168 187.383 -156.882 188.798 -156.882 190.376V192.281C-156.882 196.634 -156.066 200.66 -152.42 203.055C-151.006 203.98 -150.189 204.959 -148.992 205.775C-147.197 206.972 -145.292 206.972 -143.442 205.884H-143.496C-141.755 204.741 -139.633 206.156 -139.851 208.169V208.278C-140.232 211.38 -137.511 213.883 -134.464 213.339L-132.94 213.067C-129.838 212.523 -126.846 214.482 -126.138 217.529L-124.724 223.623C-124.56 224.439 -123.907 225.038 -123.091 225.201C-121.894 225.419 -120.751 224.548 -120.642 223.297C-120.479 221.174 -119.989 218.291 -118.303 217.855L-118.139 221.12C-118.031 222.753 -116.833 224.113 -115.201 224.439C-113.677 224.711 -112.208 224.004 -111.446 222.698C-110.739 221.447 -109.76 220.086 -108.889 219.869C-107.91 219.651 -103.992 223.569 -100.89 226.834C-98.3326 229.554 -94.4147 230.371 -90.9866 228.956C-84.7834 226.398 -75.0977 222.372 -69.7107 220.141C-67.4253 219.216 -64.8678 220.141 -63.7251 222.317C-63.0721 223.623 -62.9633 224.983 -63.453 226.289C-64.106 228.194 -65.1399 231.078 -65.9561 233.363C-66.7179 235.485 -66.2826 237.771 -64.8134 239.512L-64.7045 239.621C-62.9089 241.797 -59.3176 240.437 -59.4808 237.553V236.519C-59.5896 235.322 -59.372 234.125 -58.8279 233.091L-53.3864 222.698C-52.6246 221.283 -51.4819 220.086 -50.0672 219.27L-46.639 217.311C-44.8434 216.277 -42.6668 216.005 -40.6534 216.495L-14.7523 222.535C-13.8817 222.752 -13.1198 223.133 -12.4124 223.678C-9.80055 225.745 -3.10768 230.86 -2.29146 230.588C-1.25758 230.262 11.5298 228.738 11.5298 228.738L16.1006 224.875L15.5565 223.133C13.8696 221.283 14.3593 218.291 16.5903 217.093C16.5903 217.093 20.2361 215.135 22.6847 213.829C23.9907 213.121 24.8613 211.87 25.079 210.4C25.4599 207.897 27.4187 205.993 29.8674 205.721L35.3088 205.122C38.4648 204.796 41.1856 202.619 42.1651 199.572L43.5254 195.328C44.0151 193.859 44.8857 192.607 46.0284 191.628L48.1506 189.886C50.4904 187.927 53.7552 187.601 56.4759 188.961L65.6176 193.587C68.2295 194.947 71.4399 193.587 72.4193 190.866L72.6369 190.213C73.0723 189.07 73.8885 188.091 75.0312 187.601L81.18 184.771C83.3566 183.792 85.9685 184.663 87.0568 186.785L87.6009 187.873C88.2539 189.179 87.9274 190.757 86.7847 191.628L84.989 193.042C84.1184 193.695 83.5742 194.675 83.3566 195.763L83.139 196.96C82.8669 198.429 84.5537 199.518 85.7508 198.593L89.5598 195.763C91.1378 194.566 93.4233 195.545 93.6953 197.504L93.9673 199.844C94.0762 200.66 93.8042 201.531 93.26 202.184L87.873 208.496C86.8391 209.693 87.0023 211.434 88.1994 212.414C89.2877 213.339 90.8658 213.284 91.8996 212.305L92.4982 211.761C94.3483 210.02 97.0146 209.53 99.3544 210.455L107.789 213.829C109.312 214.427 111.053 213.557 111.38 211.924C112.033 209.095 115.352 207.897 117.638 209.639L117.746 209.693Z" fill="#F3F3F3"/>
</g>
</svg>
