<svg width="730" height="512" viewBox="0 0 730 512" fill="none" xmlns="http://www.w3.org/2000/svg">
<rect width="730" height="512" rx="6" fill="white"/>
<mask id="mask0_4701_6029" style="mask-type:alpha" maskUnits="userSpaceOnUse" x="0" y="0" width="730" height="512">
<rect width="730" height="512" rx="6" fill="white"/>
</mask>
<g mask="url(#mask0_4701_6029)">
<path d="M417.427 345.581L428.071 347.803C431.218 348.451 433.347 351.042 433.439 354.282L433.81 379.458C433.81 380.013 434.087 380.476 434.55 380.846C435.013 381.124 435.568 381.216 436.124 380.846L452.969 372.608C455.839 371.22 459.448 372.146 461.299 374.645L465.094 379.643C466.205 381.124 466.668 382.975 466.39 384.733L465.927 387.325L470.185 389.732C473.147 391.49 476.757 391.953 480.181 391.12L490.548 388.066C491.936 387.695 492.954 386.955 493.602 385.752C494.25 384.641 494.343 383.253 493.973 382.049L492.584 377.514C492.214 376.403 491.473 375.478 490.455 374.922C489.437 374.367 488.234 374.274 487.031 374.645C482.588 376.126 477.867 375.015 474.906 371.683C470.833 367.147 470.926 360.298 474.998 356.04L481.662 349.098C483.791 346.877 486.753 345.581 489.9 345.581C491.288 345.581 492.584 345.859 493.88 346.322L492.399 340.768C492.214 339.935 491.473 339.38 490.64 339.38L481.662 340.12C481.662 340.12 481.2 340.12 481.014 340.12C477.775 340.12 474.906 337.714 474.35 334.474L472.777 325.589C472.592 324.756 471.851 324.108 470.926 324.108L466.39 324.293C464.354 324.293 462.595 323.552 461.299 322.256C459.911 320.868 459.263 319.017 459.263 317.166L459.819 305.318C459.911 302.912 461.207 300.783 463.336 299.672L473.795 293.841C474.35 293.563 474.628 293.008 474.721 292.36V290.324C474.906 289.768 474.72 289.213 474.258 288.843L470.185 285.141C468.797 283.845 467.964 282.086 467.964 280.142C467.964 278.291 468.704 276.44 470.093 275.052L476.664 268.758C478.978 266.536 482.773 266.259 485.457 268.11L494.158 274.404C494.713 274.774 495.361 274.867 496.009 274.589C504.709 270.331 507.116 269.683 508.319 269.683C508.874 269.683 509.245 269.868 509.522 269.961C510.17 270.239 510.818 270.979 511.096 271.627C511.374 272.275 514.706 283.382 517.575 290.879C517.853 291.527 518.408 294.211 519.148 294.211C519.982 294.211 520.444 291.62 520.814 291.064L536.827 260.983C536.827 260.983 537.105 259.409 536.92 258.947L535.809 255.707C535.161 253.948 535.161 251.912 535.994 250.246C536.735 248.58 538.216 247.192 539.974 246.544L541.455 245.988C544.232 245.063 547.379 245.433 549.137 247.747C549.415 248.117 549.878 247.932 550.341 247.932H550.618C550.618 247.932 551.359 248.302 551.729 247.932L554.228 245.988C554.228 245.988 554.691 245.618 554.784 245.248L562.095 219.331C562.651 217.295 564.132 215.722 566.076 214.889L571.907 212.482C572.462 212.297 572.832 211.834 572.925 211.186C573.018 210.631 572.925 210.076 572.555 209.613L566.076 202.208C564.132 199.987 563.854 196.84 565.243 194.341L567.834 189.713C568.205 189.065 568.112 188.324 567.742 187.769C567.371 187.214 566.631 186.936 565.983 187.029L552.192 189.805C549.878 190.268 547.379 189.528 545.713 187.769L533.773 174.811C533.31 174.348 532.57 174.163 531.922 174.348L530.718 174.718C528.682 175.366 526.368 174.996 524.609 173.7C522.851 172.404 521.833 170.368 521.833 168.147C521.833 167.129 521.185 166.388 520.259 166.296L513.502 165.555C513.502 165.555 512.762 165.555 512.392 165.833L504.709 170.461C502.858 171.571 500.637 171.756 498.693 171.016L474.535 161.853L466.298 166.388C462.04 168.702 457.319 169.998 452.506 169.998C447.693 169.998 442.973 168.795 438.715 166.388C430.107 161.668 424.646 153.43 423.721 143.804L422.425 130.105C422.055 125.662 418.63 122.145 414.187 121.59L393.824 119.368C388.456 118.72 381.514 114.093 381.514 108.632V102.06C381.514 101.042 384.013 100.116 383.365 99.3757V97.8023C382.069 96.3213 380.403 96.0437 378.83 97.1544L365.779 106.04C363.65 107.521 362.354 109.742 361.799 112.241C361.336 114.833 361.984 117.425 363.373 119.553L366.149 123.626C368.741 127.421 367.815 132.419 364.206 135.103L351.895 143.989C349.859 145.47 347.175 145.47 345.139 143.989C343.658 142.878 342.825 141.212 342.825 139.453L325.146 142.508C322.092 143.063 319.778 145.562 319.407 148.617C319.222 150.098 319.593 151.671 320.333 153.06L320.796 153.708C323.85 158.706 322.739 165.277 318.112 168.887L314.409 171.849C311.447 174.163 307.375 174.996 303.765 173.885L247.582 156.762C242.399 155.189 238.419 151.023 237.03 145.748L230.274 119.461C229.533 116.406 226.849 114.185 223.794 113.907L201.766 111.964C199.359 111.686 197.138 112.797 195.842 114.833C194.546 116.869 194.453 119.368 195.657 121.497L197.971 125.57C200.007 129.272 200.099 133.715 198.156 137.51L188.9 155.374C187.326 158.335 188.345 161.853 191.121 163.611L194.639 165.833C196.397 166.943 197.693 168.517 198.526 170.368C199.174 169.905 199.914 169.628 200.747 169.813L218.611 174.441C219.537 174.718 220.185 175.366 220.462 176.292L227.219 205.448L242.306 220.072C245.175 222.849 245.268 227.292 242.584 230.253C240.27 232.753 236.197 233.308 233.328 231.549L232.495 231.272L239.9 244.693C243.88 251.634 247.027 259.502 247.675 267.555L252.21 321.423L256.838 368.536C256.838 369.091 257.393 369.554 257.856 369.831L258.411 370.294C258.411 370.294 259.244 370.572 259.707 370.294C260.17 370.109 260.448 369.646 260.54 369.184L265.446 349.839C266.094 347.247 268.13 345.304 270.907 344.841C273.498 344.378 276.183 345.581 277.571 347.895L286.827 362.427C288.4 364.926 288.215 368.073 286.271 370.387L283.865 373.256C283.402 373.812 283.31 374.552 283.68 375.107L289.511 384.641C289.881 385.289 290.714 385.567 291.455 385.289L299.785 382.419C300.34 382.234 300.896 382.234 301.451 382.234C306.912 382.234 312.558 389.084 319.5 404.356L319.87 405.189C328.571 423.423 344.028 454.337 349.119 461.65C354.117 458.965 361.059 457.299 366.982 457.299C368.186 457.299 369.389 457.299 370.5 457.577C372.351 457.855 374.295 457.392 375.868 456.374L381.884 452.301C382.902 451.838 383.365 451.19 383.273 450.357L377.627 406.762C377.349 404.634 378.089 402.505 379.663 401.024L397.156 384.548C397.712 384.086 397.804 383.345 397.527 382.79L394.565 376.681C393.176 373.812 394.009 370.665 396.509 368.813L400.211 367.61C401.414 366.685 402.803 368.443 404.283 368.443H409.652C410.115 368.443 410.577 366.037 410.855 365.666C411.133 365.296 411.318 363.167 411.225 362.705L410.115 353.356C409.837 351.227 410.67 349.006 412.244 347.525C413.817 346.044 416.038 345.396 418.075 345.766L417.427 345.581Z" fill="#FE4D57"/>
<path d="M727.237 496.358L736.771 491.36C738.622 490.342 741.121 490.619 742.787 491.915L752.228 499.135C752.228 499.135 752.413 499.227 752.506 499.227L760.373 498.024L760.836 480.993C760.836 478.957 761.206 476.828 761.669 474.792C762.502 471.182 763.983 467.48 766.204 462.852C767.871 459.52 767.5 455.632 765.371 452.67C756.671 440.453 756.486 437.953 756.486 436.843V435.917C756.301 433.511 756.671 431.197 757.319 428.883L758.244 426.106C755.19 422.126 754.727 416.572 757.134 412.222V408.612C757.134 408.612 757.226 408.52 757.134 408.427H756.949C754.635 409.26 752.043 408.983 749.914 407.872C747.785 406.669 746.212 404.632 745.656 402.133C745.101 399.634 745.656 397.135 747.23 395.099L753.061 387.602C753.339 382.326 755.653 377.143 759.633 373.625L768.796 365.202C769.629 364.462 770.092 363.351 770.092 362.241C770.092 361.13 769.536 360.019 768.703 359.371C766.204 357.243 765.001 353.91 765.649 350.671C765.649 350.393 765.834 350.208 765.927 349.93L768.241 345.58C768.518 345.025 768.518 344.377 768.241 343.821C767.963 343.266 767.5 342.896 766.852 342.711C766.112 342.526 765.556 342.155 765.186 341.508L760.096 332.992C760.096 332.992 759.17 332.622 758.8 332.437L751.395 327.624C749.914 326.698 748.896 325.125 748.618 323.366C748.341 321.608 748.896 319.849 750.099 318.461L753.339 314.851C753.339 314.851 753.617 314.295 753.524 314.018L751.95 306.428C751.858 305.965 751.395 305.78 750.932 305.78L749.174 306.243C748.063 306.428 746.952 305.41 746.489 304.392C746.212 303.651 745.564 303.466 744.823 303.466C743.898 303.466 743.342 303.466 742.972 304.114L737.049 313.74C735.197 316.239 732.05 317.257 729.459 316.147L728.44 315.776C726.219 314.758 724.831 312.629 724.831 310.13V304.854C724.923 304.299 724.553 304.021 724.276 303.929C723.905 303.744 723.443 303.929 723.165 304.206L721.036 306.428C719.37 308.187 716.686 308.742 714.464 307.909L711.78 306.891C711.317 306.706 710.854 306.891 710.577 307.261L710.114 309.02C709.003 310.593 707.337 312.814 705.486 312.814H705.209C703.357 312.814 701.784 310.963 700.581 309.667L687.9 294.951C687.9 294.951 687.345 294.303 686.974 294.303L678.644 295.506C676.423 295.876 674.109 294.858 672.813 293.099L669.666 288.842C669.666 288.842 669.203 288.472 668.925 288.472L645.786 287.083C645.231 287.083 644.768 287.453 644.675 288.009L644.398 289.953C644.398 289.953 644.398 290.508 644.675 290.786L647.544 293.84C648.655 295.136 649.303 296.802 649.118 298.468C648.933 300.134 648.1 301.707 646.711 302.818L643.102 305.595C641.713 306.613 640.047 307.076 638.381 306.706C636.715 306.428 635.234 305.41 634.309 304.021L633.568 302.818C633.568 302.818 633.105 303.836 632.828 303.836L620.98 303.651C620.517 303.651 620.147 302.54 619.962 302.911L617 308.927C616.63 309.668 616.075 309.76 615.334 309.945C614.594 310.13 613.761 309.76 613.205 309.297L612.28 308.464C612.28 308.464 611.632 308.187 611.447 308.187C611.262 308.187 610.984 308.372 610.799 308.649C607.282 315.499 603.394 322.811 601.45 326.606L602.376 327.254C603.024 327.716 603.487 328.457 603.487 329.29L604.598 360.575C604.598 361.13 604.412 361.593 604.135 361.963L604.69 382.233C604.968 387.046 605.893 388.25 605.893 388.25L608.3 389.638C610.614 391.026 611.817 393.525 611.539 396.21C611.262 397.968 610.429 399.449 609.04 400.56L587.844 417.313C586.271 418.516 585.53 420.553 585.901 422.311C587.567 421.756 591.269 420.367 599.507 416.85C601.821 415.832 604.598 415.925 606.911 417.22C609.225 418.516 610.799 420.645 611.262 423.237L612.372 429.901C613.205 434.436 610.799 438.787 606.634 440.638C605.06 441.286 604.042 442.489 603.764 443.97L602.561 451.745C602.469 452.485 602.561 453.226 603.117 453.873C603.579 454.521 604.227 454.892 604.968 454.984C608.115 455.447 610.429 457.946 610.799 461.093L611.076 463.87L625.053 459.057C625.608 458.872 626.256 458.779 626.904 458.779C629.033 458.779 630.977 459.982 631.902 461.926L634.586 467.295C634.586 467.295 634.864 467.572 635.049 467.572C635.234 467.572 635.419 467.572 635.512 467.295L644.213 453.503C645.323 451.652 647.544 450.634 649.766 450.912L667.815 453.596C670.777 454.059 672.906 456.743 672.535 459.705L671.425 470.256C671.425 470.256 671.425 470.534 671.61 470.627C671.61 470.719 671.795 470.812 671.98 470.812H673.831C675.775 470.997 677.441 472.108 678.367 473.774C679.292 475.44 679.385 477.476 678.459 479.142L662.539 509.779C662.539 509.779 662.354 510.149 662.632 510.427C662.724 510.519 663.002 510.704 663.28 510.427L668.185 507.557C669.759 506.632 671.702 506.539 673.368 507.28C675.034 508.02 676.238 509.501 676.515 511.352L679.662 527.365C679.662 527.365 679.847 527.643 679.94 527.735C679.94 527.735 680.125 527.828 680.403 527.735L688.64 525.421C688.64 525.421 689.196 524.773 689.658 524.681C689.936 524.588 690.121 524.496 690.399 524.496C690.584 524.496 690.584 524.681 690.769 524.681L696.138 522.922C696.138 522.922 695.305 522.644 695.305 522.367V509.038C695.305 507.28 697.248 505.706 698.637 504.688C699.932 503.67 702.709 503.207 704.376 503.577L717.704 506.447C719.37 506.817 720.851 507.928 721.591 509.409L725.201 516.536C725.201 516.536 725.386 516.813 725.571 516.813C725.664 516.813 725.849 516.813 725.941 516.813C726.127 516.721 726.219 516.443 726.219 516.258L723.998 502.096C723.628 499.69 724.831 497.376 726.96 496.265L727.237 496.358Z" fill="#F3F3F3"/>
<path d="M560.25 491.268L565.526 489.417C567.84 488.584 570.524 489.417 572.005 491.453L574.689 495.341C574.689 495.341 574.967 495.526 575.06 495.526H575.245C575.522 495.526 575.615 495.341 575.615 495.063L576.263 489.972C576.54 488.121 577.651 486.547 579.317 485.714C580.891 484.881 582.927 484.881 584.501 485.714L590.147 488.769C590.147 488.769 590.61 488.769 590.702 488.769C590.702 488.769 590.887 488.584 590.98 488.399L591.443 482.475C591.628 480.624 592.553 479.05 594.127 478.125C595.7 477.199 597.551 477.014 599.217 477.754C599.31 477.754 599.495 477.754 599.588 477.754C599.68 477.754 599.958 477.754 600.05 477.477L604.03 468.314C604.493 467.203 605.419 466.37 606.437 465.814L605.974 461.649C605.882 460.816 605.234 460.168 604.493 460.076C602.364 459.798 600.606 458.687 599.31 456.929C598.014 455.263 597.551 453.134 597.829 451.005L599.032 443.23C599.495 440.083 601.624 437.399 604.586 436.103C606.9 435.085 608.103 433.049 607.733 430.827L606.622 424.163C606.437 423.145 605.789 422.219 604.864 421.757C603.938 421.294 602.827 421.201 601.902 421.572C588.388 427.31 586.167 427.865 585.056 427.865C584.686 427.865 584.408 427.865 584.223 427.68C582.835 427.217 582.187 425.922 581.816 424.904C580.243 420.924 581.631 416.111 585.149 413.334L606.344 396.581C606.344 396.581 606.9 395.933 606.9 395.563C606.9 394.915 606.715 394.359 606.159 393.989L603.568 392.508C602.735 391.953 600.421 390.472 600.05 382.419L599.495 363.445L595.978 367.61C593.756 370.202 590.424 371.775 587 371.775C585.148 371.775 583.482 371.405 581.816 370.572L579.965 369.646C575.43 367.425 573.209 362.241 574.782 357.428L576.448 352.338C576.448 352.338 576.448 351.967 576.355 351.782C576.355 351.782 576.078 351.597 575.8 351.69L573.949 352.338C571.727 353.171 568.951 352.523 567.285 350.764C565.249 348.728 564.786 345.488 566.267 342.989C567.192 341.416 567.377 339.842 566.729 338.269L566.359 337.343C565.804 335.862 564.601 334.752 563.12 334.381C561.639 333.919 559.973 334.196 558.769 335.214L555.715 337.528C555.715 337.528 555.345 337.806 555.16 337.899C553.864 338.454 552.29 338.361 550.995 337.621C549.699 336.88 548.773 335.677 548.495 334.196L547.292 331.142C546.737 328.55 544.886 326.607 542.572 326.514L537.203 325.959C537.203 325.959 536.555 326.514 536.37 326.792L535.074 329.383C535.074 329.383 534.982 330.216 535.167 330.494C538.314 333.919 538.221 339.102 534.982 342.342L534.241 343.822C533.131 344.933 531.742 346.229 530.354 346.229C530.354 346.229 529.984 345.488 529.799 345.488C528.225 345.488 526.652 344.285 525.634 342.989C524.801 341.879 523.597 341.231 522.486 341.694C521.005 342.249 520.173 343.452 520.543 344.748C521.098 346.969 520.635 349.376 519.339 351.227L517.766 353.541C516.563 355.3 514.434 356.04 512.398 355.485C510.361 354.929 508.973 353.171 508.788 351.042L508.603 348.358C508.51 346.599 507.307 343.36 506.104 342.897C506.104 342.897 505.919 342.897 505.826 342.897L506.566 345.674C506.844 346.599 506.937 347.802 506.659 348.913L506.289 350.487C505.826 352.523 504.438 354.281 502.401 355.022C500.458 355.762 498.236 355.485 496.57 354.281L493.146 351.782C490.646 350.024 487.037 350.301 484.908 352.523L478.243 359.465C475.929 361.871 475.93 365.666 478.151 368.073C479.817 369.924 482.316 370.664 484.723 369.831C487.407 368.906 490.091 369.091 492.405 370.294C494.719 371.497 496.385 373.441 497.125 375.94L498.514 380.383C499.347 382.882 499.069 385.659 497.773 388.065C496.478 390.472 494.256 392.138 491.665 392.786L481.298 395.84C476.578 397.044 471.672 396.396 467.414 393.989L464.823 392.508L462.879 404.818C462.416 407.41 460.472 409.539 457.973 410.187L440.85 414.537C438.351 415.185 435.482 414.259 433.908 412.131L431.502 409.076C431.502 409.076 430.668 408.428 430.206 408.428C429.465 408.428 429.002 408.798 428.817 409.261C427.892 410.927 426.411 412.131 424.56 412.593C422.801 413.056 420.765 412.686 419.191 411.668L415.952 409.539C415.304 409.076 414.286 409.261 413.73 409.909L405.863 420.553C405.863 420.553 405.493 421.479 405.585 421.942L409.565 435.363C410.306 437.862 412.157 439.898 414.563 440.916C416.97 441.934 419.747 441.749 421.968 440.453L428.355 436.936C429.373 436.381 430.484 436.103 431.594 436.103C433.816 436.103 435.852 437.214 437.055 438.972L442.794 447.21C444.09 449.061 444.367 451.468 443.534 453.504L432.52 480.809C431.409 483.586 432.149 486.825 434.278 488.861L446.033 499.876C448.255 501.912 448.81 505.244 447.329 507.929L437.888 525.607C438.721 526.348 440.017 527.273 442.053 528.662C442.238 528.754 442.516 528.754 442.701 528.662L452.235 520.609C455.196 518.11 458.991 516.722 462.879 516.722C465.47 516.722 467.97 517.37 470.284 518.48L480.465 523.571C484.26 525.515 489.165 524.867 492.405 522.09C492.59 521.905 492.683 521.627 492.498 521.442L491.757 520.054C491.017 518.758 490.831 517.184 491.294 515.703C491.757 514.222 492.683 513.019 494.071 512.371L517.581 500.154C517.581 500.154 517.951 499.783 517.858 499.506L516.007 494.415C515.452 492.934 515.545 491.175 516.378 489.787C517.118 488.399 518.507 487.38 520.08 487.01L525.078 485.9C527.114 485.437 529.428 486.27 530.724 487.936L539.61 499.413C542.201 502.653 545.996 504.504 550.069 504.504C552.29 504.504 554.419 503.948 556.363 502.93C556.826 502.653 556.826 502.375 556.826 502.282L556.178 497.007C555.9 494.415 557.381 491.916 559.88 491.083L560.25 491.268Z" fill="#F3F3F3"/>
<path d="M145.581 198.135C148.45 196.747 152.06 197.209 154.466 199.246L160.575 204.522C160.575 204.522 161.408 204.984 161.778 204.984C162.149 204.984 162.519 204.799 162.704 204.799C163.074 204.614 163.815 204.059 163.722 202.948C163.444 199.616 164.555 196.562 166.777 194.34C168.998 192.211 172.052 191.101 175.107 191.378L179.365 191.749C180.938 191.841 182.604 191.193 183.53 189.897L192.508 177.402C193.341 176.291 193.619 174.903 193.341 173.514C193.063 172.126 192.23 170.923 191.119 170.182L187.602 167.961C182.604 164.814 180.845 158.335 183.622 153.059L192.878 135.195C194.081 132.974 193.989 130.29 192.785 128.161L190.471 124.088C188.343 120.293 188.528 115.851 190.842 112.241C193.156 108.631 197.136 106.687 201.486 107.058L223.515 109.001C228.791 109.464 233.141 113.259 234.529 118.35L241.286 144.636C242.212 148.154 244.896 151.023 248.413 152.041L304.596 169.164C306.632 169.812 308.854 169.349 310.612 168.054L314.315 165.092C316.906 163.055 317.554 159.353 315.796 156.576L315.425 155.928C314.037 153.614 313.389 150.93 313.759 148.339C314.407 143.063 318.48 138.712 323.663 137.787L343.656 134.362L344.119 132.881C344.766 130.938 344.859 128.901 344.304 126.958L343.933 125.384C343.933 125.384 343.563 124.736 343.286 124.551C342.915 124.366 342.545 124.458 342.175 124.644L339.583 126.31C335.696 128.809 330.605 128.994 326.533 126.865L320.979 123.903C319.313 123.07 317.925 121.774 316.814 120.293L305.152 103.91C303.671 101.874 303.023 99.3752 303.208 96.8761V96.043C303.485 93.2663 304.874 90.7672 307.28 89.2863C309.594 87.8054 312.464 87.4351 315.148 88.3607L340.231 97.2463C342.73 98.1719 345.6 97.4314 347.358 95.3951L351.616 90.5821C351.616 90.5821 352.079 89.6565 351.986 89.1012C351.986 88.5458 351.616 88.083 351.153 87.8979L341.249 81.9742C339.028 80.6784 337.547 78.3644 337.269 75.7728C337.084 73.1811 338.102 70.5894 340.139 68.9234L358.187 54.2066C358.743 53.7439 359.02 53.1885 359.113 52.448C359.113 51.8001 358.928 51.1522 358.373 50.5969L357.447 49.6712C355.781 48.0052 354.855 45.6913 355.041 43.2847C355.226 40.8782 356.336 38.6568 358.28 37.2684L360.039 35.88C360.779 35.3247 361.612 34.8619 362.538 34.4917L370.22 31.9926C370.22 31.9926 370.868 31.5298 370.96 31.2521C371.053 30.8819 370.96 30.5116 370.96 30.234C370.035 28.6605 369.942 26.7168 370.683 25.0507C371.331 23.3847 372.719 22.0889 374.478 21.5335C375.311 21.2558 376.051 20.6079 376.421 19.7749L381.327 8.66791C382.253 6.72418 382.16 4.50272 381.049 2.74411L366.518 -20.488L362.723 -25.0234C361.612 -26.3193 361.334 -27.9853 361.797 -29.6514C362.26 -31.3174 363.556 -32.6132 365.222 -33.076C366.61 -33.5388 367.258 -34.0941 367.258 -34.3718C367.443 -35.7602 363.926 -39.37 360.131 -41.7765L358.743 -42.6095C353.097 -46.1267 348.932 -51.4951 346.895 -57.7891L346.247 -59.7328C344.766 -57.4189 342.36 -55.7528 339.491 -55.1049C336.159 -54.3645 332.641 -55.1049 329.957 -57.2337L299.69 -80.3733C299.69 -80.3733 298.95 -81.1138 298.857 -81.5766C297.932 -84.4459 296.081 -87.0375 293.674 -88.8887L288.769 -92.6836C288.306 -93.0539 287.565 -93.1464 287.01 -92.8687C286.455 -92.5911 286.084 -92.0358 285.992 -91.4804C285.899 -89.259 284.511 -87.4078 282.382 -86.5747C280.346 -85.7417 278.032 -86.2045 276.366 -87.6855L246.562 -115.175C243.415 -118.045 239.342 -119.618 235.085 -119.618C232.771 -119.618 230.642 -119.155 228.513 -118.23L220.738 -114.898C214.352 -112.213 206.762 -112.769 200.838 -116.379L190.657 -122.58C187.787 -124.339 184.27 -124.431 181.308 -122.95C178.346 -121.469 176.31 -118.6 176.032 -115.268L175.199 -106.752C174.829 -102.495 172.237 -98.9776 168.35 -97.219C164.555 -95.4604 160.02 -95.9232 156.688 -98.4223L121.423 -124.154C117.721 -126.838 113.555 -128.781 109.113 -129.985L89.3977 -134.983C83.1962 -136.556 76.6247 -136.464 70.5158 -134.705L-46.9409 -100.829C-50.6432 -99.7181 -53.6051 -97.0339 -54.9934 -93.4241C-56.3818 -89.8143 -56.0116 -85.8343 -53.8828 -82.5947L-29.8175 -44.5532C-27.6887 -41.2211 -27.1334 -37.056 -28.1515 -33.2611C-29.2622 -29.4662 -31.8538 -26.2266 -35.4636 -24.468C-39.5362 -22.4317 -42.313 -18.9146 -43.2386 -14.6569V-14.194C-43.6089 -12.8057 -42.8684 -11.5099 -41.48 -11.1397C-34.0753 -8.8257 -29.2622 -1.97635 -29.8175 5.52089C-29.8175 6.35391 -29.9101 7.09441 -30.0952 7.92743C-30.4654 10.6116 -32.039 12.9255 -34.3529 14.3139C-36.6669 15.7023 -39.6287 15.9799 -42.1278 14.9618L-60.547 7.92743C-62.4907 7.18695 -64.8973 7.83485 -66.1931 9.5009C-68.1368 11.9074 -71.0061 13.2958 -73.9679 13.2958C-75.2638 13.2958 -76.5596 13.0181 -77.7629 12.5553L-79.1512 11.9999C-79.1512 11.9999 -79.3363 12.0925 -79.4289 12.1851L-86.0006 14.4065C-86.5559 14.5916 -87.0187 15.0544 -87.2964 15.7023C-87.4815 16.2576 -87.4815 16.9056 -87.1112 17.4609L-85.5378 20.0526C-85.075 20.793 -84.1493 21.1632 -83.3163 20.9781L-81.7428 20.6079C-79.614 20.1451 -77.1149 20.7005 -75.3563 22.1814C-73.5977 23.6624 -72.5796 25.8837 -72.6721 28.1977L-72.8573 33.2884C-73.0424 37.8238 -75.4489 41.8963 -79.3364 44.1177L-83.9643 46.8019C-86.0006 48.0052 -87.0187 50.4117 -86.2782 52.7257L-84.2419 59.4825C-83.4089 62.1667 -81.0025 63.9252 -78.2257 63.9252C-77.6703 63.9252 -77.1149 63.9253 -76.5596 63.7402C-74.6158 63.2774 -72.487 63.7402 -70.9135 64.8509C-69.34 66.0541 -68.3219 67.9978 -68.3219 70.0341L-67.9517 87.9905C-67.9517 92.2482 -69.6177 96.4133 -72.6721 99.3751L-73.3201 99.9305C-74.801 101.319 -75.6341 103.263 -75.6341 105.299C-75.6341 107.335 -74.8935 109.279 -73.5051 110.76L-57.6777 126.958L-48.0516 138.25C-46.2929 140.286 -43.7939 141.489 -41.1097 141.489C-39.3511 141.489 -37.685 141.026 -36.2041 140.101L-28.9845 135.566C-27.5962 134.733 -26.0227 134.27 -24.3566 134.27C-20.5617 134.27 -17.1371 136.861 -16.1189 140.564L-15.1933 143.988C-14.823 145.192 -14.1752 146.302 -13.2496 147.135L-4.73426 155.003C-2.14262 157.409 1.83746 158.15 5.16956 156.669C7.85375 155.466 11.0007 155.373 13.7774 156.299L47.2837 168.239C50.4307 169.349 54.0404 168.979 56.8172 167.128C59.5014 165.277 61.26 164.629 62.7409 165.369C63.3888 165.74 63.8516 166.387 64.1292 167.128C64.3144 167.406 65.0548 168.239 67.2762 170.182C70.6083 173.052 75.7916 173.422 79.5865 170.923L81.7153 169.534C83.9367 168.053 86.4359 167.313 89.0275 167.313C93.1926 167.313 97.2652 169.257 99.7643 172.589L105.04 179.623C106.336 181.382 108.465 182.4 110.686 182.4C116.055 182.4 120.682 186.473 121.423 191.841L123.089 203.874C123.367 206.188 125.31 208.224 127.624 208.409L140.397 209.612C141.23 209.612 141.971 208.964 142.341 208.409C142.804 207.761 142.989 206.836 142.804 206.095C141.878 203.041 143.082 199.986 145.673 198.69L145.581 198.135Z" fill="#F3F3F3"/>
<path d="M594.124 -72.135C593.199 -70.6541 591.625 -69.6359 589.866 -69.3582C588.015 -69.0806 586.349 -69.6359 585.053 -70.8392C584.868 -71.0243 584.498 -70.9318 584.498 -70.9318C584.22 -70.8392 584.128 -70.6541 584.128 -70.3764C584.498 -63.9898 580.055 -58.5289 573.946 -57.7884L567.652 -57.048C563.21 -56.4927 558.582 -57.5108 554.787 -59.9173L543.124 -67.2294L527.112 -36.5L563.95 -12.3423C573.021 -6.78876 575.335 3.30016 575.335 13.9444V32.6411C575.335 37.2691 576.723 41.7119 573.299 44.8589C569.874 48.0058 567.56 48.7463 562.839 48.2836L551.177 46.3398H551.362C550.622 46.3398 550.437 47.6356 550.437 47.6356C550.344 47.8208 550.159 48.6538 550.437 49.2091C552.288 51.9859 552.658 55.5956 551.362 58.6501C550.066 61.7045 547.382 63.9259 544.143 64.5738L532.388 66.7952C531.74 66.8878 530.999 66.9803 530.259 66.9803C526.927 66.9803 523.78 65.4994 521.651 63.0003L517.763 58.465C516.375 56.8915 514.246 56.0584 512.117 56.3361C508.878 56.7989 506.471 59.6682 506.656 63.0003L506.841 66.425C507.026 69.1092 505.916 71.6083 503.972 73.4595C502.769 74.5702 502.029 76.1436 502.121 77.8096C502.121 79.4757 503.047 81.0492 504.342 82.0673L507.212 84.2888C511.84 87.806 512.858 94.4702 509.433 99.1907L506.194 103.633C504.157 106.318 503.694 109.835 504.898 112.982L506.286 116.684C507.397 119.646 506.749 123.071 504.713 125.385C502.676 127.699 499.344 128.809 496.29 128.069L490.644 126.681C488.515 126.218 486.201 126.773 484.535 128.254L483.702 128.995C482.313 130.29 481.481 132.141 481.573 133.993C481.573 135.936 482.499 137.695 483.887 138.898C486.571 141.212 487.96 144.637 487.682 148.154V148.987C487.312 152.597 485.183 155.744 482.036 157.503L479.814 158.706L499.992 166.388C500.455 166.573 501.103 166.573 501.566 166.296L509.248 161.668C510.451 160.927 511.932 160.557 513.506 160.742L520.262 161.483C523.78 161.853 526.371 164.815 526.371 168.332C526.371 168.98 526.649 169.535 527.112 169.905C527.574 170.276 528.13 170.368 528.685 170.183L529.889 169.813C532.388 168.98 535.257 169.813 537.016 171.664L548.956 184.622C549.326 185.085 549.974 185.27 550.622 185.177L564.413 182.401C566.356 182.03 568.3 182.401 569.874 183.604C570.707 182.586 572.28 182.308 573.391 183.141C574.779 184.159 592.828 195.914 607.823 205.54C607.823 205.54 608.008 205.54 608.1 205.54C608.748 205.263 609.396 205.263 610.044 205.54C610.692 205.17 611.062 204.43 611.062 203.597L608.748 174.811C608.563 172.682 609.396 170.646 610.877 169.165C612.358 167.684 614.394 167.036 616.616 167.314L628.648 168.61C629.481 168.61 630.037 168.239 630.407 167.777C630.87 167.221 631.055 166.481 630.87 165.833L630.129 163.056C630.037 162.593 629.667 162.13 629.296 161.853L608.193 147.876C606.157 146.488 604.953 144.267 604.953 141.767C604.953 139.268 606.249 137.14 608.378 135.844C609.674 135.103 611.155 134.548 612.636 134.548L655.676 137.325C656.509 137.325 657.157 137.047 657.527 136.492C657.99 135.844 657.989 135.103 657.712 134.363L631.703 75.8659C631.703 75.8659 631.61 75.3106 631.518 75.0329C630.777 74.2925 630.592 73.1817 631.055 72.2561C631.055 72.071 631.24 71.9785 631.333 71.8859C631.333 71.6082 631.333 71.238 631.425 70.8678L643.273 31.9932C643.273 31.9932 643.365 31.4379 643.273 31.1602L638.274 -31.8721C638.182 -33.353 638.46 -34.834 639.293 -36.1298L646.235 -47.5145C650.122 -53.901 649.659 -61.861 645.124 -67.7848L639.848 -74.7266C638.737 -76.2076 638.182 -77.9662 638.367 -79.8174L639.107 -86.389C639.385 -88.7955 640.866 -90.9244 642.995 -92.0351L653.824 -97.496C654.287 -97.7737 654.75 -98.2365 654.935 -98.7918L665.116 -132.483C665.301 -133.131 665.117 -133.872 664.746 -134.427L659.841 -140.721L656.971 -138.129C654.657 -136 651.603 -134.89 648.363 -134.89C645.587 -134.89 642.995 -135.723 640.773 -137.389L636.701 -140.351C635.961 -140.906 634.942 -140.998 634.109 -140.536C633.276 -140.073 632.814 -139.24 632.906 -138.222L633.091 -136.648C633.369 -134.149 632.443 -131.65 630.592 -129.891L594.309 -96.2928C590.144 -92.4979 589.681 -86.0188 593.199 -81.6685L594.217 -80.3727C595.79 -78.429 595.975 -75.5597 594.587 -73.4308L593.754 -72.135H594.124Z" fill="#F3F3F3"/>
<path d="M29.8047 -160.9L35.0804 -146.183C35.7284 -144.424 36.006 -142.573 35.8209 -140.722L35.173 -130.355L69.142 -140.167C76.0839 -142.203 83.6736 -142.295 90.708 -140.537L110.331 -135.539C115.421 -134.243 120.142 -132.021 124.399 -128.967L159.664 -103.236C161.608 -101.847 164.107 -101.57 166.328 -102.588C168.55 -103.606 169.938 -105.55 170.216 -107.956L171.049 -116.472C171.512 -121.562 174.566 -126.005 179.194 -128.227C183.729 -130.448 189.19 -130.263 193.448 -127.579L203.629 -121.377C208.165 -118.6 213.996 -118.23 218.902 -120.267L226.676 -123.599C229.361 -124.709 232.322 -125.357 235.192 -125.357C240.745 -125.357 246.021 -123.321 250.094 -119.526L279.898 -92.0362C279.898 -92.0362 280.453 -91.8511 280.546 -91.9437C280.731 -91.9437 280.916 -92.2213 280.916 -92.499C281.101 -94.9981 282.582 -97.2195 284.896 -98.2376C287.117 -99.2558 289.894 -98.9781 291.838 -97.4046L296.743 -93.6097C299.705 -91.2957 302.019 -88.1488 303.315 -84.6315L333.026 -61.9547C334.507 -60.844 336.451 -60.3812 338.302 -60.7514C340.153 -61.1217 341.727 -62.3249 342.652 -64.0835C343.485 -65.657 345.151 -66.4901 346.817 -66.3975C348.576 -66.2124 349.964 -65.1017 350.52 -63.4356L351.63 -60.011C353.204 -54.8277 356.721 -50.4775 361.256 -47.6082L362.645 -46.7752C365.051 -45.2942 372.826 -40.0184 372.178 -34.4649C371.993 -32.7063 370.883 -30.2997 366.625 -28.9114L370.512 -24.0983L385.229 -0.58844C387.265 2.65109 387.543 6.72366 385.877 10.2409L380.971 21.3479C380.046 23.5693 378.195 25.1427 375.881 25.8832C375.51 25.9758 375.325 26.2535 375.325 26.4386C375.325 26.6237 375.233 26.9014 375.325 27.2716C376.251 28.9377 376.343 30.8814 375.696 32.64C375.048 34.3986 373.567 35.787 371.808 36.3423L364.126 38.8414C364.126 38.8414 363.385 39.1191 363.108 39.3968L361.349 40.7851C360.609 41.3405 360.146 42.1735 360.146 43.0991C360.146 44.0247 360.423 44.9503 361.071 45.5982L361.997 46.5238C363.478 48.0047 364.311 50.1336 364.218 52.1699C364.126 54.2987 363.108 56.2424 361.441 57.6308L343.393 72.3476C342.652 72.9955 342.282 73.8285 342.374 74.8466C342.467 75.7722 343.022 76.6053 343.855 77.0681L353.759 83.0843C355.518 84.1025 356.721 85.8611 356.999 87.8974C357.276 89.9337 356.721 91.97 355.333 93.5435L351.075 98.3565C348.021 101.874 342.93 103.17 338.487 101.596L313.404 92.6179C312.293 92.2477 311.09 92.3402 310.072 92.9881C309.054 93.636 308.406 94.7467 308.406 95.8575V96.6904C308.22 97.9863 308.591 99.2821 309.424 100.393L321.086 116.776C321.734 117.609 322.567 118.349 323.493 118.904L329.139 121.866C331.545 123.162 334.692 123.07 337.006 121.496L339.598 119.83C341.264 118.719 343.485 118.534 345.244 119.275C347.095 120.015 348.483 121.589 349.039 123.532L349.409 125.106C350.149 128.068 350.057 131.03 349.039 133.899V134.177C349.039 134.177 349.409 134.917 349.502 135.38C349.594 136.028 349.502 136.676 349.131 137.231C348.761 137.694 348.206 138.064 347.65 138.157L347.465 138.805C347.465 138.805 347.465 139.452 347.743 139.545C347.743 139.545 348.206 139.823 348.576 139.545L360.886 130.659C362.275 129.641 362.645 127.605 361.627 126.217L358.85 122.144C356.628 118.812 355.795 114.924 356.536 111.037C357.276 107.15 359.498 103.725 362.83 101.596L376.158 92.7104C377.639 91.6923 379.398 91.2295 381.156 91.2295C383.841 91.2295 386.247 92.3402 388.006 94.284L388.746 95.8575C390.227 97.5235 390.32 99.6523 390.32 101.966V108.538C390.32 111.407 393.189 113.906 396.058 114.184L414.107 116.405C420.957 117.238 426.325 122.607 426.973 129.456L428.361 143.155C429.102 150.93 433.637 157.779 440.394 161.481C447.613 165.461 456.407 165.554 463.441 161.667L479.824 152.596C481.49 151.67 482.601 150.004 482.786 148.153V147.32C483.063 145.469 482.323 143.618 480.842 142.414C478.25 140.285 476.769 137.046 476.677 133.714C476.677 130.382 477.973 127.142 480.472 124.828L481.305 124.088C484.174 121.404 488.247 120.385 492.042 121.311L497.688 122.699C498.983 122.977 500.279 122.607 501.112 121.589C501.945 120.571 502.223 119.275 501.76 117.979L500.372 114.277C498.613 109.556 499.354 104.28 502.315 100.208L505.648 95.7649C507.499 93.2658 506.943 89.8412 504.537 87.99L501.667 85.7685C499.076 83.8248 497.595 80.9555 497.41 77.716C497.225 74.569 498.521 71.422 500.927 69.2932C501.76 68.5527 502.223 67.442 502.13 66.3313L501.945 62.9066C501.575 56.9828 505.925 51.7071 511.849 50.9666C515.829 50.5038 519.531 51.9847 522.03 54.8541L525.918 59.3894C527.306 61.0555 529.62 61.8885 531.842 61.5183L543.596 59.2968C545.17 59.0191 546.466 58.001 547.021 56.5201C547.669 55.0392 547.484 53.3731 546.558 52.0773C545.263 50.041 545.078 47.5419 546.373 45.5056C547.577 43.4693 549.705 42.2661 552.112 42.5438L564.144 43.747C567.384 44.0247 570.346 43.0066 572.753 40.8777C575.159 38.7489 575.714 35.6019 575.714 32.4549V13.7581C575.714 4.87247 571.827 -3.73547 564.237 -8.3634L524.159 -35.3904L510.09 -39.0928C509.535 -39.0928 509.072 -36.5938 508.887 -36.2235L506.666 -31.4104C506.296 -30.7625 506.388 -29.5593 507.036 -29.0965L508.239 -28.0783C509.905 -26.8751 510.923 -24.9313 510.923 -22.8025C510.923 -20.7662 510.09 -18.7299 508.424 -17.5266L503.519 -13.7318C503.519 -13.7318 502.871 -12.8062 503.056 -12.2508L506.11 -1.23642C506.11 -1.23642 506.573 -0.49588 506.943 -0.310791L519.346 4.03949C522.215 5.05762 523.974 7.83435 523.604 10.7962L522.215 24.1246C522.03 25.8833 521.198 27.3642 519.809 28.4749C518.513 29.493 516.755 30.0483 515.089 29.8632L505.185 28.7526C505.185 28.7526 504.444 28.9377 504.167 29.2153C503.889 29.493 503.796 29.9558 503.796 30.4186L506.388 43.3768C506.943 46.2461 505.555 49.1154 502.963 50.4112C501.945 50.9666 500.927 51.1517 499.816 51.1517C497.595 51.1517 495.651 50.041 494.448 48.2824L488.524 39.0266C488.154 38.5638 487.506 38.286 487.043 38.4712L485.747 38.8414C485.1 39.0265 484.452 39.1191 483.804 39.1191C481.582 39.1191 479.546 38.0084 478.436 36.1572C476.769 33.473 475.566 33.8433 475.011 32.5474C473.715 32.5474 471.309 25.8832 468.347 35.1391H467.976C465.385 35.1391 462.978 31.3442 461.96 29.1228L458.443 20.5149C457.147 17.6456 458.073 13.6656 460.664 11.9069L467.051 7.27902C467.606 6.90878 467.791 5.98322 467.513 5.3353L457.795 -11.9732C456.869 -13.6392 456.684 -15.6755 457.425 -17.5266C458.165 -19.2853 459.646 -20.7662 461.497 -21.3216C462.145 -21.5067 462.608 -22.3397 462.423 -22.9876L461.219 -27.2453C461.034 -27.8007 460.664 -28.1709 460.109 -28.1709L451.779 -29.2816C449.28 -29.6519 447.151 -31.4104 446.41 -33.817L443.078 -45.0165C442.893 -45.4793 442.523 -45.8495 442.06 -45.9421L424.196 -48.9965C423.363 -49.1817 422.808 -49.6445 422.437 -50.3849C419.29 -50.8477 416.236 -52.051 413.645 -53.9947L400.409 -64.0835C396.429 -67.0454 393.93 -71.5808 393.467 -76.4864C393.189 -78.8929 394.763 -81.1143 397.077 -81.6697C398.187 -81.9473 399.113 -82.7804 399.576 -83.7985C400.038 -84.9092 400.038 -86.0199 399.576 -87.1306L398.372 -89.6297C396.614 -93.2395 397.447 -97.5897 400.409 -100.181L422.067 -119.434C425.307 -122.303 426.51 -126.931 425.122 -131.003C424.104 -133.873 421.975 -136.187 419.105 -137.39C416.329 -138.593 413.089 -138.501 410.312 -137.205L388.284 -126.931C384.396 -125.172 379.768 -125.357 376.158 -127.486L371.345 -130.355C368.846 -131.836 365.699 -132.114 362.922 -131.188L349.872 -126.746C349.039 -126.468 348.391 -125.728 348.206 -124.802C348.113 -123.876 348.483 -123.043 349.224 -122.488C351.168 -121.1 352.371 -118.878 352.556 -116.564C352.741 -114.158 351.908 -111.844 350.242 -110.178L345.707 -105.642C344.133 -104.069 342.097 -103.236 339.968 -103.236C338.672 -103.236 337.376 -103.513 336.266 -104.161L312.108 -116.564C307.665 -118.878 305.166 -123.691 305.814 -128.597L306.462 -133.225C306.647 -134.243 306.277 -135.261 305.536 -135.909C304.796 -136.649 303.778 -136.927 302.759 -136.742H302.297C301.741 -136.557 301.186 -136.464 300.631 -136.464C296.743 -136.464 293.319 -138.963 292.208 -142.666L290.357 -148.497C289.616 -150.903 287.672 -152.755 285.266 -153.402L273.881 -156.457C270.179 -157.475 267.495 -160.437 266.847 -164.232C266.291 -168.027 267.865 -171.729 271.104 -173.765L272.771 -174.876C274.899 -176.264 276.103 -178.856 275.732 -181.355C275.732 -182.003 275.732 -182.929 276.288 -183.577L285.173 -194.406C286.654 -196.164 287.21 -198.478 286.654 -200.792C285.914 -203.847 283.6 -206.161 280.638 -207.086L274.807 -208.567C272.4 -209.308 269.716 -209.493 267.68 -208.012C265.551 -206.438 262.867 -205.698 260.183 -205.698H252.315C248.705 -205.698 245.281 -203.939 242.967 -201.163L237.691 -195.331C235.562 -192.74 232.415 -190.981 229.176 -190.981C228.435 -190.981 227.787 -190.981 227.139 -190.981C224.177 -191.537 221.586 -193.11 219.92 -195.609C218.254 -198.108 217.606 -201.07 218.161 -204.032C219.087 -208.752 218.994 -210.233 218.994 -210.604C218.624 -211.159 216.125 -214.306 201.13 -228.467C197.058 -232.262 196.873 -238.741 200.575 -242.906C202.056 -244.48 202.426 -246.794 201.593 -248.738L184.933 -289.371L163.089 -290.296C159.479 -290.482 156.147 -292.055 153.833 -294.739L152.815 -293.906C147.446 -289.649 144.577 -282.707 145.503 -275.857L147.632 -259.474C148.094 -255.587 146.243 -251.885 142.818 -249.941L141.06 -249.015C138.098 -247.349 134.303 -247.534 131.434 -249.386C128.842 -251.052 125.788 -251.977 122.641 -251.977C119.031 -251.977 115.514 -250.774 112.644 -248.553L74.4178 -218.749C68.494 -214.121 64.2364 -207.642 62.4778 -200.33L62.015 -198.478C61.3671 -195.794 59.701 -193.48 57.4796 -191.907L52.0187 -188.019C48.9642 -185.798 44.8916 -185.243 41.2818 -186.538C39.5232 -187.186 37.672 -186.909 36.1911 -185.705C34.7102 -184.595 33.9698 -182.836 34.2475 -180.985L34.9879 -174.691C35.3582 -171.637 34.34 -168.767 32.2112 -166.546C30.7302 -165.065 30.2674 -162.936 31.0079 -160.992L29.8047 -160.9Z" fill="#F3F3F3"/>
<path d="M518.701 -116.379C520.552 -118.97 521.015 -122.117 520.182 -125.079L519.997 -125.635C519.071 -128.782 516.757 -131.188 513.61 -132.299C510.556 -133.41 507.038 -132.947 504.447 -131.096L492.322 -122.95C486.676 -119.063 482.788 -112.676 482.788 -105.92V-74.2647C482.788 -69.0815 480.844 -64.1758 476.772 -61.0289L474.736 -59.0851C473.532 -58.1596 472.144 -57.6968 470.663 -57.6968C468.719 -57.6968 466.868 -58.6223 465.572 -60.1032C465.202 -60.566 464.462 -60.8437 463.906 -60.6586L434.473 -52.1433L442.34 -50.8474C444.747 -50.4771 446.69 -48.7186 447.431 -46.312L450.763 -35.1125C450.948 -34.6497 451.318 -34.1869 451.874 -34.1869L460.204 -33.0762C462.703 -32.7059 464.832 -30.9473 465.572 -28.4483L466.775 -24.1906C467.701 -20.8585 465.85 -17.2487 462.518 -16.2305C462.148 -16.138 461.87 -15.8603 461.685 -15.4901C461.5 -15.1198 461.592 -14.6571 461.685 -14.3794L471.403 2.92905C473.069 5.89091 472.144 9.50067 469.367 11.3518L462.981 15.7021C462.425 16.0723 462.24 16.8128 462.518 17.3681L465.942 24.7728C466.128 25.2356 466.683 25.5133 467.238 25.5133C469.83 25.3282 471.866 25.1431 473.44 25.1431C476.679 25.1431 477.42 25.6059 478.068 26.1612C478.53 26.624 478.901 27.457 478.993 28.105C479.086 28.3826 479.734 29.4933 482.14 33.3808C482.418 33.8436 483.066 34.1212 483.714 33.9361L485.009 33.5659C487.694 32.7328 490.841 33.8436 492.322 36.2501L498.338 45.5059C498.708 46.0613 499.449 46.2464 500.097 45.9687C500.837 45.5985 501.207 45.0431 501.022 44.3952L498.431 31.4371C498.06 29.4008 498.616 27.3645 500.004 25.791C501.392 24.2175 503.429 23.477 505.465 23.7547L515.184 24.8654C515.646 24.8654 515.924 24.8654 516.202 24.5877C516.479 24.4026 516.665 24.0323 516.665 23.6621L518.053 10.3337C518.053 9.68578 517.775 9.13048 517.127 8.94536L504.724 4.59511C502.781 3.85464 501.207 2.28113 500.652 0.244843L497.597 -10.7696C496.857 -13.2687 497.782 -15.9529 499.911 -17.6189L504.817 -21.4138C504.817 -21.4138 505.372 -22.0617 505.372 -22.5245C505.372 -22.9873 505.187 -23.3576 504.817 -23.6352L503.614 -24.4682C500.745 -26.5045 500.004 -30.2995 501.948 -33.2613L504.262 -36.7785C505.557 -38.7223 507.964 -39.9255 510.278 -39.6478L522.959 -38.352L539.064 -69.8219L514.813 -81.3917C510.926 -83.2429 508.057 -86.7601 506.946 -90.9252C505.835 -95.0903 506.668 -99.6257 509.26 -103.143L518.793 -116.471L518.701 -116.379Z" fill="#F3F3F3"/>
<path d="M612.273 672.682L619.955 658.891C621.713 655.744 625.323 653.985 628.841 654.633L631.71 655.096C632.728 655.281 633.746 655.004 634.487 654.356C635.32 653.708 635.782 652.782 635.782 651.764V648.617C636.06 644.545 639.114 641.12 643.094 640.472L646.056 640.009C648 639.639 649.203 637.88 648.926 635.937L648 630.291C647.26 625.848 650.129 621.59 654.572 620.479L668.733 617.147C670.399 616.777 671.51 615.203 671.418 613.537L669.659 586.788C669.474 584.474 670.307 582.16 671.88 580.494L688.356 562.26C689.281 561.242 689.466 559.854 689.004 558.558L688.448 557.077C686.875 553.189 688.355 548.654 691.965 546.433C693.354 545.599 694.002 543.934 693.446 542.36L689.559 530.698L682.339 532.734C680.858 533.197 679.192 532.919 677.896 532.086C676.601 531.253 675.583 529.865 675.305 528.384L672.158 512.371C672.158 512.371 671.973 512.001 671.88 512.001C671.788 512.001 671.51 512.001 671.418 512.001L666.512 514.87C664.383 516.166 661.606 515.796 659.848 514.037C657.997 512.278 657.534 509.594 658.737 507.373L674.657 476.736C674.657 476.736 674.657 476.366 674.657 476.181C674.657 476.181 674.472 475.903 674.194 475.903H672.343C670.769 475.718 669.381 475.07 668.456 473.959C667.437 472.756 666.975 471.368 667.16 469.887L668.27 459.613C668.27 459.613 668.085 461.094 667.808 461.001L649.759 460.723C649.759 460.723 649.388 458.317 649.296 458.502L640.595 470.535C639.485 472.293 637.633 472.849 635.597 472.756C633.561 472.756 631.802 471.275 630.877 469.516L628.193 464.056C628.193 464.056 627.822 463.685 627.545 463.778L609.496 469.887C609.496 469.887 609.218 470.072 609.218 470.164L605.238 479.328C604.312 481.364 602.276 482.752 600.055 482.752C599.314 482.752 598.574 482.567 597.926 482.29C597.648 482.197 597.371 482.29 597.278 482.29C597.278 482.29 597 482.475 597 482.66L596.537 488.583C596.352 490.527 595.334 492.193 593.668 493.119C592.002 494.044 589.966 494.044 588.3 493.119L582.654 490.064C582.654 490.064 582.284 490.064 582.098 490.064C582.006 490.064 581.821 490.25 581.821 490.435L581.173 495.525C580.895 497.839 579.229 499.691 576.915 500.246C574.694 500.801 572.287 499.968 570.992 498.024L568.307 494.23C568.307 494.23 567.937 493.952 567.659 494.045L562.383 495.896C562.383 495.896 562.013 496.173 562.013 496.451L562.661 501.727C562.939 504.041 561.828 506.262 559.699 507.28C556.923 508.761 553.868 509.594 550.721 509.594C545.075 509.594 539.799 507.003 536.282 502.56L527.304 491.083C527.304 491.083 527.026 490.897 526.841 490.897L521.75 492.008C521.75 492.008 521.473 492.193 521.38 492.286C521.288 492.378 521.288 492.564 521.38 492.749L523.231 497.839C524.25 500.524 523.046 503.485 520.547 504.781L497.037 516.999C497.037 516.999 496.852 517.184 496.76 517.277C496.76 517.462 496.76 517.554 496.76 517.739L497.5 519.128C498.796 521.442 498.24 524.311 496.204 526.07C493.335 528.569 489.633 529.957 485.838 529.957C483.339 529.957 480.932 529.402 478.711 528.291L468.529 523.2C464.549 521.257 459.459 521.812 456.034 524.681L446.5 532.734C444.649 534.307 441.78 534.493 439.743 533.104C438.17 532.086 437.059 531.16 436.041 530.42C435.856 530.883 435.856 531.438 436.041 531.808L440.947 540.416C441.317 541.064 441.965 541.342 442.705 541.157L451.591 539.491C455.201 538.935 458.348 540.879 459.273 544.119L461.958 552.912C462.143 553.56 462.791 553.282 463.531 553.282H481.765C488.152 553.282 493.52 559.113 493.89 565.5L494.353 572.627C494.631 575.959 493.428 579.383 491.114 581.882C488.8 584.289 485.56 585.77 482.228 585.77C481.673 585.77 481.117 586.14 480.839 586.603L471.399 602.153C471.399 602.153 471.676 602.43 471.861 602.616L476.119 606.41C478.896 608.91 482.598 610.113 486.393 609.743L501.85 608.354C504.349 608.169 506.848 609.002 508.607 610.668L511.569 613.445C513.883 615.666 513.605 619.369 511.014 621.22L506.293 624.552C506.293 624.552 505.645 626.681 504.905 628.717C504.072 631.309 504.905 634.271 507.126 636.029C509.81 638.251 511.106 641.583 510.551 645.007L510.088 647.969C510.181 650.931 511.661 653.708 514.161 655.374L534.338 669.35C536.837 671.109 540.169 671.479 543.039 670.276L544.797 669.535C547.667 668.332 550.999 668.517 553.683 670.091L556.552 671.757C559.514 673.423 563.124 673.33 565.993 671.386L570.992 668.054C574.416 665.74 579.044 666.111 582.098 668.98L586.264 672.867C590.336 676.662 596.26 677.866 601.443 675.922L609.126 673.053C610.236 672.682 611.347 672.497 612.458 672.405L612.273 672.682Z" fill="#F3F3F3"/>
<path d="M753.985 185.732C754.078 185.177 753.8 184.807 753.615 184.621C753.522 184.529 752.967 184.251 752.504 184.436L746.765 186.38C744.081 187.306 740.842 186.102 739.361 183.603L737.325 180.086C737.325 180.086 736.584 179.438 736.121 179.531L715.388 183.048C709.094 184.066 702.615 183.233 696.877 180.364L686.88 175.551C681.142 172.774 676.514 168.424 673.552 162.87L661.056 140.008C659.575 141.489 657.632 142.23 655.503 142.137L612.278 139.268C612.278 139.268 611.538 139.36 611.167 139.545C610.52 139.916 610.149 140.564 610.149 141.304C610.149 142.045 610.519 142.692 611.075 143.063L632.271 157.039C633.752 158.057 634.77 159.538 635.233 161.297L635.973 164.166C636.528 166.48 635.973 168.979 634.492 170.83C633.011 172.589 630.697 174.255 628.383 173.977H616.443V173.885C615.703 173.885 615.147 173.052 614.777 173.514C614.314 173.977 614.129 173.792 614.129 174.347L616.443 203.041C616.628 204.984 615.888 206.835 614.685 208.316L630.697 219.979C633.659 222.108 635.14 225.625 634.677 229.235L632.641 243.026C631.901 247.839 628.013 251.449 622.922 252.282C622.182 252.374 621.534 252.744 620.979 253.207L606.262 266.536C605.614 267.184 604.781 267.369 603.948 267.369C602.374 267.276 600.893 265.888 600.246 265.147C599.968 264.87 599.783 264.499 599.69 264.129C599.227 262.185 597.561 261.075 595.155 261.075L585.344 261.26C583.03 261.26 580.993 263.018 580.716 265.332C580.345 267.646 578.679 269.312 576.458 269.497C575.903 269.497 575.44 269.96 575.255 270.516C575.07 271.071 575.255 271.719 575.532 272.089C577.754 274.403 578.679 277.92 578.031 281.067L574.977 289.86C574.607 290.971 575.44 294.211 575.903 294.211H575.995C577.198 294.211 578.864 294.303 583.585 298.468C587.657 301.986 589.601 306.799 588.768 312.167C589.971 317.165 593.026 321.238 597.469 323.552L597.654 323.737C599.413 320.312 602.467 314.481 606.725 306.243C607.558 304.67 609.038 303.559 610.704 303.096C611.815 302.819 612.926 302.911 614.037 303.281L615.795 299.394C616.906 296.987 619.405 295.506 622.089 295.877L633.937 297.358C635.695 297.543 637.269 298.561 638.287 300.042L639.028 301.152C639.028 301.152 639.398 301.523 639.675 301.615C640.046 301.615 640.231 301.615 640.508 301.43L644.118 298.653C644.118 298.653 644.489 298.191 644.489 297.913C644.489 297.635 644.489 297.358 644.211 297.173L641.342 294.118C640.138 292.822 639.583 290.971 639.768 289.212L640.046 287.269C640.416 284.122 643.285 281.53 646.525 281.9L669.664 283.289C671.423 283.381 673.089 284.307 674.2 285.695L677.347 289.86C677.347 289.86 677.809 290.231 678.18 290.231L686.602 288.842C688.731 288.472 690.768 289.305 692.156 290.786L704.837 304.947C704.837 304.947 705.299 305.318 705.577 305.318C705.947 305.318 706.225 305.133 706.41 304.855L706.78 304.207C708.354 301.985 711.408 300.967 714 301.986L716.684 303.004C716.684 303.004 717.517 303.004 717.795 302.819L719.924 300.597C721.59 298.839 724.366 298.283 726.68 299.209C728.994 300.227 730.475 302.448 730.475 304.947V310.316C730.475 310.316 730.568 311.056 731.03 311.241L732.049 311.704C732.049 311.704 732.974 311.704 733.252 311.426L738.991 301.338C740.379 298.931 742.971 297.543 745.655 297.82C747.691 298.005 749.45 298.931 750.745 300.505C753.985 300.134 756.762 302.263 757.41 305.318L758.983 313C759.353 314.851 758.891 316.887 757.595 318.276L754.355 321.886C754.355 321.886 754.078 322.533 754.078 322.719C754.078 322.904 754.263 323.274 754.54 323.459L761.945 328.272C761.945 328.272 762.686 328.457 763.056 328.272L770.645 322.904C770.645 322.904 771.016 322.441 771.108 322.163V320.59C771.294 318.276 772.682 316.332 774.718 315.407C776.754 314.481 779.161 314.759 780.92 316.147L781.568 316.61C781.568 316.61 782.215 316.887 782.493 316.795L800.449 305.966C800.912 304.485 801.93 303.189 803.319 302.448C805.077 301.43 807.484 301.43 809.242 302.448C809.705 302.726 810.446 302.541 810.723 302.171L813.778 300.505C813.778 300.505 816.092 300.134 816.092 299.857V297.358C816.092 295.692 814.611 295.784 815.814 294.581C817.017 293.47 816.369 294.488 817.943 294.488H818.128L823.404 293.007C825.718 293.007 827.847 293.933 828.865 296.062L830.346 298.838C830.346 298.838 830.901 299.209 831.271 299.209L832.567 298.931C832.567 298.931 833.03 298.746 833.215 298.468L836.547 294.396C835.899 293.47 835.529 292.452 835.436 291.249L834.881 281.53C834.881 281.53 834.881 281.252 834.881 281.16L824.422 258.576C823.404 256.262 823.867 253.485 825.625 251.634L832.937 244.229C832.937 244.229 833.308 243.674 833.308 243.303C833.308 242.933 833.122 242.656 832.845 242.47L813.5 228.772C813.5 228.772 813.222 228.587 813.037 228.587L808.872 227.754C806.373 227.291 804.337 225.255 803.874 222.663L803.596 220.997C803.596 220.442 803.134 220.256 802.949 220.164C802.763 220.164 802.208 219.979 801.838 220.256L798.598 222.663C796.932 223.959 794.433 224.236 792.489 223.403L785.085 220.164C782.401 219.053 780.919 216.276 781.382 213.407V212.852C781.382 212.852 781.382 212.111 781.197 211.834C780.92 211.556 780.549 211.463 780.179 211.463L778.513 211.648C778.513 211.648 777.958 211.648 777.773 211.648C775.644 211.648 773.793 210.63 772.589 208.964L772.034 208.131C771.664 207.669 771.016 207.483 770.553 207.761L769.257 208.501C767.869 209.335 766.11 209.52 764.537 209.149C762.871 208.687 761.575 207.668 760.742 206.188L754.078 194.062C753.337 192.674 753.152 191.101 753.522 189.62L754.448 185.825L753.985 185.732Z" fill="#F3F3F3"/>
<path d="M579.695 359.093C578.955 361.407 579.973 363.999 582.194 365.11L584.045 366.035C586.729 367.331 590.154 366.683 592.098 364.369L599.688 355.484L598.762 330.863H598.577C598.577 330.863 597.651 330.863 597.188 330.678C596.355 330.308 595.8 329.66 595.615 328.827L594.689 328.179C589.043 325.217 585.063 319.756 583.582 313.37C583.582 313.184 583.397 312.444 583.582 312.074C584.323 308.371 583.027 304.484 580.158 301.985C577.103 299.301 575.9 298.653 575.622 298.56C574.419 298.745 572.938 298.005 571.92 296.802C570.069 294.673 569.143 290.6 569.976 288.009L572.938 279.401C573.216 278.197 572.66 276.624 571.642 275.513C569.884 273.662 569.328 271.07 570.161 268.664C570.995 266.442 572.938 264.869 575.252 264.499C576.363 259.593 580.25 256.261 584.971 256.168H594.782C598.947 256.076 602.464 258.205 603.853 261.629L617.181 249.504C618.477 248.393 620.05 247.561 621.716 247.283C624.678 246.82 626.9 244.784 627.27 242.285L629.214 228.586C629.491 226.827 628.658 225.161 627.27 224.051L609.036 210.722C609.036 210.722 609.036 210.722 608.943 210.722C607.555 210.722 606.259 210.352 605.056 209.611C602.187 207.76 580.065 193.506 572.568 188.601C572.568 189.804 572.383 191.1 571.735 192.303L569.143 196.931C568.773 197.579 568.865 198.412 569.328 198.967L575.807 206.372C577.288 208.038 577.844 210.259 577.381 212.481C576.918 214.61 575.437 216.368 573.308 217.294L567.477 219.793C566.922 219.978 566.644 220.441 566.459 220.996L559.147 247.005C558.777 248.301 558.036 249.412 557.018 250.337L554.519 252.466C553.131 253.762 551.187 254.317 549.336 254.132C547.485 253.947 545.726 253.021 544.523 251.54C544.06 250.985 543.227 250.707 542.579 250.985L541.098 251.54C541.098 251.54 540.265 252.003 540.08 252.466C539.895 252.929 539.802 253.392 540.08 253.854L541.191 256.816C541.931 258.76 541.746 260.796 540.728 262.648L524.715 291.526C523.512 293.747 521.198 295.043 518.606 295.043C518.514 295.043 518.329 295.043 518.236 295.043C515.552 294.858 513.238 293.192 512.312 290.693C511.757 289.397 508.055 279.678 506.481 275.421C505.185 275.883 502.594 276.994 497.781 279.308C495.559 280.419 492.782 280.141 490.746 278.753L482.046 272.459C481.305 271.996 480.38 271.996 479.732 272.644L473.16 278.938C473.16 278.938 472.605 279.771 472.605 280.234C472.605 280.789 472.79 281.159 473.16 281.529L477.233 285.232C478.806 286.62 479.639 288.656 479.454 290.785V292.822C479.176 295.136 477.881 297.264 475.844 298.375L465.385 304.206C464.83 304.484 464.552 305.039 464.46 305.687L463.904 317.535C463.904 317.997 464.089 318.553 464.46 318.923C464.83 319.293 465.385 319.478 465.848 319.478L470.476 319.293C473.808 319.293 476.677 321.7 477.233 324.939L478.899 333.825C479.084 334.658 479.824 333.825 480.657 333.825L489.636 331.604H490.098C493.338 331.604 496.115 335.213 496.855 338.268L499.632 349.745C499.632 349.745 500.187 350.3 500.557 350.208C500.928 350.023 501.205 349.93 501.298 349.56L501.576 348.079C501.576 348.079 501.576 347.616 501.576 347.339L500.372 342.34C500.095 341.322 500.465 340.304 501.298 339.749C503.612 337.99 506.018 337.62 508.147 338.638C512.127 340.489 513.423 346.413 513.515 348.357L513.701 350.578L514.996 348.634C515.459 347.894 515.645 347.061 515.459 346.228C514.534 342.433 516.57 338.545 520.272 337.157C523.604 335.861 527.214 336.879 529.343 339.471C529.528 339.749 529.806 340.026 529.991 340.026C530.176 340.026 530.269 340.026 530.454 339.841L531.194 339.101C532.49 337.805 532.583 335.676 531.287 334.38C529.528 332.529 529.158 329.752 530.361 327.438L531.657 325.032C532.675 323.181 534.804 321.885 537.118 321.885L542.486 322.07C547.114 322.255 551.002 325.495 551.927 330.03L553.13 332.992L555.537 331.326C558.036 329.475 561.276 328.827 564.33 329.752C567.385 330.678 569.791 332.899 570.902 335.861L571.272 336.879C572.383 339.749 572.105 342.988 570.532 345.673C570.161 346.413 570.161 347.153 570.624 347.616C570.994 347.986 571.55 348.172 572.012 347.986L573.956 347.339C575.9 346.691 578.214 347.153 579.695 348.634C581.176 350.115 581.731 352.337 581.083 354.373L579.417 359.464L579.695 359.093Z" fill="#F3F3F3"/>
<path d="M465.475 593.637L467.789 597.802L476.119 584.104C477.323 582.16 479.544 580.864 481.858 580.864C483.802 580.864 485.653 580.031 487.041 578.55C488.43 577.069 489.077 575.126 488.985 573.182L488.522 568.091C488.245 564.389 485.19 562.723 481.488 562.723H463.254C460.292 562.723 457.608 559.483 456.775 556.614L454.09 546.71C453.905 545.97 453.072 545.044 452.239 545.137L443.354 546.618C440.577 547.08 437.707 545.692 436.319 543.193L431.414 534.493C430.303 532.456 430.303 530.05 431.414 528.013L432.061 526.718C432.061 526.718 431.876 526.347 431.876 526.255C431.691 525.607 431.691 524.959 432.061 524.311C432.339 523.663 432.895 523.2 433.542 523.015C433.728 523.015 433.913 523.015 434.098 523.015L443.261 505.892C443.631 505.244 443.446 504.411 442.891 503.948L431.136 492.934C427.434 489.417 426.23 483.956 428.082 479.235L439.096 452.023C439.281 451.56 439.188 450.912 438.911 450.449L433.172 442.212C432.709 441.564 431.784 441.379 431.043 441.749L424.657 445.266C421.047 447.21 416.697 447.488 412.809 446.007C408.922 444.433 406.053 441.194 404.849 437.214L400.869 423.793C400.221 421.756 400.684 419.535 401.887 417.869L409.755 407.225C411.051 405.559 412.995 404.54 415.123 404.54C416.419 404.54 417.715 404.911 418.826 405.651L422.065 407.78C422.065 407.78 422.898 408.058 423.361 407.965C423.824 407.873 424.194 407.595 424.379 407.132C425.49 405.096 427.434 403.8 429.748 403.615C431.969 403.337 434.283 404.355 435.671 406.207L438.078 409.353C438.448 409.909 439.188 410.094 439.744 409.909L456.867 405.466C457.515 405.281 457.978 404.818 458.07 404.17L461.403 383.9C461.403 383.9 461.403 382.974 461.125 382.697L457.33 377.698C456.867 377.051 456.034 376.865 455.294 377.236L438.448 385.473C436.504 386.492 433.913 386.399 431.969 385.196C430.025 383.992 428.822 381.864 428.73 379.55L428.359 354.466C428.359 353.726 427.804 353.078 427.063 352.893L416.419 350.764C415.956 350.764 415.401 350.857 415.031 351.227C414.661 351.597 414.475 352.245 414.475 352.8L415.586 362.241C415.771 364.185 415.216 365.111 413.92 366.592C412.624 367.98 410.866 368.535 408.922 368.535H403.553C403.553 368.535 402.813 368.998 402.535 369.183L398.833 371.59C398.278 372.052 398 373.256 398.37 373.996L401.332 380.475C402.628 383.067 401.98 386.306 399.851 388.343L382.358 404.911C382.358 404.911 381.802 405.836 381.895 406.299L387.541 449.894C387.911 452.856 386.245 455.725 383.561 456.929L377.915 460.723C375.323 462.482 372.176 463.223 369.029 462.76C368.196 462.667 367.178 462.575 366.16 462.575C360.514 462.575 353.479 464.518 349.499 467.203C348.574 467.85 347.093 467.85 346.352 467.203C341.262 463.037 319.048 416.943 314.605 407.78L314.142 406.854C305.812 388.62 301.462 387.695 300.629 387.695C300.629 387.695 300.536 387.695 300.443 387.695L292.391 390.472C291.743 390.749 291.002 390.842 290.262 390.842C287.948 390.842 285.727 389.639 284.523 387.695L278.692 378.161C277.211 375.662 277.396 372.515 279.248 370.294L281.654 367.424C282.117 366.869 282.209 366.129 281.746 365.481L272.491 350.949C272.213 350.486 271.75 350.209 271.102 350.209C271.01 350.209 270.917 350.209 270.825 350.209C270.547 350.209 269.714 350.486 269.529 351.412L264.623 370.757C264.068 372.793 262.68 374.366 260.828 375.199C258.977 376.032 256.756 375.94 254.997 374.922L254.164 374.459C252.22 373.441 250.925 371.497 250.647 369.276L246.112 325.773C243.798 327.624 242.502 330.679 243.057 333.826V334.566C243.612 337.898 243.705 342.249 240.928 343.637C239.54 344.378 237.874 344.1 236.3 342.804C235.005 342.434 233.524 342.619 232.32 343.267C231.117 343.915 230.377 345.025 230.192 346.229C230.006 347.247 230.099 348.265 230.377 349.283L231.117 351.782L233.616 355.022C237.596 360.298 237.041 368.35 234.634 370.479L216.03 382.882L217.511 393.896C217.974 397.136 222.139 398.339 224.175 395.747C225.471 393.526 228.155 392.508 230.654 393.156C233.246 393.804 235.005 396.21 235.005 398.894L234.079 465.907C233.986 472.941 230.839 479.698 225.471 484.326L208.255 499.135C206.219 500.894 204.553 502.93 203.164 505.152L194.371 519.961C192.15 523.663 191.872 528.199 193.631 532.086L200.665 548.191C202.054 551.246 201.128 554.855 198.537 556.984L192.057 562.353C189.651 564.296 190.114 568.091 192.89 569.48C195.112 570.498 197.796 570.127 199.647 568.554L210.106 559.576C212.143 557.817 214.642 556.799 217.326 556.707L231.857 556.059C235.19 555.966 237.133 559.668 235.19 562.353L234.727 563.001C232.413 566.055 231.58 569.942 232.413 573.645L236.578 592.434C237.411 596.322 240.558 599.283 244.445 600.024L252.591 601.597C257.311 602.523 260.273 607.429 258.792 612.057L251.943 633.808C249.721 640.75 254.349 647.969 261.569 648.895L270.177 650.005C274.712 650.653 278.322 653.986 279.433 658.336L282.765 672.682C283.875 677.588 289.707 679.624 293.687 676.57L304.331 668.425C309.421 664.537 316.919 667.036 318.492 673.238L320.899 682.586C321.917 686.381 324.971 689.343 328.859 690.176L331.821 690.824C336.541 691.842 341.169 688.325 341.262 683.512L341.91 665.093C341.91 663.334 341.539 661.668 340.706 660.094L333.579 647.321C332.006 644.637 332.006 641.305 333.579 638.528L334.042 637.603C335.708 634.548 339.133 632.882 342.557 633.345L347.185 633.993C351.258 634.548 355.238 632.419 356.997 628.717L357.922 626.773C360.329 621.775 366.715 620.202 371.251 623.534L374.675 626.033C379.026 629.272 385.227 628.162 388.189 623.534L388.467 623.071C390.503 619.924 395.316 620.572 396.334 624.274L398.278 631.216L399.944 623.534C401.147 619.924 405.96 619.184 408.181 622.331L409.848 624.737C412.254 628.069 417.437 626.496 417.622 622.423V621.127C417.715 619.739 418.363 618.443 419.381 617.517L419.936 616.962C422.065 615.018 425.397 615.574 426.878 617.98C428.544 620.85 432.061 621.96 435.116 620.664L442.983 617.24C445.482 616.129 446.963 613.723 446.871 611.038L446.686 606.688C446.5 602.153 448.722 597.895 452.424 595.303L457.145 592.064C460.014 590.12 463.902 591.046 465.66 594.008L465.475 593.637Z" fill="#F3F3F3"/>
<path d="M200.287 356.687L210.653 364.555C212.597 366.036 213.985 368.35 214.263 370.756L215.096 376.865L231.109 366.128C231.294 365.017 231.664 360.76 229.35 357.705L226.573 354.096C226.573 354.096 226.203 353.54 226.203 353.263L225.37 350.301C224.907 348.542 224.722 346.783 225.092 345.025C225.555 342.248 227.314 339.842 229.813 338.453C232.312 337.065 235.551 336.787 238.236 337.713C238.236 337.065 238.236 336.139 238.05 335.029V334.288C237.032 328.179 240.087 322.441 245.548 319.849L241.475 267.924C240.92 260.704 238.698 253.484 235.089 247.191L224.167 228.031C223.611 227.105 223.704 225.995 224.444 225.162C225.092 224.421 226.203 224.051 227.221 224.329L234.811 226.828C236.292 227.661 237.403 227.476 238.143 226.643C238.976 225.717 238.884 224.421 238.05 223.588L222.408 208.409C222.408 208.409 221.76 207.576 221.668 207.113L215.096 178.79L198.806 174.625C198.806 174.625 198.806 174.625 198.713 174.625C198.713 176.661 197.973 178.605 196.769 180.271L187.791 192.766C185.755 195.543 182.423 197.116 178.998 196.746L174.74 196.283C174.74 196.283 174.37 196.283 174.185 196.283C172.797 196.283 171.501 196.839 170.483 197.857C169.372 198.968 168.724 200.541 168.909 202.115C169.187 205.262 167.706 207.853 165.114 209.242C162.523 210.537 159.468 210.167 157.34 208.316L151.231 203.04C150.305 202.207 149.009 202.115 147.898 202.577C147.621 202.763 147.436 203.04 147.528 203.41C148.269 206.095 147.898 208.594 146.325 210.537C144.937 212.296 142.808 213.314 140.494 213.314C140.309 213.314 140.124 213.314 140.031 213.314L127.258 212.481C122.538 212.203 118.743 208.594 118.095 203.873L116.429 191.841C116.058 188.971 113.559 186.843 110.69 186.843C106.895 186.843 103.285 185.084 100.971 182.029L95.6029 174.995C94.0294 172.959 91.5305 171.663 88.9388 171.663C87.2728 171.663 85.6993 172.126 84.4034 173.051L82.2747 174.44C79.7756 176.106 76.8137 176.939 73.8518 176.939C70.1494 176.939 66.6322 175.643 63.8555 173.236C62.282 171.848 61.1713 170.83 60.4308 169.997C60.1531 170.182 59.8754 170.367 59.5977 170.552C55.5251 173.236 50.1569 173.884 45.5289 172.311L12.0227 160.371C10.4492 159.815 8.69067 159.908 7.20972 160.556C5.35855 161.389 3.41473 161.759 1.47101 161.759C-2.13876 161.759 -5.56339 160.371 -8.155 157.964L-16.6704 150.097C-18.2439 148.616 -19.4471 146.672 -20.0025 144.636L-20.9281 141.211C-21.2984 139.73 -22.7792 138.712 -24.4453 138.712C-25.0932 138.712 -25.6485 138.897 -26.2039 139.175L-33.4234 143.71C-35.6448 145.099 -38.3291 145.932 -41.0133 145.932C-45.1784 145.932 -49.1584 144.08 -51.8426 140.933L-61.3761 129.734L-77.111 113.629C-79.5175 111.222 -80.7208 107.983 -80.7208 104.558C-80.7208 101.133 -79.2399 97.9864 -76.8334 95.5799L-76.1855 95.0245C-74.1492 93.0808 -72.9459 90.304 -73.0384 87.4347L-73.4088 69.4784C-73.4088 69.0156 -73.5938 68.5528 -73.9641 68.2751C-74.3343 67.9974 -74.7971 67.9049 -75.2599 67.9974C-76.1855 68.2751 -77.2036 68.3677 -78.1292 68.3677C-83.2199 68.3677 -87.5702 65.1281 -89.0511 60.3151L-91.0874 53.5583C-92.4758 49.023 -90.5321 44.1173 -86.4595 41.8034L-81.8316 39.1192C-79.4251 37.7308 -77.9441 35.2317 -77.8515 32.5475L-77.6664 27.4569C-77.6664 26.7164 -77.9442 25.9759 -78.4995 25.5131C-79.0548 25.0504 -79.7953 24.8652 -80.5358 25.0503L-82.1093 25.328C-84.9786 25.9759 -88.1255 24.5875 -89.699 22.0885L-91.2725 19.4968C-92.3831 17.6457 -92.6609 15.4243 -91.9204 13.2954C-91.18 11.2592 -89.5139 9.68565 -87.4777 8.94518L-86.0892 8.48236L-109.507 -1.32881C-115.8 -4.01301 -122.835 -4.84603 -129.592 -3.64277C-140.976 -1.7916 -168.929 2.92884 -184.664 5.42792C-190.865 6.44606 -196.049 10.5187 -198.64 16.2573C-201.602 23.1066 -207.341 28.3824 -214.283 30.6038L-218.355 31.8996C-221.687 33.0103 -225.297 32.1773 -227.981 29.8633C-229.462 28.5675 -231.499 28.2899 -233.165 29.1229L-256.86 41.2481C-262.043 43.9323 -267.596 45.2281 -273.52 45.1355L-300.547 44.5802C-305.823 44.4876 -310.358 40.6002 -311.376 35.4169C-311.932 32.5476 -314.153 30.5113 -317.023 30.4187L-324.15 30.1411C-329.24 29.8634 -333.776 32.1773 -336.83 36.3425L-338.959 39.3969C-343.217 45.3207 -350.066 48.8378 -357.193 48.8378C-358.952 48.8378 -360.803 48.6527 -362.561 48.1899L-380.61 43.8397C-382.184 43.4695 -383.85 43.2844 -385.423 43.2844C-393.568 43.2844 -400.881 48.0974 -404.12 55.6872L-410.877 71.4221C-415.134 81.3259 -424.761 87.7124 -435.497 87.7124C-440.125 87.7124 -444.661 89.2859 -448.27 92.2478L-454.75 97.5236C-459.47 102.429 -461.321 109.464 -459.655 116.128L-454.564 136.12C-453.454 140.471 -450.029 143.803 -445.679 144.821L-441.514 145.839C-437.904 147.227 -435.127 150.189 -433.831 153.799L-430.129 164.073C-428.833 167.59 -430.684 171.478 -434.202 172.681L-443.365 175.921C-447.9 177.957 -453.269 176.754 -456.601 172.959C-456.601 172.959 -457.619 171.848 -458.73 170.46C-460.581 168.146 -463.728 167.405 -466.505 168.516H-466.69C-470.485 170.182 -472.151 174.81 -470.114 178.42L-460.951 195.08C-459.84 197.117 -459.47 199.523 -459.84 201.837L-460.581 205.91C-461.136 209.334 -459.933 212.851 -457.341 215.258L-386.164 278.938C-380.518 284.029 -371.539 282.27 -368.207 275.421C-365.153 269.034 -357.841 265.98 -351.084 268.201C-349.14 268.849 -347.197 269.497 -345.531 269.96C-342.198 271.071 -340.162 274.31 -340.625 277.827V278.012C-341.18 281.9 -339.237 285.695 -335.719 287.453C-326.278 292.359 -307.767 301.985 -299.344 306.243C-296.66 307.631 -294.809 310.315 -294.346 313.37V313.555C-293.605 319.479 -286.663 322.441 -281.85 318.738H-281.665C-279.907 317.257 -275.279 316.98 -273.242 317.813C-270.743 318.738 -266.856 321.145 -266.856 323.829V327.068C-266.856 334.473 -265.468 341.322 -259.266 345.395C-256.86 346.969 -255.471 348.635 -253.435 350.023C-250.38 352.059 -247.141 352.059 -243.994 350.208H-244.087C-241.125 348.264 -237.515 350.671 -237.885 354.096V354.281C-238.533 359.557 -233.905 363.814 -228.722 362.889L-226.13 362.426C-220.854 361.5 -215.764 364.832 -214.56 370.016L-212.154 380.382C-211.876 381.771 -210.766 382.789 -209.377 383.066C-207.341 383.437 -205.397 381.956 -205.212 379.827C-204.934 376.217 -204.101 371.311 -201.232 370.571L-200.954 376.125C-200.769 378.901 -198.733 381.215 -195.956 381.771C-193.365 382.233 -190.865 381.03 -189.57 378.809C-188.366 376.68 -186.7 374.366 -185.219 373.996C-183.553 373.625 -176.889 380.29 -171.613 385.843C-167.263 390.471 -160.599 391.859 -154.768 389.453C-144.216 385.103 -127.741 378.253 -118.577 374.458C-114.69 372.885 -110.34 374.458 -108.396 378.161C-107.285 380.382 -107.1 382.696 -107.933 384.918C-109.044 388.157 -110.802 393.063 -112.191 396.95C-113.487 400.56 -112.746 404.447 -110.247 407.409L-110.062 407.594C-107.007 411.297 -100.899 408.983 -101.176 404.077V402.319C-101.361 400.282 -100.991 398.246 -100.066 396.487L-90.8098 378.809C-89.514 376.402 -87.5702 374.366 -85.1637 372.978L-79.3325 369.645C-76.278 367.887 -72.5757 367.424 -69.151 368.257L-25.0932 378.531C-23.6123 378.901 -22.3164 379.549 -21.1131 380.475C-16.6703 383.992 -5.28577 392.693 -3.8974 392.23C-2.13879 391.674 19.6125 389.083 19.6125 389.083L27.3874 382.511L26.4619 379.549C23.5926 376.402 24.4255 371.311 28.2204 369.275C28.2204 369.275 34.4219 365.943 38.587 363.722C40.8084 362.518 42.2894 360.39 42.6596 357.89C43.3076 353.633 46.6395 350.393 50.8047 349.93L60.0605 348.912C65.4289 348.357 70.0569 344.655 71.723 339.471L74.0369 332.252C74.87 329.753 76.3508 327.624 78.2946 325.958L81.9043 322.996C85.8843 319.664 91.4378 319.108 96.0657 321.422L111.616 329.29C116.058 331.604 121.519 329.29 123.185 324.662L123.556 323.551C124.296 321.608 125.684 319.941 127.628 319.108L138.087 314.295C141.79 312.629 146.232 314.11 148.084 317.72L149.009 319.571C150.12 321.793 149.565 324.477 147.621 325.958L144.566 328.364C143.085 329.475 142.16 331.141 141.79 332.992L141.419 335.029C140.957 337.528 143.826 339.379 145.862 337.805L152.341 332.992C155.025 330.956 158.913 332.622 159.376 335.954L159.839 339.934C160.024 341.322 159.561 342.803 158.635 343.914L149.472 354.651C147.713 356.687 147.991 359.649 150.027 361.315C151.878 362.889 154.563 362.796 156.321 361.13L157.34 360.204C160.487 357.243 165.022 356.409 169.002 357.983L183.348 363.722C185.94 364.74 188.902 363.259 189.457 360.482C190.568 355.669 196.214 353.633 200.101 356.595L200.287 356.687Z" fill="#F3F3F3"/>
</g>
<path d="M384 340.5C384 339.688 384.198 338.938 384.594 338.25C384.99 337.563 385.542 337.01 386.25 336.594C386.958 336.198 387.708 336 388.5 336C389.292 336 390.042 336.198 390.75 336.594C391.458 337.01 392.01 337.563 392.406 338.25C392.802 338.938 393 339.688 393 340.5C393 341.313 392.802 342.063 392.406 342.75C392.01 343.438 391.458 343.99 390.75 344.406C390.042 344.802 389.292 345 388.5 345C387.708 345 386.958 344.802 386.25 344.406C385.542 343.99 384.99 343.438 384.594 342.75C384.198 342.063 384 341.313 384 340.5ZM388.5 338.5C388.813 338.479 388.979 338.313 389 338C388.979 337.688 388.813 337.521 388.5 337.5C387.646 337.521 386.938 337.813 386.375 338.375C385.813 338.938 385.521 339.646 385.5 340.5C385.521 340.813 385.688 340.979 386 341C386.313 340.979 386.479 340.813 386.5 340.5C386.521 339.938 386.719 339.469 387.094 339.094C387.469 338.719 387.938 338.521 388.5 338.5ZM387.5 351V345.906C387.833 345.969 388.167 346 388.5 346C388.833 346 389.167 345.969 389.5 345.906V351C389.5 351.292 389.406 351.531 389.219 351.719C389.031 351.906 388.792 352 388.5 352C388.208 352 387.969 351.906 387.781 351.719C387.594 351.531 387.5 351.292 387.5 351Z" fill="#585757"/>
<path d="M303 348.5C303 347.688 303.198 346.938 303.594 346.25C303.99 345.563 304.542 345.01 305.25 344.594C305.958 344.198 306.708 344 307.5 344C308.292 344 309.042 344.198 309.75 344.594C310.458 345.01 311.01 345.563 311.406 346.25C311.802 346.938 312 347.688 312 348.5C312 349.313 311.802 350.063 311.406 350.75C311.01 351.438 310.458 351.99 309.75 352.406C309.042 352.802 308.292 353 307.5 353C306.708 353 305.958 352.802 305.25 352.406C304.542 351.99 303.99 351.438 303.594 350.75C303.198 350.063 303 349.313 303 348.5ZM307.5 346.5C307.813 346.479 307.979 346.313 308 346C307.979 345.688 307.813 345.521 307.5 345.5C306.646 345.521 305.938 345.813 305.375 346.375C304.813 346.938 304.521 347.646 304.5 348.5C304.521 348.813 304.688 348.979 305 349C305.313 348.979 305.479 348.813 305.5 348.5C305.521 347.938 305.719 347.469 306.094 347.094C306.469 346.719 306.938 346.521 307.5 346.5ZM306.5 359V353.906C306.833 353.969 307.167 354 307.5 354C307.833 354 308.167 353.969 308.5 353.906V359C308.5 359.292 308.406 359.531 308.219 359.719C308.031 359.906 307.792 360 307.5 360C307.208 360 306.969 359.906 306.781 359.719C306.594 359.531 306.5 359.292 306.5 359Z" fill="#585757"/>
<path d="M326 222.5C326 221.687 326.198 220.938 326.594 220.25C326.99 219.562 327.542 219.01 328.25 218.594C328.958 218.198 329.708 218 330.5 218C331.292 218 332.042 218.198 332.75 218.594C333.458 219.01 334.01 219.562 334.406 220.25C334.802 220.938 335 221.687 335 222.5C335 223.313 334.802 224.063 334.406 224.75C334.01 225.438 333.458 225.99 332.75 226.406C332.042 226.802 331.292 227 330.5 227C329.708 227 328.958 226.802 328.25 226.406C327.542 225.99 326.99 225.438 326.594 224.75C326.198 224.063 326 223.313 326 222.5ZM330.5 220.5C330.813 220.479 330.979 220.313 331 220C330.979 219.687 330.813 219.521 330.5 219.5C329.646 219.521 328.938 219.813 328.375 220.375C327.813 220.938 327.521 221.646 327.5 222.5C327.521 222.813 327.687 222.979 328 223C328.313 222.979 328.479 222.813 328.5 222.5C328.521 221.938 328.719 221.469 329.094 221.094C329.469 220.719 329.938 220.521 330.5 220.5ZM329.5 233V227.906C329.833 227.969 330.167 228 330.5 228C330.833 228 331.167 227.969 331.5 227.906V233C331.5 233.292 331.406 233.531 331.219 233.719C331.031 233.906 330.792 234 330.5 234C330.208 234 329.969 233.906 329.781 233.719C329.594 233.531 329.5 233.292 329.5 233Z" fill="#585757"/>
<path d="M348 412.5C348 411.688 348.198 410.938 348.594 410.25C348.99 409.563 349.542 409.01 350.25 408.594C350.958 408.198 351.708 408 352.5 408C353.292 408 354.042 408.198 354.75 408.594C355.458 409.01 356.01 409.563 356.406 410.25C356.802 410.938 357 411.688 357 412.5C357 413.313 356.802 414.063 356.406 414.75C356.01 415.438 355.458 415.99 354.75 416.406C354.042 416.802 353.292 417 352.5 417C351.708 417 350.958 416.802 350.25 416.406C349.542 415.99 348.99 415.438 348.594 414.75C348.198 414.063 348 413.313 348 412.5ZM352.5 410.5C352.813 410.479 352.979 410.313 353 410C352.979 409.688 352.813 409.521 352.5 409.5C351.646 409.521 350.938 409.813 350.375 410.375C349.813 410.938 349.521 411.646 349.5 412.5C349.521 412.813 349.688 412.979 350 413C350.313 412.979 350.479 412.813 350.5 412.5C350.521 411.938 350.719 411.469 351.094 411.094C351.469 410.719 351.938 410.521 352.5 410.5ZM351.5 423V417.906C351.833 417.969 352.167 418 352.5 418C352.833 418 353.167 417.969 353.5 417.906V423C353.5 423.292 353.406 423.531 353.219 423.719C353.031 423.906 352.792 424 352.5 424C352.208 424 351.969 423.906 351.781 423.719C351.594 423.531 351.5 423.292 351.5 423Z" fill="#585757"/>
<path d="M445 352.5C445 351.688 445.198 350.938 445.594 350.25C445.99 349.563 446.542 349.01 447.25 348.594C447.958 348.198 448.708 348 449.5 348C450.292 348 451.042 348.198 451.75 348.594C452.458 349.01 453.01 349.563 453.406 350.25C453.802 350.938 454 351.688 454 352.5C454 353.313 453.802 354.063 453.406 354.75C453.01 355.438 452.458 355.99 451.75 356.406C451.042 356.802 450.292 357 449.5 357C448.708 357 447.958 356.802 447.25 356.406C446.542 355.99 445.99 355.438 445.594 354.75C445.198 354.063 445 353.313 445 352.5ZM449.5 350.5C449.813 350.479 449.979 350.313 450 350C449.979 349.688 449.813 349.521 449.5 349.5C448.646 349.521 447.938 349.813 447.375 350.375C446.813 350.938 446.521 351.646 446.5 352.5C446.521 352.813 446.688 352.979 447 353C447.313 352.979 447.479 352.813 447.5 352.5C447.521 351.938 447.719 351.469 448.094 351.094C448.469 350.719 448.938 350.521 449.5 350.5ZM448.5 363V357.906C448.833 357.969 449.167 358 449.5 358C449.833 358 450.167 357.969 450.5 357.906V363C450.5 363.292 450.406 363.531 450.219 363.719C450.031 363.906 449.792 364 449.5 364C449.208 364 448.969 363.906 448.781 363.719C448.594 363.531 448.5 363.292 448.5 363Z" fill="#585757"/>
<path d="M380 267.5C380 266.688 380.198 265.938 380.594 265.25C380.99 264.563 381.542 264.01 382.25 263.594C382.958 263.198 383.708 263 384.5 263C385.292 263 386.042 263.198 386.75 263.594C387.458 264.01 388.01 264.563 388.406 265.25C388.802 265.938 389 266.688 389 267.5C389 268.313 388.802 269.063 388.406 269.75C388.01 270.438 387.458 270.99 386.75 271.406C386.042 271.802 385.292 272 384.5 272C383.708 272 382.958 271.802 382.25 271.406C381.542 270.99 380.99 270.438 380.594 269.75C380.198 269.063 380 268.313 380 267.5ZM384.5 265.5C384.813 265.479 384.979 265.313 385 265C384.979 264.688 384.813 264.521 384.5 264.5C383.646 264.521 382.938 264.813 382.375 265.375C381.813 265.938 381.521 266.646 381.5 267.5C381.521 267.813 381.688 267.979 382 268C382.313 267.979 382.479 267.813 382.5 267.5C382.521 266.938 382.719 266.469 383.094 266.094C383.469 265.719 383.938 265.521 384.5 265.5ZM383.5 278V272.906C383.833 272.969 384.167 273 384.5 273C384.833 273 385.167 272.969 385.5 272.906V278C385.5 278.292 385.406 278.531 385.219 278.719C385.031 278.906 384.792 279 384.5 279C384.208 279 383.969 278.906 383.781 278.719C383.594 278.531 383.5 278.292 383.5 278Z" fill="#585757"/>
<path d="M485 204.5C485 203.688 485.198 202.938 485.594 202.25C485.99 201.562 486.542 201.01 487.25 200.594C487.958 200.198 488.708 200 489.5 200C490.292 200 491.042 200.198 491.75 200.594C492.458 201.01 493.01 201.562 493.406 202.25C493.802 202.938 494 203.688 494 204.5C494 205.312 493.802 206.063 493.406 206.75C493.01 207.438 492.458 207.99 491.75 208.406C491.042 208.802 490.292 209 489.5 209C488.708 209 487.958 208.802 487.25 208.406C486.542 207.99 485.99 207.438 485.594 206.75C485.198 206.063 485 205.312 485 204.5ZM489.5 202.5C489.812 202.479 489.979 202.312 490 202C489.979 201.688 489.812 201.521 489.5 201.5C488.646 201.521 487.938 201.813 487.375 202.375C486.813 202.938 486.521 203.646 486.5 204.5C486.521 204.812 486.688 204.979 487 205C487.312 204.979 487.479 204.812 487.5 204.5C487.521 203.938 487.719 203.469 488.094 203.094C488.469 202.719 488.938 202.521 489.5 202.5ZM488.5 215V209.906C488.833 209.969 489.167 210 489.5 210C489.833 210 490.167 209.969 490.5 209.906V215C490.5 215.292 490.406 215.531 490.219 215.719C490.031 215.906 489.792 216 489.5 216C489.208 216 488.969 215.906 488.781 215.719C488.594 215.531 488.5 215.292 488.5 215Z" fill="#585757"/>
<path d="M387 177.5C387 176.688 387.198 175.938 387.594 175.25C387.99 174.562 388.542 174.01 389.25 173.594C389.958 173.198 390.708 173 391.5 173C392.292 173 393.042 173.198 393.75 173.594C394.458 174.01 395.01 174.562 395.406 175.25C395.802 175.938 396 176.688 396 177.5C396 178.312 395.802 179.063 395.406 179.75C395.01 180.438 394.458 180.99 393.75 181.406C393.042 181.802 392.292 182 391.5 182C390.708 182 389.958 181.802 389.25 181.406C388.542 180.99 387.99 180.438 387.594 179.75C387.198 179.063 387 178.312 387 177.5ZM391.5 175.5C391.812 175.479 391.979 175.312 392 175C391.979 174.688 391.812 174.521 391.5 174.5C390.646 174.521 389.938 174.813 389.375 175.375C388.813 175.938 388.521 176.646 388.5 177.5C388.521 177.812 388.688 177.979 389 178C389.312 177.979 389.479 177.812 389.5 177.5C389.521 176.938 389.719 176.469 390.094 176.094C390.469 175.719 390.938 175.521 391.5 175.5ZM390.5 188V182.906C390.833 182.969 391.167 183 391.5 183C391.833 183 392.167 182.969 392.5 182.906V188C392.5 188.292 392.406 188.531 392.219 188.719C392.031 188.906 391.792 189 391.5 189C391.208 189 390.969 188.906 390.781 188.719C390.594 188.531 390.5 188.292 390.5 188Z" fill="#585757"/>
<path d="M682 40L687 42.8868V37.1132L682 40ZM698 39.5H686.5V40.5H698V39.5Z" fill="white"/>
</svg>
